<svg xmlns="http://www.w3.org/2000/svg" xmlns:xlink="http://www.w3.org/1999/xlink" width="294.5" height="404.654" viewBox="0 0 294.5 404.654">
  <defs>
    <clipPath id="clip-path">
      <rect id="Rectángulo_401226" data-name="Rectángulo 401226" width="294.5" height="404.654" rx="14" fill="#fff"/>
    </clipPath>
  </defs>
  <g id="Grupo_1099822" data-name="Grupo 1099822" transform="translate(6305.25 8925.915)">
    <g id="Grupo_1099817" data-name="Grupo 1099817" transform="translate(-6968.25 -10636)">
      <path id="Trazado_873177" data-name="Trazado 873177" d="M280.5,0H14A14,14,0,0,0,0,14V390.654a14,14,0,0,0,14,14H280.5a14,14,0,0,0,14-14V14A14,14,0,0,0,280.5,0Z" transform="translate(663 1710.085)" fill="#e3eae2"/>
      <g id="Enmascarar_grupo_1098676" data-name="Enmascarar grupo 1098676" transform="translate(663 1710.085)" clip-path="url(#clip-path)">
        <path id="Trazado_873176" data-name="Trazado 873176" d="M-17827.279-8763.7l-4.1,26.336,4.1,72.415,7.7,48.9-11.793,98.675,4.1,32.831v48.257l38.314,19.694,14.277,14.672,8.605,10.531,7.209-3.476h10.027l4.492,3.476,12.078-3.476s.045.147,2.082,0,16.607,4.063,19.311,3.476,11.365-3.476,11.365-3.476.719,1.3,8.68,0,21.848,0,21.848,0,7.229-8.924,12.6-7.056,17.557-1.246,20.674,0,2.7-4.453,11.75,0a152.251,152.251,0,0,0,16.822,7.056l13.1-7.056s6.5-5.241,8.938,0,5.377,8.34,8.273,7.056,7.871,2.357,11.09,0,9.912-17.977,16.166-7.056,19.035,17.17,19.035,17.17l5.932-10.114,10.045-7.056s18.445,8.56,21.5,7.056,11.846-.521,15.979,0,11.875,2.658,15.455,0,12.457-7.056,12.457-7.056,8.113-4.9,11.234,0,2.3,6.882,5.2,7.056,8.926,4.12,10.025,0,1.287-.824,3.2-7.056,8.426-14.672,8.426-14.672,3.486-30.484,0-36.117-3.934-10.854-5.455-16.655-2.971-19.957-2.971-19.957l2.971-51.879v-9.917s4.666-8.2,5.455-12.488-.1,3.063,0-14.442-.943-29.284,0-38-.418-17.4,0-21.165-6.516-8.944-5.455-13.649,0-14.084,0-14.084,5.408-1.687,5.455-4.418-.986-11.483,0-19.689.25-25.963,0-28.78.463-5.57,0-10.572,0-18.361,0-18.361l-5.455-26.5s-8.943-14.474-11.4-18.149-21.234-19.271-21.234-19.271,1,9.34-12.457,9.411-18.6-2.424-21.143,0-30.85-3.31-31.791,0-22.795,3.985-22.795,3.985a84.223,84.223,0,0,0-12.217-3.985c-6.182-1.421-27.256,0-27.256,0s-16.686.019-17.211,0-20.939-3.534-23.562-4.093-25.166-9.876-26.67-5.318-16.152,3.292-17.664,5.318-12.145,4.365-16.656,4.093-20.92,3.985-20.92,3.985h-28.682s-9.959-16.89-17.937-13.4-33.768,5.318-33.768,5.318-18.43,6.924-19.225,8.078-3.65,14.917-3.65,14.917-12.623,7.953-14.242,9.107S-17827.279-8763.7-17827.279-8763.7Z" transform="translate(17757.682 8763.777)" fill="#fff"/>
      </g>
    </g>
  </g>
</svg>
