<svg xmlns="http://www.w3.org/2000/svg" xmlns:xlink="http://www.w3.org/1999/xlink" width="109" height="109" viewBox="0 0 109 109">
  <defs>
    <clipPath id="clip-path">
      <rect id="Rectángulo_401317" data-name="Rectángulo 401317" width="66" height="61" transform="translate(-0.412 -0.001)" fill="none"/>
    </clipPath>
  </defs>
  <g id="Grupo_1099570" data-name="Grupo 1099570" transform="translate(-615.051 -463)">
    <circle id="Elipse_11500" data-name="Elipse 11500" cx="54.5" cy="54.5" r="54.5" transform="translate(615.051 463)" fill="#fff"/>
    <g id="Grupo_1099566" data-name="Grupo 1099566" transform="translate(639.412 482.727)">
      <g id="Grupo_1099565" data-name="Grupo 1099565" transform="translate(0.051 0.274)" clip-path="url(#clip-path)">
        <path id="Trazado_873623" data-name="Trazado 873623" d="M30.289,18.645A11.645,11.645,0,1,1,18.645,7,11.638,11.638,0,0,1,30.289,18.645" transform="translate(-5.986 -6.184)" fill="#769671"/>
        <path id="Trazado_873624" data-name="Trazado 873624" d="M12.7,25.406a12.7,12.7,0,1,1,12.7-12.7,12.718,12.718,0,0,1-12.7,12.7m0-23.289A10.586,10.586,0,1,0,23.289,12.7,10.6,10.6,0,0,0,12.7,2.117" transform="translate(-0.045 -0.243)" fill="#3a4d69"/>
        <path id="Trazado_873625" data-name="Trazado 873625" d="M60.234,49.41A4,4,0,0,1,56,45.705,4,4,0,0,1,60.234,42a4.619,4.619,0,0,1,2.75.884,1.059,1.059,0,0,1-1.266,1.7,2.49,2.49,0,0,0-1.484-.464c-1.148,0-2.117.727-2.117,1.588s.97,1.588,2.117,1.588a1.059,1.059,0,1,1,0,2.117" transform="translate(-47.576 -35.891)" fill="#fcfbf9"/>
        <path id="Trazado_873626" data-name="Trazado 873626" d="M78.059,84.41a1.059,1.059,0,0,1,0-2.117c1.148,0,2.117-.727,2.117-1.588s-.97-1.588-2.117-1.588a1.059,1.059,0,0,1,0-2.117,3.738,3.738,0,1,1,0,7.41" transform="translate(-65.4 -65.598)" fill="#fcfbf9"/>
        <path id="Trazado_873627" data-name="Trazado 873627" d="M66.175,110.334a4.618,4.618,0,0,1-2.75-.884,1.059,1.059,0,0,1,1.266-1.7,2.489,2.489,0,0,0,1.484.464,1.059,1.059,0,0,1,0,2.117" transform="translate(-53.516 -91.522)" fill="#fcfbf9"/>
        <path id="Trazado_873628" data-name="Trazado 873628" d="M78.059,116.234A1.059,1.059,0,0,1,77,115.176v-2.117a1.059,1.059,0,0,1,2.117,0v2.117a1.059,1.059,0,0,1-1.059,1.059" transform="translate(-65.4 -95.305)" fill="#fcfbf9"/>
        <path id="Trazado_873629" data-name="Trazado 873629" d="M78.059,32.234A1.059,1.059,0,0,1,77,31.176V29.059a1.059,1.059,0,0,1,2.117,0v2.117a1.059,1.059,0,0,1-1.059,1.059" transform="translate(-65.4 -24.008)" fill="#fcfbf9"/>
        <path id="Trazado_873630" data-name="Trazado 873630" d="M64.574,394.117H1.059a1.059,1.059,0,0,1,0-2.117H64.574a1.059,1.059,0,0,1,0,2.117" transform="translate(-0.045 -332.961)" fill="#3a4d69"/>
        <path id="Trazado_873631" data-name="Trazado 873631" d="M36.879,259.172a1.059,1.059,0,0,1-1.059-1.059v-18h-12.7v18a1.059,1.059,0,1,1-2.117,0v-18A2.12,2.12,0,0,1,23.117,238h12.7a2.12,2.12,0,0,1,2.117,2.117v18a1.059,1.059,0,0,1-1.059,1.059" transform="translate(-17.869 -202.25)" fill="#3a4d69"/>
        <path id="Trazado_873632" data-name="Trazado 873632" d="M176.879,205.7a1.059,1.059,0,0,1-1.059-1.059V177.117h-12.7v27.523a1.059,1.059,0,1,1-2.117,0V177.117A2.119,2.119,0,0,1,163.117,175h12.7a2.12,2.12,0,0,1,2.117,2.117v27.523a1.059,1.059,0,0,1-1.059,1.059" transform="translate(-136.697 -148.778)" fill="#3a4d69"/>
        <path id="Trazado_873633" data-name="Trazado 873633" d="M316.879,140.344a1.059,1.059,0,0,1-1.059-1.059V100.117h-12.7v39.168a1.059,1.059,0,0,1-2.117,0V100.117A2.12,2.12,0,0,1,303.117,98h12.7a2.12,2.12,0,0,1,2.117,2.117v39.168a1.059,1.059,0,0,1-1.059,1.059" transform="translate(-255.525 -83.422)" fill="#3a4d69"/>
      </g>
    </g>
  </g>
</svg>
