<svg xmlns="http://www.w3.org/2000/svg" xmlns:xlink="http://www.w3.org/1999/xlink" width="85" height="85" viewBox="0 0 85 85">
  <defs>
    <clipPath id="clip-path">
      <rect id="Rectángulo_401330" data-name="Rectángulo 401330" width="61.952" height="61.952" fill="none"/>
    </clipPath>
  </defs>
  <g id="Grupo_1099579" data-name="Grupo 1099579" transform="translate(-704.73 -2846)">
    <g id="Grupo_1099539" data-name="Grupo 1099539">
      <path id="Trazado_873499" data-name="Trazado 873499" d="M42.5,0A42.5,42.5,0,1,1,0,42.5,42.5,42.5,0,0,1,42.5,0Z" transform="translate(704.73 2846)" fill="#769671"/>
      <g id="Grupo_1099591" data-name="Grupo 1099591" transform="translate(717.255 2858.524)">
        <g id="Grupo_1099590" data-name="Grupo 1099590" clip-path="url(#clip-path)">
          <path id="Trazado_873713" data-name="Trazado 873713" d="M4,34.479a30.059,30.059,0,0,0,.81,6.916l9.838-15.628,1.971,2.846L31.014,4.62A30.01,30.01,0,0,0,4,34.479" transform="translate(-3.032 -3.502)" fill="#e9bd68"/>
          <path id="Trazado_873714" data-name="Trazado 873714" d="M119.142,4c-.954,0-1.9.05-2.828.137l14.444,26h6.776L147.592,43.55A30.006,30.006,0,0,0,119.142,4" transform="translate(-88.166 -3.034)" fill="#e9bd68"/>
          <path id="Trazado_873715" data-name="Trazado 873715" d="M107.938,41.484a.966.966,0,0,1-.775-.387L97.4,28.072H91.1a.967.967,0,0,1-.846-.5L76.551,2.9,65.8,20.826a.968.968,0,1,1-1.66-1L75.753.47A.94.94,0,0,1,76.6,0a.968.968,0,0,1,.83.5L91.673,26.136h6.207a.969.969,0,0,1,.774.387l10.058,13.411a.968.968,0,0,1-.774,1.549" transform="translate(-48.511 0)" fill="#12263f"/>
          <path id="Trazado_873716" data-name="Trazado 873716" d="M80.84,63.747a.968.968,0,0,1-.756-.363l-3.872-4.84a.968.968,0,0,1,1.512-1.21l3.045,3.806,3.138-4.706a.968.968,0,0,1,1.342-.268l2.9,1.936a.968.968,0,1,1-1.074,1.611l-2.1-1.4-3.335,5a.969.969,0,0,1-.763.43H80.84" transform="translate(-57.608 -42.45)" fill="#12263f"/>
          <path id="Trazado_873717" data-name="Trazado 873717" d="M69.41,120.8a.966.966,0,0,1-.775-.387l-2.528-3.371H60.783a.967.967,0,0,1-.708-.308L46.81,102.522H38.519a.968.968,0,0,1-.8-.417L29.848,90.731l-4.06,6.5A.968.968,0,0,1,24.147,96.2l4.84-7.744a.968.968,0,0,1,1.617-.038l8.423,12.167h8.2a.967.967,0,0,1,.707.307L61.2,115.106h5.387a.968.968,0,0,1,.774.387l2.818,3.758a.968.968,0,0,1-.774,1.549" transform="translate(-18.191 -66.706)" fill="#12263f"/>
          <path id="Trazado_873718" data-name="Trazado 873718" d="M200.968,117.683a.968.968,0,0,1-.968-.968v-7.744a.968.968,0,1,1,1.936,0v7.744a.968.968,0,0,1-.968.968" transform="translate(-151.6 -81.866)" fill="#12263f"/>
          <path id="Trazado_873719" data-name="Trazado 873719" d="M17.812,36.843a.969.969,0,0,1-.925-.683c-.6-1.944-3.944-2.221-3.977-2.223A.968.968,0,0,1,13.032,32c.159.01,3.312.233,4.942,2.184A6.775,6.775,0,0,1,22.651,32a.968.968,0,1,1,0,1.936c-2.321,0-4.018,2.448-4.035,2.473a.968.968,0,0,1-.805.431" transform="translate(-9.099 -24.258)" fill="#12263f"/>
          <path id="Trazado_873720" data-name="Trazado 873720" d="M116.968,202.651a.968.968,0,0,1-.968-.968v-8.712a.968.968,0,1,1,1.936,0v8.712a.968.968,0,0,1-.968.968" transform="translate(-87.928 -145.539)" fill="#12263f"/>
          <path id="Trazado_873721" data-name="Trazado 873721" d="M110.776,212.843a.965.965,0,0,1-.684-.284l-2.22-2.219-2.22,2.219a.968.968,0,0,1-1.369-1.369l2.9-2.9a.967.967,0,0,1,1.369,0l2.9,2.9a.968.968,0,0,1-.684,1.652" transform="translate(-78.832 -157.666)" fill="#12263f"/>
          <path id="Trazado_873722" data-name="Trazado 873722" d="M112.84,195.875a.965.965,0,0,1-.684-.284L110.9,194.34l-1.252,1.251a.968.968,0,0,1-1.369-1.369l1.936-1.936a.967.967,0,0,1,1.369,0l1.936,1.936a.968.968,0,0,1-.684,1.652" transform="translate(-81.864 -145.538)" fill="#12263f"/>
          <path id="Trazado_873723" data-name="Trazado 873723" d="M72.968,186.651a.968.968,0,0,1-.968-.968v-8.712a.968.968,0,1,1,1.936,0v8.712a.968.968,0,0,1-.968.968" transform="translate(-54.576 -133.411)" fill="#12263f"/>
          <path id="Trazado_873724" data-name="Trazado 873724" d="M66.776,196.843a.965.965,0,0,1-.684-.284l-2.22-2.219-2.22,2.219a.968.968,0,0,1-1.369-1.369l2.9-2.9a.967.967,0,0,1,1.369,0l2.9,2.9a.968.968,0,0,1-.684,1.652" transform="translate(-45.48 -145.538)" fill="#12263f"/>
          <path id="Trazado_873725" data-name="Trazado 873725" d="M68.84,179.875a.965.965,0,0,1-.684-.284L66.9,178.34l-1.252,1.251a.968.968,0,0,1-1.369-1.369l1.936-1.936a.967.967,0,0,1,1.369,0l1.936,1.936a.968.968,0,0,1-.684,1.652" transform="translate(-48.512 -133.41)" fill="#12263f"/>
          <path id="Trazado_873726" data-name="Trazado 873726" d="M30.976,62.73A31.011,31.011,0,0,1,0,31.754a.968.968,0,1,1,1.936,0,29.04,29.04,0,1,0,32.788-28.8.968.968,0,1,1,.247-1.92,30.978,30.978,0,0,1-4,61.7" transform="translate(0 -0.777)" fill="#12263f"/>
        </g>
      </g>
    </g>
  </g>
</svg>
