<svg xmlns="http://www.w3.org/2000/svg" xmlns:xlink="http://www.w3.org/1999/xlink" width="450.326" height="221.255" viewBox="0 0 450.326 221.255">
  <defs>
    <clipPath id="clip-path">
      <rect id="Rectángulo_401328" data-name="Rectángulo 401328" width="450.326" height="221.255" transform="translate(-78)" fill="#769671"/>
    </clipPath>
    <clipPath id="clip-path-2">
      <rect id="Rectángulo_401325" data-name="Rectángulo 401325" width="91.8" height="131.834" fill="#fff"/>
    </clipPath>
    <clipPath id="clip-path-3">
      <rect id="Rectángulo_401326" data-name="Rectángulo 401326" width="96.087" height="82.06" transform="translate(0 0)" fill="#fff"/>
    </clipPath>
    <clipPath id="clip-path-4">
      <rect id="Rectángulo_401327" data-name="Rectángulo 401327" width="500.272" height="807.609" fill="none"/>
    </clipPath>
  </defs>
  <g id="Enmascarar_grupo_1098697" data-name="Enmascarar grupo 1098697" transform="translate(78)" clip-path="url(#clip-path)">
    <g id="Grupo_1099583" data-name="Grupo 1099583" transform="translate(-392.484 -272.166)">
      <g id="Grupo_1099582" data-name="Grupo 1099582" transform="translate(12495.73 12919.136)">
        <g id="Grupo_1099581" data-name="Grupo 1099581" transform="translate(-11837.393 -12571.834)">
          <g id="Grupo_1099580" data-name="Grupo 1099580" clip-path="url(#clip-path-2)">
            <path id="Trazado_873653" data-name="Trazado 873653" d="M15.378,124.327q-1.038-35.4.808-70.8c.317-6.05.531-12.148,1.331-18.158q-.134,1-.268,1.994a42.708,42.708,0,0,1,2.609-10.349L19.1,28.8a25.624,25.624,0,0,1,2.381-4.437c.312-.458,1.212-1.423-.249.26.259-.3.5-.611.759-.906a21.622,21.622,0,0,1,1.889-1.88c.208-.185,1.408-1.142.344-.329-1.107.846.352-.243.562-.388q1.017-.7,2.089-1.32a44.192,44.192,0,0,1,4.814-2.369l-1.792.756a46.58,46.58,0,0,1,11.559-3.2l-1.993.268a37.225,37.225,0,0,1,9.561-.061l-1.994-.268a28.985,28.985,0,0,1,6.861,1.815L52.1,15.992a25.579,25.579,0,0,1,2.848,1.4q.733.424,1.436.9c.209.142.413.291.62.436,1.143.8-1.076-.919-.425-.325.864.789,1.74,1.544,2.537,2.407q.628.681,1.212,1.4c.164.2.8,1.007.051.052-.816-1.047.039.08.152.239a68.473,68.473,0,0,1,6.926,13.117L66.7,33.831A129.47,129.47,0,0,1,75.19,66.557q-.134-1-.268-1.994c2.315,17.532,2.032,35.26,1.652,52.9a7.5,7.5,0,1,0,15,0c.4-18.341.544-36.671-1.919-54.89a136.851,136.851,0,0,0-5.8-25.619c-3.054-9.012-6.946-18.113-13.049-25.5-12.4-15.015-34.66-13.621-50.417-5.2A33.576,33.576,0,0,0,8.981,16.16,34.189,34.189,0,0,0,3.675,28.452,86.653,86.653,0,0,0,1.859,42.166c-.335,4.858-.6,9.723-.836,14.587Q-.441,86.788.189,116.875q.081,3.726.189,7.452c.115,3.918,3.367,7.685,7.5,7.5,3.965-.178,7.623-3.3,7.5-7.5" fill="#fff"/>
            <path id="Trazado_873654" data-name="Trazado 873654" d="M37.569,118.975q-1.389-15.353-1.442-30.784-.021-7.646.293-15.286c.205-4.984.384-10.016,1.044-14.964q-.134,1-.268,1.994a31.717,31.717,0,0,1,2.029-7.8l-.756,1.792a19.754,19.754,0,0,1,1.426-2.7c.2-.314.435-.61.634-.925-1.254,1.979-.438.564.011.074q.5-.548,1.052-1.047c.509-.46,1.433-.771-.377.239.856-.478,1.615-1.051,2.52-1.459l-1.791.756a12.643,12.643,0,0,1,2.8-.806l-1.994.268a12.383,12.383,0,0,1,2.968-.03l-1.994-.268a13.873,13.873,0,0,1,3.209.859l-1.792-.756a15.911,15.911,0,0,1,2.645,1.428c.052.036.607.453.62.441-.059.052-1.433-1.2-.622-.456.426.389.853.77,1.253,1.187.356.371.679.766,1.015,1.153.579.669-.941-1.352-.48-.6.133.216.29.419.428.632a22.457,22.457,0,0,1,1.647,3.136l-.756-1.791a38.443,38.443,0,0,1,2.447,9.657q-.134-1-.268-1.994c1.227,9.242,1.721,18.637,2.137,27.946q.639,14.315.407,28.65c-.062,3.924,3.494,7.679,7.5,7.5a7.642,7.642,0,0,0,7.5-7.5q.294-18.651-.872-37.284c-.379-6.005-.793-12.031-1.506-18.008-.755-6.331-1.891-12.99-5.6-18.359-3.485-5.041-8.7-9.353-14.923-10.3a19.771,19.771,0,0,0-11.548,1.592,19.392,19.392,0,0,0-6.723,5.173A28.879,28.879,0,0,0,24.266,49.4a42.737,42.737,0,0,0-1.944,9.666c-.7,5.967-.875,12.03-1.049,18.032a351.411,351.411,0,0,0,1.3,41.88,8.053,8.053,0,0,0,2.2,5.3,7.619,7.619,0,0,0,5.3,2.2c3.76-.168,7.879-3.316,7.5-7.5" fill="#fff"/>
          </g>
        </g>
        <path id="Trazado_873655" data-name="Trazado 873655" d="M80.8,2.182c-25.952,11.232-50.937,27.634-66.529,52.3s-19.937,58.795-5.279,84.1c10.958,18.914,30.491,30.359,50.168,38,41.172,15.992,86.346,18.8,129.7,11.835,13.86-2.228,27.792-5.513,40.124-12.573S252,157.522,256.221,143.369c4.244-14.24,1.627-29.709-2.1-44.111-3.286-12.7-7.527-25.389-15.041-35.882-15.141-21.146-40.636-29.959-63.427-41C160.29,14.928,145.343,5.927,128.819,2.2,112.4-1.5,95.381.217,78.676,1.955" transform="translate(-12004 -12527.511)" fill="#148c8e" opacity="0.592"/>
      </g>
    </g>
    <g id="Grupo_1099587" data-name="Grupo 1099587" transform="translate(-1064.73 -3561.864)">
      <g id="Grupo_1099586" data-name="Grupo 1099586" transform="translate(12990.73 16548)">
        <g id="Grupo_1099585" data-name="Grupo 1099585" transform="translate(-11793.637 -13030.03)">
          <g id="Grupo_1099584" data-name="Grupo 1099584" clip-path="url(#clip-path-3)">
            <path id="Trazado_873656" data-name="Trazado 873656" d="M88.994,20.131A39.555,39.555,0,0,0,66.678,4.151,63.28,63.28,0,0,0,51.371,1.943a6.785,6.785,0,0,0-6.8-1.589C43.04.9,41.549,1.5,40.074,2.136q-2.768.159-5.529.373a8,8,0,0,0-5.3,2.2,7.861,7.861,0,0,0-2.18,4.616,76,76,0,0,0-6.61,5.1,65.14,65.14,0,0,0-8.484,8.9A61.519,61.519,0,0,0,4.045,35.681,40.386,40.386,0,0,0,.009,51.541a30.628,30.628,0,0,0,3.328,14.5C7.905,75.1,17.516,79.315,27.084,80.7a122.474,122.474,0,0,0,31.06.674,115.35,115.35,0,0,0,15.917-2.689c5.033-1.289,10.16-3.511,13.748-7.392a30.125,30.125,0,0,0,6.815-13.685A53.3,53.3,0,0,0,96.08,44.575c-.141-8.486-2.321-17.335-7.086-24.444m-71.338,40.7a2.259,2.259,0,0,0,.2.22.877.877,0,0,1-.2-.22M80.771,50.443a38.478,38.478,0,0,1-1.945,7.525c-.276.578-.569,1.148-.9,1.7-.18.3-.393.584-.594.874-.132.147-.263.294-.4.435-.292.3-.674.566-.98.866-.109.071-.215.145-.325.214a18.921,18.921,0,0,1-1.9,1.019,62.332,62.332,0,0,1-13.234,3.009,118.157,118.157,0,0,1-29.957.068,41.464,41.464,0,0,1-8.1-1.993,21.464,21.464,0,0,1-2.176-1.143c-.6-.367-2.127-1.755-.407-.175-.431-.4-.892-.752-1.312-1.165-.373-.367-.716-.758-1.059-1.152-.052-.093-.1-.183-.147-.252a19.2,19.2,0,0,1-1.207-2.2,23.536,23.536,0,0,1-.987-3.659,25.924,25.924,0,0,1,0-4.561,33.751,33.751,0,0,1,1.785-6.359,53.047,53.047,0,0,1,5.629-9.5c.062-.084.156-.2.258-.323l-.229.261c.261-.3.5-.623.745-.93q.879-1.077,1.8-2.115,1.916-2.15,4.018-4.123c1.324-1.243,2.707-2.408,4.116-3.551q.553-.414,1.118-.816,1.131-.808,2.3-1.569a64.98,64.98,0,0,1,6.811-3.86,88.385,88.385,0,0,1,13.317.4,44.687,44.687,0,0,1,9.531,2.508,32.272,32.272,0,0,1,4.231,2.355c.359.239.707.492,1.058.743l.165.142a28.477,28.477,0,0,1,2.092,1.959c.439.453.843.932,1.249,1.411.076.086.163.186.248.288.126.147.249.3.378.44-.086-.1-.161-.18-.233-.26.046.058.089.114.123.162q.408.58.79,1.179a33.258,33.258,0,0,1,2.111,3.877,40.188,40.188,0,0,1,2.26,8.336,45.76,45.76,0,0,1-.031,9.934" fill="#fff"/>
            <path id="Trazado_873657" data-name="Trazado 873657" d="M22.8,33.669c.984-1.124.423-.509,0,0" fill="#fff"/>
            <path id="Trazado_873658" data-name="Trazado 873658" d="M75.518,26.955c-.046-.058-.094-.119-.146-.18-.082-.1-.166-.191-.248-.288-.292-.331-.421-.443.394.468" fill="#fff"/>
          </g>
        </g>
        <path id="Trazado_873659" data-name="Trazado 873659" d="M80.8,2.182c-25.952,11.232-50.937,27.634-66.529,52.3s-19.937,58.795-5.279,84.1c10.958,18.914,30.491,30.359,50.168,38,41.172,15.992,86.346,18.8,129.7,11.835,13.86-2.228,27.792-5.513,40.124-12.573S252,157.522,256.221,143.369c4.244-14.24,1.627-29.709-2.1-44.111-3.286-12.7-7.527-25.389-15.041-35.882-15.141-21.146-40.636-29.959-63.427-41C160.29,14.928,145.343,5.927,128.819,2.2,112.4-1.5,95.381.217,78.676,1.955" transform="translate(-12004 -13103)" fill="#fdb12a" opacity="0.592"/>
      </g>
    </g>
    <g id="Grupo_1099589" data-name="Grupo 1099589" transform="translate(-132.626 14.366)">
      <g id="Grupo_1099588" data-name="Grupo 1099588" transform="translate(-44.348 -10.121)" clip-path="url(#clip-path-4)">
        <path id="Trazado_873660" data-name="Trazado 873660" d="M0,370.1c0,9.146,76.732,16.561,171.385,16.561s171.387-7.415,171.387-16.561-76.733-16.564-171.387-16.564S0,360.953,0,370.1" transform="translate(157.5 420.946)" fill="#bfc6d8"/>
        <path id="Trazado_873661" data-name="Trazado 873661" d="M26.056,100.318l48.834.269a28.474,28.474,0,0,1,27.865,23.434c3.268,18.2,7.613,42.365,9.786,54.464a9.741,9.741,0,0,1-5.7,10.655l-8.94,3.891Z" transform="translate(330.495 119.445)" fill="#413d55"/>
        <path id="Trazado_873662" data-name="Trazado 873662" d="M24.121,102.8h88.641A30.575,30.575,0,0,1,142.77,127.51c5.1,26.062,13.181,67.44,19.063,97.531a31.574,31.574,0,0,1-30.888,37.633l-106.824.35Z" transform="translate(285.011 122.399)" fill="#302d3f"/>
        <path id="Trazado_873663" data-name="Trazado 873663" d="M141.56,149.046l11.917-5.72s4.37,2.911,7.742,5.72l27.223-3.523-.71,33.968-34.7-4.8Z" transform="translate(1.718 170.654)" fill="#fba598"/>
        <path id="Trazado_873664" data-name="Trazado 873664" d="M182.93,151.789l-6.263-3.683s-11.694,11.074-4.752,14.745" transform="translate(-54.445 176.345)" fill="#fba598"/>
        <path id="Trazado_873665" data-name="Trazado 873665" d="M186.489,109.09a6.907,6.907,0,0,1,6.907-6.9h71.063a6.9,6.9,0,0,1,6.9,6.9V141.4a6.9,6.9,0,0,1-6.9,6.9H193.4a6.907,6.907,0,0,1-6.907-6.9Z" transform="translate(-179.628 121.668)" fill="#4a4a53"/>
        <path id="Trazado_873666" data-name="Trazado 873666" d="M189.621,109.09a6.9,6.9,0,0,1,6.9-6.9h71.063a6.907,6.907,0,0,1,6.907,6.9V141.4a6.907,6.907,0,0,1-6.907,6.9H196.526a6.9,6.9,0,0,1-6.9-6.9Z" transform="translate(-189.621 121.668)" fill="#302d3f"/>
        <path id="Trazado_873667" data-name="Trazado 873667" d="M244.312,105.192l.14,46.125a4.9,4.9,0,0,1-4.892,4.9h-37.87a4.891,4.891,0,0,1-4.89-4.892V105.208a4.89,4.89,0,1,1,9.779,0V146.44h28.078l-.127-41.217a4.891,4.891,0,0,1,9.781-.031Z" transform="translate(-175.306 119.445)" fill="#14131a"/>
        <path id="Trazado_873668" data-name="Trazado 873668" d="M194.762,130.924a5.239,5.239,0,0,1,5.24-5.24h23.854a5.239,5.239,0,0,1,5.24,5.24v2.02a5.239,5.239,0,0,1-5.24,5.238H200a5.239,5.239,0,0,1-5.24-5.238Z" transform="translate(-155.483 149.648)" fill="#14131a"/>
        <path id="Trazado_873669" data-name="Trazado 873669" d="M151.6,127.64l118.594,64.971c1.7,4.541-.478,7.225-4.465,8.147L147.135,135.787Z" transform="translate(-92.828 151.977)" fill="#14131a"/>
        <path id="Trazado_873670" data-name="Trazado 873670" d="M197.212,146.983s-12.02-9.93-25.123-4.69c-10.559,4.224-16.145,14.629-14.737,16.962,2.532,4.2,20.553-4,20.553-4s8.528,9.709,16.535,7.95" transform="translate(-41.177 167.606)" fill="#fba598"/>
        <path id="Trazado_873671" data-name="Trazado 873671" d="M175.939,156.008c2.7-1.656,4.151-3.336,3.023-4.574-3.658-4.007-13.8-1.041-13.8-1.041-5.93,2.355-12.283,5.983-11.015,11.063a7.711,7.711,0,0,0,3.875.456c-.975,2.427-.938,4.773,1.61,6.121a8.554,8.554,0,0,0,4.473.4,3.724,3.724,0,0,0,2.2,3.466c1.154.611,3.279.622,5.823.23a3.722,3.722,0,0,0,2.186,3.5c5.006,2.679,28.5-5.88,24.857-9.9-1.746-1.932-4.995-2.265-7.9-2.088a1.421,1.421,0,0,0-.156-1.759c-1.481-1.621-4.022-2.1-6.526-2.1a1.427,1.427,0,0,0-.149-1.772c-1.877-2.057-5.464-2.276-8.509-2" transform="translate(-36.621 177.81)" fill="#fcb5aa"/>
        <path id="Trazado_873672" data-name="Trazado 873672" d="M165.538,156.972s8.682-1.352,15.173-4.611a.986.986,0,0,1,.885,1.761c-6.741,3.387-15.753,4.8-15.753,4.8a.986.986,0,1,1-.3-1.948" transform="translate(-42.681 181.285)" fill="#dd5f5f"/>
        <path id="Trazado_873673" data-name="Trazado 873673" d="M161.78,161.185s11.424-3.137,17.915-7.648a.985.985,0,1,1,1.124,1.619c-6.71,4.664-18.516,7.928-18.516,7.928a.985.985,0,0,1-.524-1.9" transform="translate(-33.792 182.603)" fill="#dd5f5f"/>
        <path id="Trazado_873674" data-name="Trazado 873674" d="M158.852,163.069l.068-.011a70.35,70.35,0,0,0,16.364-7.435.985.985,0,1,1,1.1,1.636,75.986,75.986,0,0,1-16.031,7.453,6.684,6.684,0,0,1-1.555.34,1.068,1.068,0,0,1-.762-.289.986.986,0,0,1,.819-1.693Z" transform="translate(-22.065 185.094)" fill="#dd5f5f"/>
        <path id="Trazado_873675" data-name="Trazado 873675" d="M187.176,84.415s-15.733,5.374-23,26.025-26.461,95.912-30.251,97.421-26.761,7.805-26.761,7.805l7.358,46.037s63.008,9.873,78.277-30.165-5.619-147.123-5.619-147.123" transform="translate(67.141 100.51)" fill="#f78bc0"/>
        <path id="Trazado_873676" data-name="Trazado 873676" d="M40.718,323.381S11.825,419.5,43.487,422.16c25.442,2.142,33.232-24.632,35.108-52.026,1.7-24.864-1.785-51.9-14.726-57.56Z" transform="translate(358.492 372.172)" fill="#312e40"/>
        <path id="Trazado_873677" data-name="Trazado 873677" d="M78.277,343.208c-3.021,23.718-11.724,44.367-34.188,42.477-12.366-1.04-15.495-16.338-14.715-34.593,1.082,12.778,4.649,27.471,15.381,26.8,14.857-.929,26.413-13.6,33.522-34.685" transform="translate(357.889 408.647)" fill="#e8f4f9"/>
        <path id="Trazado_873678" data-name="Trazado 873678" d="M33.605,248.069s-1.374,39.664,7.924,63.1,77.528,108.013,77.528,108.013,25.155,16.06,28.628-24.719c0,0-52.714-96.028-53.671-107.654s1.639-38.827,1.639-38.827Z" transform="translate(279.126 295.265)" fill="#fba598"/>
        <path id="Trazado_873679" data-name="Trazado 873679" d="M118.42,260.152c.48-6.9.984-12.169.984-12.169l-62.046.085a261.434,261.434,0,0,0,.885,28.225,257.194,257.194,0,0,0,60.178-16.141" transform="translate(255.374 295.265)" fill="#ef8b83"/>
        <path id="Trazado_873680" data-name="Trazado 873680" d="M162.336,341.973s12.263,9.867,15.433,41.752a777.873,777.873,0,0,1-102.541,3.049s.973-27.784,51.643-43.152Z" transform="translate(157.704 407.176)" fill="#312e40"/>
        <path id="Trazado_873681" data-name="Trazado 873681" d="M176.255,356.175c.611,3.24,1.128,6.778,1.514,10.64a777.867,777.867,0,0,1-102.541,3.049s.14-4.007,3.087-9.816c20.08,1.608,68.916,4.355,97.94-3.873" transform="translate(157.704 424.086)" fill="#e8f4f9"/>
        <path id="Trazado_873682" data-name="Trazado 873682" d="M81.642,241.168l35.583,225.12s16.575,9.849,42.878-.44L143.414,254.985Z" transform="translate(161.318 287.151)" fill="#fba598"/>
        <path id="Trazado_873683" data-name="Trazado 873683" d="M95.008,284.28a217.805,217.805,0,0,0,57.282.955l-2.313-30.251L88.2,241.168Z" transform="translate(154.756 287.151)" fill="#ef8b83"/>
        <path id="Trazado_873684" data-name="Trazado 873684" d="M171.645,151.358,195.061,179S232.234,227.827,205,365.257c0,0-90.339,20.7-149.623,9.567-9.288-74.251-6.2-164.808,5.06-198.532,0,0,1.582-14.014,3.406-26.8C105.449,160.519,124.353,151.78,171.645,151.358Z" transform="translate(175.975 177.992)" fill="#e3b386"/>
        <path id="Trazado_873685" data-name="Trazado 873685" d="M193.55,178.986l-23.409-27.629c-47.292.423-66.2,9.161-107.8-1.869C60.728,160.8,59.3,173.069,59,175.753,83.995,179.477,142.84,186.465,193.55,178.986Z" transform="translate(177.479 177.992)" fill="#e8c09a"/>
        <path id="Trazado_873686" data-name="Trazado 873686" d="M211.742,188.715c-22,34.7-76.24,101.183-161.838,85.6.874,18.211,2.368,36.455,4.539,53.807,59.284,11.133,149.623-9.567,149.623-9.567,11.516-58.118,11.514-100.392,7.676-129.837" transform="translate(176.911 224.697)" fill="#dfaa7f"/>
        <path id="Trazado_873687" data-name="Trazado 873687" d="M124.718,73.57s62.373,9.943,79.193,41.691-12.255,134.115-18.583,136.831S59.682,254.8,53.134,239s-1.067-124.069,9.085-134.408C72.311,94.312,117.268,72.028,124.718,73.57Z" transform="translate(181.022 87.507)" fill="#e7639d"/>
        <path id="Trazado_873688" data-name="Trazado 873688" d="M146.612,79.116S104.9,164.149,110.6,238.91c.191,2.5-7.159-4.066-7.352-6.568-5.886-77.166,32.965-150.271,32.965-150.271,1.159-2.224,11.554-5.179,10.395-2.955" transform="translate(128.709 93.261)" fill="#413d55"/>
        <path id="Trazado_873689" data-name="Trazado 873689" d="M106.75,86.671S58.279,164.639,61.6,218.242c.239,3.845,1.871,7.724,4.313,11.576,4.1,6.471,10.474,12.774,17.44,18.518,18.007,14.848,40.052,25.892,40.052,25.892a4.546,4.546,0,0,1,2.026,6.1c-1.124,2.243-1.82,4.66-4.064,3.536,0,0-33.4-17.256-52.848-36.676-9.028-9.015-15.407-18.921-15.994-28.38-3.457-55.735,44.4-137.4,44.4-137.4,1.33-2.129,11.146,3.135,9.816,5.264" transform="translate(259.675 96.336)" fill="#413d55"/>
        <path id="Trazado_873690" data-name="Trazado 873690" d="M269.877,79.867C250.665,68.228,197.819,43.531,159.1,35.41c-39.585-8.3-92.284-9.216-118.143-4.99a.616.616,0,0,0-.026.074c-.964,3.1,97.811,19.32,113.117,23.445,0,0,109.126,30.923,115.365,26.645a1.039,1.039,0,0,0,.464-.716" transform="translate(140.746 33.281)" fill="#996851"/>
        <path id="Trazado_873691" data-name="Trazado 873691" d="M115.476,24.281s-45.507,80.833-6.489,124.439A45.049,45.049,0,0,1,107,135s6.87,18.2,35.154,17.153c0,0-4.1-8.281-2.18-14.647,0,0,7.214,11.387,17.092,9.157l8.53-34.713Z" transform="translate(130.549 28.911)" fill="#76484f"/>
        <path id="Trazado_873692" data-name="Trazado 873692" d="M117.13,33.882l-12.605,2.71S83.179,92,106.567,114.584c0,0-6.758,3.974-13.385-2.171,0,0,6.377,18.454,19.162,25.328a46.859,46.859,0,0,0,19.436,2.982s-4.1-8.281-2.18-14.647c0,0,7.214,11.387,17.092,9.157l8.53-34.713Z" transform="translate(140.919 40.342)" fill="#553439"/>
        <path id="Trazado_873693" data-name="Trazado 873693" d="M78.234,78.442s5.483,19.359.068,26.895c0,0-.353,15.788,10.053,16.154,11.937.421,24.923-10.193,34.827-29.613C127.4,83.608,118.6,60.54,118.6,60.54Z" transform="translate(204.559 72.083)" fill="#fba598"/>
        <path id="Trazado_873694" data-name="Trazado 873694" d="M122.6,68.2c-1.321-4.454-2.55-7.663-2.55-7.663l-40.37,17.9a71.494,71.494,0,0,1,2.458,16.634c22.042-.107,35.414-18.353,40.462-26.873" transform="translate(203.11 72.083)" fill="#ef8b83"/>
        <path id="Trazado_873695" data-name="Trazado 873695" d="M127.174,19.356c29.1,3.069,48.136,33.018,43.093,65.234-5.95,37.995-33.887,51.949-59.869,52.977-16.347.646-41.967-12.605-37.445-64C77.9,17.3,98.071,16.287,127.174,19.356" transform="translate(170.536 21.901)" fill="#fba598"/>
        <path id="Trazado_873696" data-name="Trazado 873696" d="M83.448,25.377l67.427,8.073,14.009,29.394L153.7,84.054s-16.6-20.489-17.861-37.907c0,0-30.036,11.768-47.321,4.184l3.146-4.25s-8.585,4.228-16.121,3.777c1.862-10.688,4.526-18.629,7.908-24.481" transform="translate(169.905 30.216)" fill="#ef8b83"/>
        <path id="Trazado_873697" data-name="Trazado 873697" d="M151.3,36.2s-13.381,12.859-41.428,10.9c0,0,6.384-5.019,7.726-10.9,0,0-17.03,11.987-28.8,11.689l2.784-21.8Z" transform="translate(154.441 31.055)" fill="#76484f"/>
        <path id="Trazado_873698" data-name="Trazado 873698" d="M66.122,30.7S67.13,56.834,77.881,80.307c0,0,.206,55.7-16.748,66.688,0,0,29.077,7.654,41.879-21.059,0,0,1.148,8.576-4.219,14.715,0,0,19.563,2.925,22.549-30.444,3.1-34.632-12.894-72.41-12.894-72.41Z" transform="translate(244.607 36.552)" fill="#76484f"/>
        <path id="Trazado_873699" data-name="Trazado 873699" d="M269.492,114.205l-.031.024.013-.011Zm.05-.044-.039.035Zm.035-.035-.031.031.024-.022Zm.037-.039-.026.028.011-.009Zm.039-.044-.031.037Zm.031-.039-.022.028.013-.018Zm.031-.046-.022.033.007-.007Zm.031-.046-.026.039Zm.022-.042-.015.028.009-.015Zm.026-.057a.145.145,0,0,1-.02.042Zm.02-.044-.017.039.013-.031Zm.018-.048-.013.035.007-.015Zm.018-.059-.015.048Zm.011-.048-.011.044.009-.031Zm0-.011c1.336-6.456-50.569-39.712-53.792-43.489-1.284-1.5-1.15-40.97-4.493-46.85S185.246,3.666,166.47.957s-47.016.594-51.15,6.793S102.342,48.682,99.341,49.918s-56.331,8.3-58.4,14.224l.011-.035c25.861-4.228,78.56-3.314,118.145,4.988,38.72,8.123,91.566,32.818,110.778,44.46ZM40.936,64.144l-.013.037Zm228.513,50.094-.044.031.037-.024Z" transform="translate(140.737 0.001)" fill="#ca8150"/>
        <path id="Trazado_873700" data-name="Trazado 873700" d="M168.493,13.877C159.325,8.326,146.348,2.606,134.928.957c-18.776-2.712-47.016.594-51.15,6.793C81.129,11.722,76.548,27.4,72.809,38.487,79.5,27.282,83.552,20.276,99.345,12.539,116.34,4.212,149.967,8.876,168.493,13.877Z" transform="translate(172.279 0.001)" fill="#cf9a60"/>
        <path id="Trazado_873701" data-name="Trazado 873701" d="M180.591,39.2C149.784,18.992,96.2,17.557,69.288,18.276c-1.571,4.568-2.964,8.167-3.963,9.51C124.657,26.552,180.984,48.52,180.984,48.52l.854.361a4.182,4.182,0,0,1-.359-.364c-.377-.44-.631-4.147-.887-9.315" transform="translate(175.329 21.597)" fill="#2c2637"/>
        <path id="Trazado_873702" data-name="Trazado 873702" d="M87.5,45.137l-.25-5.38s12.669-5.133,18.774,7.429c-5.889-3.435-13.477-3.842-18.524-2.048" transform="translate(203.106 46.102)" fill="#76484f"/>
        <path id="Trazado_873703" data-name="Trazado 873703" d="M126.335,45.14l-1.426-6.079s-12.787-3.343-17.162,8.25c5.551-3.444,12.614-5.1,18.588-2.171" transform="translate(137.899 45.976)" fill="#76484f"/>
        <path id="Trazado_873704" data-name="Trazado 873704" d="M110.928,44.015s7.273,10.758-1.772,20.952a2.208,2.208,0,0,0-.556,1.411c.088,1.6.528,4.859,3.623,6.491,0,0-5.413-.889-6.18-5.656a3.243,3.243,0,0,1,1.071-3.043c2.388-2.291,8.064-8.949,3.814-20.154" transform="translate(154.393 52.407)" fill="#dd5f5f"/>
        <path id="Trazado_873705" data-name="Trazado 873705" d="M112.22,46.986a3.166,3.166,0,1,0,2.638,3.122,2.91,2.91,0,0,0-2.638-3.122" transform="translate(145.357 55.945)" fill="#203a5a"/>
        <path id="Trazado_873706" data-name="Trazado 873706" d="M96.014,47.819a3.166,3.166,0,1,0,2.638,3.122,2.91,2.91,0,0,0-2.638-3.122" transform="translate(197.065 56.937)" fill="#203a5a"/>
        <path id="Trazado_873707" data-name="Trazado 873707" d="M95.7,64.772s15.238,5.608,23.534-6.09a1.259,1.259,0,0,1,2.055,1.457c-9.337,13.168-26.452,7-26.452,7a1.259,1.259,0,1,1,.863-2.366" transform="translate(172.82 69.238)" fill="#dd5f5f"/>
        <path id="Trazado_873708" data-name="Trazado 873708" d="M119.691,160.3s-12.138-1.043-12.914-1.877S99.051,138.3,95.022,135.852s-23.968-8.009-26.562-2,.576,9.24.576,9.24-4.977,1.435-5.315,5.7,3.9,8.327,3.9,8.327-4.237,2.754-3.63,7.713a8.753,8.753,0,0,0,5.067,6.758s-3.766,1.38-2.484,6.3,9.47,5.672,13.072,6.535c0,0,8.4,6.314,17.6,4.809l18.772,4.973Z" transform="translate(241.028 156.164)" fill="#fba598"/>
        <path id="Trazado_873709" data-name="Trazado 873709" d="M78.394,135.708s11.819-1.133,20.1,4.984A1.26,1.26,0,0,1,97,142.72c-7.562-5.586-18.36-4.506-18.36-4.506a1.259,1.259,0,1,1-.245-2.506" transform="translate(232.024 161.485)" fill="#e67470"/>
        <path id="Trazado_873710" data-name="Trazado 873710" d="M80.212,142s11.293.072,17.977,4.721a1.259,1.259,0,1,1-1.437,2.068c-6.147-4.274-16.546-4.27-16.546-4.27A1.26,1.26,0,1,1,80.212,142Z" transform="translate(228.593 169.074)" fill="#e67470"/>
        <path id="Trazado_873711" data-name="Trazado 873711" d="M80.129,148.712s9.034-.561,16.327,4.561a1.26,1.26,0,0,1-1.448,2.061c-6.576-4.618-14.723-4.107-14.723-4.107a1.26,1.26,0,0,1-.156-2.515" transform="translate(230.332 177.045)" fill="#e67470"/>
        <path id="Trazado_873712" data-name="Trazado 873712" d="M59.354,83.982s14.259,5.983,24.165,28.906,39.9,112.2,19.591,134.292-65.339,8.883-65.339,8.883c4.476-17.4,6.484-24.91,5.472-41.38l10.695-.053S35.31,118.678,59.354,83.982" transform="translate(307.512 99.995)" fill="#f78bc0"/>
      </g>
    </g>
  </g>
</svg>
