<svg xmlns="http://www.w3.org/2000/svg" xmlns:xlink="http://www.w3.org/1999/xlink" width="109" height="109" viewBox="0 0 109 109">
  <defs>
    <clipPath id="clip-path">
      <rect id="Rectángulo_401316" data-name="Rectángulo 401316" width="71.88" height="82.524" fill="none"/>
    </clipPath>
  </defs>
  <g id="Grupo_1099571" data-name="Grupo 1099571" transform="translate(-208.051 -463)">
    <circle id="Elipse_11499" data-name="Elipse 11499" cx="54.5" cy="54.5" r="54.5" transform="translate(208.051 463)" fill="#fff"/>
    <g id="Grupo_1099564" data-name="Grupo 1099564" transform="translate(230.051 475.738)">
      <g id="Grupo_1099563" data-name="Grupo 1099563" clip-path="url(#clip-path)">
        <path id="Trazado_873597" data-name="Trazado 873597" d="M342.854,215.321a3.346,3.346,0,0,1-3.141,2.263,3.4,3.4,0,0,1-1.078-.186,3.311,3.311,0,0,1-2.076-4.219,2.015,2.015,0,0,1,1.9-1.358,2.128,2.128,0,0,1,.626.106l2.516.865a1.989,1.989,0,0,1,1.251,2.529" transform="translate(-272.416 -171.543)" fill="#769671"/>
        <path id="Trazado_873598" data-name="Trazado 873598" d="M334.038,213.245a4.746,4.746,0,0,1-1.5-.254,4.642,4.642,0,0,1-2.914-5.915,3.334,3.334,0,0,1,3.162-2.256,3.436,3.436,0,0,1,1.022.167l.036.012,2.515.865a3.32,3.32,0,0,1,1.922,1.694,3.281,3.281,0,0,1,.154,2.529h0a4.67,4.67,0,0,1-4.4,3.158m-1.251-5.763a.683.683,0,0,0-.643.454,1.979,1.979,0,0,0,1.24,2.53,2.065,2.065,0,0,0,.654.117,2.007,2.007,0,0,0,1.883-1.367.638.638,0,0,0-.03-.491.676.676,0,0,0-.394-.343l-2.5-.859a.8.8,0,0,0-.214-.041m4.392,2.17h0Z" transform="translate(-266.74 -165.874)" fill="#3a4d69"/>
        <path id="Trazado_873599" data-name="Trazado 873599" d="M22.358,121.927a3.284,3.284,0,0,1-.972,2.343,3.326,3.326,0,0,1-4.712,0,1.971,1.971,0,0,1-.572-1.411,1.994,1.994,0,0,1,.572-1.411l1.89-1.877a1.984,1.984,0,0,1,2.822,0,3.314,3.314,0,0,1,.972,2.356" transform="translate(-13.04 -96.358)" fill="#769671"/>
        <path id="Trazado_873600" data-name="Trazado 873600" d="M13.361,120.91a4.635,4.635,0,0,1-3.3-1.368A3.3,3.3,0,0,1,9.1,117.19a3.343,3.343,0,0,1,.962-2.352l1.893-1.88a3.27,3.27,0,0,1,2.329-.976H14.3a3.312,3.312,0,0,1,2.357.979,4.659,4.659,0,0,1-3.3,7.949m.94-6.266h0a.637.637,0,0,0-.454.191l-1.9,1.888a.663.663,0,0,0-.179.466.638.638,0,0,0,.183.47,2,2,0,0,0,2.83,0,1.945,1.945,0,0,0,.582-1.4,1.985,1.985,0,0,0-.582-1.415.668.668,0,0,0-.475-.2" transform="translate(-7.371 -90.689)" fill="#3a4d69"/>
        <path id="Trazado_873601" data-name="Trazado 873601" d="M70.64,33.324v2.662a5.324,5.324,0,1,1-10.648,0V33.324a5.324,5.324,0,1,1,10.648,0" transform="translate(-48.585 -22.676)" fill="#769671"/>
        <path id="Trazado_873602" data-name="Trazado 873602" d="M59.647,36.972a6.663,6.663,0,0,1-6.655-6.655V27.655a6.655,6.655,0,1,1,13.31,0v2.662a6.663,6.663,0,0,1-6.655,6.655m0-13.31a4,4,0,0,0-3.993,3.993v2.662a3.993,3.993,0,0,0,7.986,0V27.655a4.015,4.015,0,0,0-1.174-2.832,3.964,3.964,0,0,0-2.819-1.161" transform="translate(-42.916 -17.007)" fill="#3a4d69"/>
        <path id="Trazado_873603" data-name="Trazado 873603" d="M82.434,150.932a1.331,1.331,0,0,1-.066-2.66,4.751,4.751,0,0,0,4.478-5.168l-1.369-15.117a6.622,6.622,0,0,0-5.89-5.866,64.608,64.608,0,0,0-6.788-.458c-.614,0-1.323.021-2.167.065a1.331,1.331,0,1,1-.137-2.658c.89-.046,1.644-.069,2.3-.069a67.14,67.14,0,0,1,7.081.474,9.27,9.27,0,0,1,8.245,8.231c0,.009,0,.018,0,.027L89.5,142.865a7.413,7.413,0,0,1-7,8.065l-.068,0" transform="translate(-56.067 -96.372)" fill="#3a4d69"/>
        <path id="Trazado_873604" data-name="Trazado 873604" d="M7.094,191.579l-.068,0a7.413,7.413,0,0,1-7-8.062L1.215,170.4a1.331,1.331,0,1,1,2.651.24L2.682,183.752a4.751,4.751,0,0,0,4.478,5.166,1.331,1.331,0,0,1-.066,2.66" transform="translate(0 -137.019)" fill="#3a4d69"/>
        <path id="Trazado_873605" data-name="Trazado 873605" d="M46.709,212.613H28.34a2.662,2.662,0,0,1-2.65-2.914L28.214,183.2a1.331,1.331,0,1,1,2.65.253L28.34,209.951H46.709l-2.523-26.494a1.331,1.331,0,1,1,2.65-.253L49.359,209.7a2.662,2.662,0,0,1-2.65,2.914" transform="translate(-20.796 -147.392)" fill="#3a4d69"/>
        <path id="Trazado_873606" data-name="Trazado 873606" d="M45.184,371.641a1.331,1.331,0,0,1-1.329-1.276l-.5-11.979a1.331,1.331,0,0,1,2.66-.111l.5,11.979a1.331,1.331,0,0,1-1.275,1.385h-.056" transform="translate(-35.111 -289.117)" fill="#3a4d69"/>
        <path id="Trazado_873607" data-name="Trazado 873607" d="M117.312,371.641h-.056a1.331,1.331,0,0,1-1.275-1.385l.5-11.979a1.331,1.331,0,1,1,2.66.111l-.5,11.979a1.331,1.331,0,0,1-1.329,1.276" transform="translate(-93.926 -289.117)" fill="#3a4d69"/>
        <path id="Trazado_873608" data-name="Trazado 873608" d="M82.311,371.641a1.331,1.331,0,0,1-1.331-1.331V358.331a1.331,1.331,0,1,1,2.662,0V370.31a1.331,1.331,0,0,1-1.331,1.331" transform="translate(-65.582 -289.117)" fill="#3a4d69"/>
        <path id="Trazado_873609" data-name="Trazado 873609" d="M192.65,12.324v2.662a5.324,5.324,0,1,1-10.648,0V12.324a5.324,5.324,0,1,1,10.648,0" transform="translate(-147.395 -5.669)" fill="#769671"/>
        <path id="Trazado_873610" data-name="Trazado 873610" d="M181.658,15.972A6.663,6.663,0,0,1,175,9.317V6.655a6.655,6.655,0,1,1,13.31,0V9.317a6.663,6.663,0,0,1-6.655,6.655m0-13.31a4,4,0,0,0-3.993,3.993V9.317a3.993,3.993,0,0,0,7.986,0V6.655a3.986,3.986,0,0,0-3.993-3.993" transform="translate(-141.727)" fill="#3a4d69"/>
        <path id="Trazado_873611" data-name="Trazado 873611" d="M239.335,361.155h-.052A1.331,1.331,0,0,1,238,359.773l.559-14.442a1.331,1.331,0,0,1,2.66.1l-.559,14.442a1.331,1.331,0,0,1-1.329,1.28" transform="translate(-192.747 -278.631)" fill="#3a4d69"/>
        <path id="Trazado_873612" data-name="Trazado 873612" d="M246.334,163.544A1.331,1.331,0,0,1,245,162.212v-6.881a1.331,1.331,0,1,1,2.662,0v6.881a1.331,1.331,0,0,1-1.331,1.331" transform="translate(-198.416 -124.717)" fill="#3a4d69"/>
        <path id="Trazado_873613" data-name="Trazado 873613" d="M165.308,318.185a1.331,1.331,0,0,1-1.329-1.28l-.945-24.531a1.331,1.331,0,1,1,2.66-.1l.945,24.531a1.331,1.331,0,0,1-1.279,1.381h-.052" transform="translate(-132.032 -235.661)" fill="#3a4d69"/>
        <path id="Trazado_873614" data-name="Trazado 873614" d="M204.334,280.938A1.331,1.331,0,0,1,203,279.607V246.331a1.331,1.331,0,1,1,2.662,0v33.276a1.331,1.331,0,0,1-1.331,1.331" transform="translate(-164.402 -198.414)" fill="#3a4d69"/>
        <path id="Trazado_873615" data-name="Trazado 873615" d="M172.9,102.552a1.326,1.326,0,0,1-.78-.253,6.98,6.98,0,0,0-3.432-1.271c-2.631-.243-5.022-.366-7.1-.366s-4.47.123-7.105.367a7.219,7.219,0,0,0-2.366.639,1.331,1.331,0,0,1-1.13-2.411,9.914,9.914,0,0,1,3.25-.879c2.718-.251,5.191-.378,7.351-.378s4.633.127,7.35.378a9.649,9.649,0,0,1,4.744,1.765,1.331,1.331,0,0,1-.782,2.409" transform="translate(-121.657 -79.366)" fill="#3a4d69"/>
        <path id="Trazado_873616" data-name="Trazado 873616" d="M292.819,130.659v2.662a4.659,4.659,0,0,1-9.317,0v-2.662A4.664,4.664,0,0,1,288.161,126a4.681,4.681,0,0,1,4.659,4.659" transform="translate(-229.595 -102.041)" fill="#769671"/>
        <path id="Trazado_873617" data-name="Trazado 873617" d="M282.493,133.641a6,6,0,0,1-5.99-5.99V124.99a6,6,0,0,1,5.99-5.99,6.012,6.012,0,0,1,5.99,5.99v2.662a6,6,0,0,1-5.99,5.99m0-11.979a3.331,3.331,0,0,0-3.328,3.328v2.662a3.328,3.328,0,0,0,6.655,0V124.99a3.255,3.255,0,0,0-.974-2.339l-.015-.015a3.255,3.255,0,0,0-2.339-.974" transform="translate(-223.927 -96.372)" fill="#3a4d69"/>
        <path id="Trazado_873618" data-name="Trazado 873618" d="M330.334,292.276c-.028,0-.056,0-.084,0A1.331,1.331,0,0,1,329,290.862l1.329-21.255v-9.276a1.331,1.331,0,1,1,2.662,0v9.317c0,.028,0,.055,0,.083l-1.331,21.3a1.331,1.331,0,0,1-1.327,1.248" transform="translate(-266.443 -209.752)" fill="#3a4d69"/>
        <path id="Trazado_873619" data-name="Trazado 873619" d="M268.664,292.276a1.331,1.331,0,0,1-1.327-1.248l-1.331-21.3c0-.028,0-.055,0-.083v-9.317a1.331,1.331,0,1,1,2.662,0v9.276l1.328,21.255a1.331,1.331,0,0,1-1.245,1.411c-.028,0-.056,0-.084,0" transform="translate(-215.423 -209.752)" fill="#3a4d69"/>
        <path id="Trazado_873620" data-name="Trazado 873620" d="M302.334,326.29A1.331,1.331,0,0,1,301,324.959V302.331a1.331,1.331,0,0,1,2.662,0v22.628a1.331,1.331,0,0,1-1.331,1.331" transform="translate(-243.768 -243.765)" fill="#3a4d69"/>
        <path id="Trazado_873621" data-name="Trazado 873621" d="M244.658,233.959A6.663,6.663,0,0,1,238,227.3v-9.011a7.965,7.965,0,0,1,7.081-7.938,56.283,56.283,0,0,1,6.229-.354h.2a1.331,1.331,0,1,1,0,2.662h-.2a53.592,53.592,0,0,0-5.935.338,5.306,5.306,0,0,0-4.713,5.292V227.3a4,4,0,0,0,3.993,3.993,1.331,1.331,0,1,1,0,2.662" transform="translate(-192.747 -170.069)" fill="#3a4d69"/>
        <path id="Trazado_873622" data-name="Trazado 873622" d="M337.334,274.266a1.331,1.331,0,0,1,0-2.662,4,4,0,0,0,3.993-3.993V261.1a1.331,1.331,0,0,1,2.662,0v6.509a6.663,6.663,0,0,1-6.655,6.655" transform="translate(-272.113 -210.376)" fill="#3a4d69"/>
      </g>
    </g>
  </g>
</svg>
