<svg xmlns="http://www.w3.org/2000/svg" xmlns:xlink="http://www.w3.org/1999/xlink" width="89" height="89" viewBox="0 0 89 89">
  <defs>
    <clipPath id="clip-path">
      <rect id="Rectángulo_401343" data-name="Rectángulo 401343" width="65.12" height="56.02" fill="none"/>
    </clipPath>
  </defs>
  <g id="Grupo_1099614" data-name="Grupo 1099614" transform="translate(-765.781 -1777)">
    <rect id="Rectángulo_400898" data-name="Rectángulo 400898" width="89" height="89" rx="44.5" transform="translate(765.781 1777)" fill="#e9bd68"/>
    <g id="Grupo_1099382" data-name="Grupo 1099382">
      <rect id="Rectángulo_400907" data-name="Rectángulo 400907" width="89" height="89" rx="44.5" transform="translate(765.781 1777)" fill="none"/>
    </g>
    <g id="Grupo_1099625" data-name="Grupo 1099625" transform="translate(778.169 1790.595)">
      <g id="Grupo_1099624" data-name="Grupo 1099624" clip-path="url(#clip-path)">
        <path id="Trazado_873832" data-name="Trazado 873832" d="M67.869,9.092C66.258,3.454,60.118,3,55.815,3.775c-5.194.937-7.343,4.651-8.225,7.8a8.132,8.132,0,0,1-5,5.381A7.287,7.287,0,0,0,37.957,22a7.827,7.827,0,0,0,.556,5.557h9.278c-.793-2.42-.15-3.9.691-4.773a3.782,3.782,0,0,1,2.785-1.112c1.637.022,3.776-.195,5.105-1.985A4.511,4.511,0,0,1,60.2,17.941c7.1.286,8.816-4.825,7.666-8.849" transform="translate(-28.559 -2.64)" fill="#769671"/>
        <path id="Trazado_873833" data-name="Trazado 873833" d="M45.136,25.769H35.858a.847.847,0,0,1-.736-.428,8.654,8.654,0,0,1-.636-6.2,8.164,8.164,0,0,1,5.149-5.61,7.239,7.239,0,0,0,4.484-4.818c.915-3.268,3.2-7.38,8.89-8.406C58.216-.637,64.371.424,66.027,6.22a8,8,0,0,1-1.138,7.14c-1.073,1.364-3.225,2.953-7.377,2.788A3.66,3.66,0,0,0,54.4,17.557c-1.583,2.133-4.07,2.349-5.8,2.327a2.967,2.967,0,0,0-2.164.853c-.882.916-1.049,2.235-.5,3.921a.847.847,0,0,1-.805,1.111M36.4,24.074h7.645a4.879,4.879,0,0,1,1.174-4.513,4.611,4.611,0,0,1,3.407-1.372c1.476.017,3.306-.15,4.414-1.643a5.353,5.353,0,0,1,4.544-2.092c2.725.111,4.789-.631,5.977-2.142A6.313,6.313,0,0,0,64.4,6.685C62.706.759,55.484,1.577,53.31,1.969c-3.874.7-6.418,3.12-7.56,7.2a9.035,9.035,0,0,1-5.514,5.945,6.446,6.446,0,0,0-4.119,4.484,7.066,7.066,0,0,0,.281,4.481" transform="translate(-25.904 0)" fill="#313332"/>
        <path id="Trazado_873834" data-name="Trazado 873834" d="M43.37,131.406a.847.847,0,0,1-.844-.79l-2-29.462h-7.7l-2,29.462a.847.847,0,0,1-1.69-.115l2.054-30.252a.847.847,0,0,1,.845-.79h9.278a.847.847,0,0,1,.845.79L44.217,130.5a.848.848,0,0,1-.788.9l-.058,0" transform="translate(-22.085 -75.386)" fill="#313332"/>
        <path id="Trazado_873835" data-name="Trazado 873835" d="M37.275,165.9h-3.2a.847.847,0,1,1,0-1.694h3.2a.847.847,0,1,1,0,1.694" transform="translate(-25.184 -124.456)" fill="#313332"/>
        <path id="Trazado_873836" data-name="Trazado 873836" d="M68.33,135.381h-3.2a.847.847,0,0,1,0-1.694h3.2a.847.847,0,1,1,0,1.694" transform="translate(-48.723 -101.328)" fill="#313332"/>
        <path id="Trazado_873837" data-name="Trazado 873837" d="M71.814,190.492h-3.2a.847.847,0,0,1,0-1.694h3.2a.847.847,0,1,1,0,1.694" transform="translate(-51.363 -143.099)" fill="#313332"/>
        <path id="Trazado_873838" data-name="Trazado 873838" d="M123.714,29.5c-3.434,1.746-2.6,6.913-5.046,9.567-4.274,4.633-12.62,1.213-15.31,7.6a6.527,6.527,0,0,0,.272,5.489h9.278c-.675-5.489,5.179-6.114,6.336-6.255,4.876-.594,7.545-1.835,11.759-6.81,4.034-4.762-.574-13.01-7.29-9.595" transform="translate(-77.971 -21.748)" fill="#769671"/>
        <path id="Trazado_873839" data-name="Trazado 873839" d="M110.251,50.342h-9.278a.847.847,0,0,1-.729-.416,7.356,7.356,0,0,1-.323-6.248c1.665-3.957,5.2-4.551,8.627-5.126,2.634-.442,5.122-.86,6.842-2.724a9.619,9.619,0,0,0,1.751-4.026c.616-2.242,1.252-4.561,3.534-5.721,3.785-1.925,6.834-.463,8.424,1.548a7.414,7.414,0,0,1-.1,9.35c-4.53,5.347-7.456,6.512-12.3,7.1l-.054.007c-2.313.279-3.933.992-4.814,2.118a4.112,4.112,0,0,0-.73,3.186.847.847,0,0,1-.841.951m-8.746-1.694h7.845a5.492,5.492,0,0,1,1.137-3.486c1.169-1.493,3.169-2.421,5.945-2.756l.053-.006c4.478-.546,7.026-1.572,11.215-6.516a5.713,5.713,0,0,0,.069-7.2c-1.521-1.923-3.886-2.33-6.327-1.088-1.614.821-2.126,2.685-2.668,4.659a10.965,10.965,0,0,1-2.139,4.726c-2.112,2.289-5.007,2.776-7.806,3.246-3.243.545-6.043,1.015-7.346,4.112a5.63,5.63,0,0,0,.023,4.313m19.552-21.812h0Z" transform="translate(-75.315 -19.085)" fill="#313332"/>
        <path id="Trazado_873840" data-name="Trazado 873840" d="M94.867,148.594l-.071,0a.847.847,0,0,1-.774-.914l2.054-24.763a.847.847,0,0,1,.844-.777H106.2a.847.847,0,0,1,.845.777l2.054,24.763a.847.847,0,0,1-1.689.14l-1.99-23.986H97.7L95.71,147.817a.847.847,0,0,1-.843.777" transform="translate(-71.262 -92.574)" fill="#313332"/>
        <path id="Trazado_873841" data-name="Trazado 873841" d="M102.157,188.573h-3.2a.847.847,0,0,1,0-1.694h3.2a.847.847,0,1,1,0,1.694" transform="translate(-74.362 -141.645)" fill="#313332"/>
        <path id="Trazado_873842" data-name="Trazado 873842" d="M133.212,158.058h-3.2a.847.847,0,1,1,0-1.694h3.2a.847.847,0,1,1,0,1.694" transform="translate(-97.9 -118.516)" fill="#313332"/>
        <path id="Trazado_873843" data-name="Trazado 873843" d="M136.7,213.169h-3.2a.847.847,0,1,1,0-1.694h3.2a.847.847,0,0,1,0,1.694" transform="translate(-100.541 -160.288)" fill="#313332"/>
        <path id="Trazado_873844" data-name="Trazado 873844" d="M64.272,226.136H.847a.847.847,0,0,1,0-1.694H64.272a.847.847,0,1,1,0,1.694" transform="translate(0 -170.116)" fill="#313332"/>
        <rect id="Rectángulo_401342" data-name="Rectángulo 401342" width="18.181" height="24.763" transform="translate(42.489 30.41)" fill="#769671"/>
        <path id="Trazado_873845" data-name="Trazado 873845" d="M191.068,148.594H172.887a.847.847,0,0,1-.847-.847V122.984a.847.847,0,0,1,.847-.847h18.181a.847.847,0,0,1,.847.847v24.763a.847.847,0,0,1-.847.847M173.734,146.9h16.486V123.831H173.734Z" transform="translate(-130.398 -92.574)" fill="#313332"/>
        <line id="Línea_564" data-name="Línea 564" x2="20.691" transform="translate(41.234 35.512)" fill="#31d330"/>
        <path id="Trazado_873846" data-name="Trazado 873846" d="M188.393,144.909H167.7a.847.847,0,1,1,0-1.694h20.691a.847.847,0,0,1,0,1.694" transform="translate(-126.468 -108.55)" fill="#313332"/>
        <line id="Línea_565" data-name="Línea 565" x2="20.691" transform="translate(41.234 30.41)" fill="#31d330"/>
        <path id="Trazado_873847" data-name="Trazado 873847" d="M188.393,123.831H167.7a.847.847,0,1,1,0-1.694h20.691a.847.847,0,0,1,0,1.694" transform="translate(-126.468 -92.574)" fill="#313332"/>
        <line id="Línea_566" data-name="Línea 566" x2="20.691" transform="translate(41.234 50.071)" fill="#31d330"/>
        <path id="Trazado_873848" data-name="Trazado 873848" d="M188.393,205.058H167.7a.847.847,0,1,1,0-1.694h20.691a.847.847,0,0,1,0,1.694" transform="translate(-126.468 -154.14)" fill="#313332"/>
        <path id="Trazado_873849" data-name="Trazado 873849" d="M199.622,167.452a4.381,4.381,0,1,1,3.794-2.191,4.337,4.337,0,0,1-3.794,2.191m0-7.068a2.687,2.687,0,1,0,2.327,1.343,2.66,2.66,0,0,0-2.327-1.343m3.06,4.453h0Z" transform="translate(-147.978 -120.279)" fill="#313332"/>
      </g>
    </g>
  </g>
</svg>
