<svg xmlns="http://www.w3.org/2000/svg" xmlns:xlink="http://www.w3.org/1999/xlink" width="105" height="105" viewBox="0 0 105 105">
  <defs>
    <clipPath id="clip-path">
      <rect id="Rectángulo_401348" data-name="Rectángulo 401348" width="53.625" height="56.889" fill="#a28347"/>
    </clipPath>
  </defs>
  <g id="Grupo_1099635" data-name="Grupo 1099635" transform="translate(-433.051 -2148)">
    <circle id="Elipse_11504" data-name="Elipse 11504" cx="52.5" cy="52.5" r="52.5" transform="translate(433.051 2148)" fill="#fcf8ee"/>
    <g id="Grupo_1099627" data-name="Grupo 1099627" transform="translate(455.238 2167.518)">
      <g id="Grupo_1099626" data-name="Grupo 1099626" clip-path="url(#clip-path)">
        <path id="Trazado_873850" data-name="Trazado 873850" d="M53.053,60.969l-1.786-1.015a1.128,1.128,0,1,0-1.114,1.961l1.215.692V90.814L40.783,84.833V72.273a1.128,1.128,0,0,0-2.256,0v12.56l-10.586,5.98V62.605l1.215-.69a1.128,1.128,0,1,0-1.115-1.961l-1.231.7L14.525,53.711a1.128,1.128,0,0,0-1.11,0L.573,60.968A1.127,1.127,0,0,0,0,61.95v30.8a1.128,1.128,0,0,0,1.683.982L13.97,86.788,26.257,93.73a1.128,1.128,0,0,0,1.11,0l12.287-6.942L51.941,93.73a1.13,1.13,0,0,0,.556.145,1.143,1.143,0,0,0,.569-.152,1.131,1.131,0,0,0,.56-.975V61.95a1.127,1.127,0,0,0-.571-.98M15.1,56.63l10.581,5.978V90.814L15.1,84.835ZM2.257,62.609l10.589-5.984V84.831L2.257,90.814Z" transform="translate(0 -36.987)" fill="#a28347"/>
        <path id="Trazado_873851" data-name="Trazado 873851" d="M102.086,31.393a1.129,1.129,0,0,0,1.559,0c.43-.411,10.538-10.187,10.538-20.074A11.407,11.407,0,0,0,102.86,0c-.033,0-.067,0-.1,0A11.352,11.352,0,0,0,91.548,11.318c0,9.888,10.107,19.663,10.538,20.074m.695-29.136h.08a9.147,9.147,0,0,1,9.066,9.062c0,7.414-6.734,15.185-9.061,17.647-2.328-2.46-9.06-10.222-9.06-17.647a9.089,9.089,0,0,1,8.976-9.062" transform="translate(-63.215)" fill="#a28347"/>
        <path id="Trazado_873852" data-name="Trazado 873852" d="M120.861,23.424a5.893,5.893,0,1,0-5.894,5.894,5.9,5.9,0,0,0,5.894-5.894m-9.53,0a3.637,3.637,0,1,1,3.637,3.639,3.641,3.641,0,0,1-3.637-3.639" transform="translate(-75.317 -12.106)" fill="#a28347"/>
      </g>
    </g>
  </g>
</svg>
