<svg xmlns="http://www.w3.org/2000/svg" xmlns:xlink="http://www.w3.org/1999/xlink" width="105" height="105" viewBox="0 0 105 105">
  <defs>
    <clipPath id="clip-path">
      <rect id="Rectángulo_401349" data-name="Rectángulo 401349" width="68.603" height="67.4" fill="#a28347"/>
    </clipPath>
  </defs>
  <g id="Grupo_1099636" data-name="Grupo 1099636" transform="translate(-641.051 -2148)">
    <circle id="Elipse_11505" data-name="Elipse 11505" cx="52.5" cy="52.5" r="52.5" transform="translate(641.051 2148)" fill="#fcf8ee"/>
    <g id="Grupo_1099629" data-name="Grupo 1099629" transform="translate(660.116 2167.109)">
      <g id="Grupo_1099628" data-name="Grupo 1099628" clip-path="url(#clip-path)">
        <path id="Trazado_873853" data-name="Trazado 873853" d="M36.5,22.262c-1.766,2.05-1.021,5.928.825,8.023a1.323,1.323,0,1,0,1.985-1.749c-1.184-1.346-1.467-3.779-.8-4.547a4.7,4.7,0,0,1,1.434-1.154,2.829,2.829,0,0,0,1.64-3.105c-.093-1.84-1.469-2.775-2.474-3.458a4.015,4.015,0,0,1-.968-.781,2.741,2.741,0,0,1,.564-1.972,17.326,17.326,0,0,0,2.22-6.424,24.228,24.228,0,0,1,9.815,14.741,1.323,1.323,0,1,0,2.588-.551A26.97,26.97,0,1,0,26.965,53.97a26.645,26.645,0,0,0,10.3-2.043,1.323,1.323,0,1,0-1.017-2.442,24.025,24.025,0,0,1-9.28,1.841c-.216,0-.425-.027-.639-.032.009-3.077.581-6.4,2.193-7.656,2.891-2.254,4.707-5.079,4.859-7.555A5.056,5.056,0,0,0,31.858,32.1a7.5,7.5,0,0,0-3.665-2.207,2,2,0,0,1-1.319-.821c-1.594-1.979-6.824-1.162-9.782-.508a3.16,3.16,0,0,1-.419-2.675c.147-.294.418-.837,2.091-.837a5.15,5.15,0,0,0,3.813-1.574A5.5,5.5,0,0,0,24.1,19.483a13.194,13.194,0,0,0-.175-1.6,7.154,7.154,0,0,1-.146-1.656c1.048-1.738,1.529-4.907.576-6.855A2.836,2.836,0,0,0,22.119,7.7c-.363-.043-.8-.075-1.29-.112-1.9-.142-4.655-.355-6.151-1.574a24.051,24.051,0,0,1,23.812-.428c-.616,4.068-1.454,5.535-2.073,6.6a5.279,5.279,0,0,0-.915,3.5,3.862,3.862,0,0,0,2.121,2.773c.877.6,1.292.928,1.317,1.4.016.315-.005.466.008.484-.066.048-.207.127-.315.189a7.336,7.336,0,0,0-2.13,1.725M2.646,26.984a24.223,24.223,0,0,1,.948-6.659c2.576,5.993,6.938,11.522,12.589,11.121A8.62,8.62,0,0,1,16,32.666c-.324,1.653-.814,4.153,1.422,6.313.457.437.843.792,1.171,1.094,1.293,1.191,1.293,1.191,1.177,3.017l-.055.9a19.365,19.365,0,0,0,1.154,6.532A24.359,24.359,0,0,1,2.646,26.984m22.165,3.742a4.515,4.515,0,0,0,2.661,1.707,4.929,4.929,0,0,1,2.521,1.539,2.409,2.409,0,0,1,.743,1.948c-.1,1.677-1.612,3.889-3.844,5.631-2.5,1.946-3.122,5.935-3.2,9.051a18.816,18.816,0,0,1-1.337-6.472l.053-.874c.181-2.855.03-3.238-2.025-5.131-.316-.291-.692-.638-1.129-1.055-1.116-1.077-.994-2.192-.659-3.9a7.108,7.108,0,0,0,.182-2.245c2.871-.526,5.509-.642,6.032-.2m-4.179-20.5c.445.033.845.062,1.174.1.062.006.127.116.171.206a5.782,5.782,0,0,1-.474,4.343,5.239,5.239,0,0,0-.2,3.4,10.3,10.3,0,0,1,.147,1.274,2.818,2.818,0,0,1-.78,2.08,2.446,2.446,0,0,1-1.756.769c-.846-.011-3.436-.058-4.609,2.293a4.889,4.889,0,0,0-.076,3.9c-3.982-1.079-7.363-6.363-9.228-12a24.441,24.441,0,0,1,7.428-9.081c2.049,2.232,5.719,2.53,8.2,2.713" transform="translate(0 0.001)" fill="#a28347"/>
        <path id="Trazado_873854" data-name="Trazado 873854" d="M132.477,75.048a14.31,14.31,0,0,0-10.557-4.332,14.889,14.889,0,0,0-14.709,14.846c0,13.05,13.365,25.977,13.934,26.519a1.324,1.324,0,0,0,1.828,0c.569-.543,13.934-13.47,13.934-26.519a14.717,14.717,0,0,0-4.429-10.514m-10.419,34.191c-2.979-3.126-12.2-13.623-12.2-23.677a12.236,12.236,0,0,1,12.087-12.2h.112a12.316,12.316,0,0,1,12.2,12.2c0,10.04-9.224,20.547-12.2,23.677" transform="translate(-68.303 -45.047)" fill="#a28347"/>
        <path id="Trazado_873855" data-name="Trazado 873855" d="M134.7,90.571a7.647,7.647,0,1,0,7.648,7.645,7.656,7.656,0,0,0-7.648-7.645m0,12.649a5,5,0,1,1,5-5,5.009,5.009,0,0,1-5,5" transform="translate(-80.942 -57.702)" fill="#a28347"/>
      </g>
    </g>
  </g>
</svg>
