<svg xmlns="http://www.w3.org/2000/svg" xmlns:xlink="http://www.w3.org/1999/xlink" width="85" height="85" viewBox="0 0 85 85">
  <defs>
    <clipPath id="clip-path">
      <rect id="Rectángulo_401358" data-name="Rectángulo 401358" width="54.587" height="49.155" transform="translate(0 0)" fill="none"/>
    </clipPath>
  </defs>
  <g id="Grupo_1099579" data-name="Grupo 1099579" transform="translate(-704.73 -2846)">
    <g id="Grupo_1099539" data-name="Grupo 1099539">
      <path id="Trazado_873499" data-name="Trazado 873499" d="M42.5,0A42.5,42.5,0,1,1,0,42.5,42.5,42.5,0,0,1,42.5,0Z" transform="translate(704.73 2846)" fill="#769671"/>
      <g id="Grupo_1099663" data-name="Grupo 1099663" transform="translate(719.937 2863.92)">
        <g id="Grupo_1099662" data-name="Grupo 1099662" transform="translate(0 0.003)" clip-path="url(#clip-path)">
          <path id="Trazado_873866" data-name="Trazado 873866" d="M1092.877,767.906v6.26a7.944,7.944,0,0,0,7.944,7.944h12.625l6.341,7.6v-21.8a7.944,7.944,0,0,0-7.944-7.944h-11.022a7.944,7.944,0,0,0-7.944,7.944" transform="translate(-1065.734 -741.087)" fill="#c8d5c6"/>
          <path id="Trazado_873867" data-name="Trazado 873867" d="M62.9,33.762v9.619A12.207,12.207,0,0,1,50.691,55.588h-19.4L21.547,67.263v-33.5A12.207,12.207,0,0,1,33.754,21.555H50.691A12.207,12.207,0,0,1,62.9,33.762" transform="translate(-21.012 -21.02)" fill="#e9bd68"/>
          <path id="Trazado_873868" data-name="Trazado 873868" d="M524.711,438.072h-12.2a2.437,2.437,0,0,1-2.086-3.7l6.1-10.09a2.437,2.437,0,0,1,4.171,0l6.1,10.09a2.437,2.437,0,0,1-2.086,3.7" transform="translate(-497.399 -412.6)" fill="#f8f7f7"/>
          <path id="Trazado_873869" data-name="Trazado 873869" d="M.946,46.589l9.583-11.483H26.866a8.482,8.482,0,0,0,8.221,6.454H47.461l6.181,7.406a.535.535,0,0,0,.946-.343v-21.8a8.489,8.489,0,0,0-8.479-8.479H42.421v-5.6A12.756,12.756,0,0,0,29.679,0H12.742A12.756,12.756,0,0,0,0,12.745v33.5a.535.535,0,0,0,.946.343M42.421,19.413h3.688a7.417,7.417,0,0,1,7.409,7.409V47.146l-5.4-6.464a.535.535,0,0,0-.411-.192H35.087a7.412,7.412,0,0,1-7.117-5.384h1.709A12.756,12.756,0,0,0,42.421,22.364ZM1.07,12.745A11.685,11.685,0,0,1,12.742,1.073H29.679A11.685,11.685,0,0,1,41.35,12.745v9.619A11.685,11.685,0,0,1,29.679,34.036h-19.4a.535.535,0,0,0-.411.192L1.07,44.77Z" transform="translate(0 -0.003)"/>
          <path id="Trazado_873870" data-name="Trazado 873870" d="M491.43,417.589h12.2a2.973,2.973,0,0,0,2.544-4.511l-6.1-10.09a2.972,2.972,0,0,0-5.087,0l-6.1,10.09a2.972,2.972,0,0,0,2.543,4.511m-1.627-3.957,6.1-10.09a1.9,1.9,0,0,1,3.255,0l6.1,10.09a1.9,1.9,0,0,1-1.628,2.886h-12.2a1.9,1.9,0,0,1-1.627-2.886" transform="translate(-476.321 -391.582)"/>
          <path id="Trazado_873871" data-name="Trazado 873871" d="M833,835.549a.535.535,0,0,0,.535-.535v-.637a.535.535,0,0,0-1.07,0v.637a.535.535,0,0,0,.535.535" transform="translate(-811.785 -813.132)"/>
          <path id="Trazado_873872" data-name="Trazado 873872" d="M833,577.083a.535.535,0,0,0,.535-.535v-5.02a.535.535,0,0,0-1.07,0v5.02a.535.535,0,0,0,.535.535" transform="translate(-811.785 -556.812)"/>
        </g>
      </g>
    </g>
  </g>
</svg>
