<svg xmlns="http://www.w3.org/2000/svg" xmlns:xlink="http://www.w3.org/1999/xlink" width="105" height="105" viewBox="0 0 105 105">
  <defs>
    <clipPath id="clip-path">
      <rect id="Rectángulo_401351" data-name="Rectángulo 401351" width="74" height="61.668" fill="#a28347"/>
    </clipPath>
  </defs>
  <g id="Grupo_1099637" data-name="Grupo 1099637" transform="translate(-858.051 -2148)">
    <circle id="Elipse_11506" data-name="Elipse 11506" cx="52.5" cy="52.5" r="52.5" transform="translate(858.051 2148)" fill="#fcf8ee"/>
    <g id="Grupo_1099633" data-name="Grupo 1099633" transform="translate(870.051 2167.109)" clip-path="url(#clip-path)">
      <path id="Trazado_873860" data-name="Trazado 873860" d="M91.91,112.132H78.223a6.523,6.523,0,1,0,0,13.046h6.534a4.043,4.043,0,0,1,4.061,4.062,4.056,4.056,0,0,1-4.061,4.04H60.785a1.236,1.236,0,1,0,0,2.472H84.757a6.523,6.523,0,1,0,0-13.046H78.223a4.055,4.055,0,0,1-2.886-6.908,4.113,4.113,0,0,1,2.886-1.194H91.91a1.236,1.236,0,1,0,0-2.472" transform="translate(-39.344 -74.087)" fill="#a28347"/>
      <path id="Trazado_873861" data-name="Trazado 873861" d="M157.739,4.212A13.854,13.854,0,0,0,147.5.009a14.44,14.44,0,0,0-14.263,14.4c0,12.675,12.99,25.24,13.543,25.767a1.237,1.237,0,0,0,1.709,0c.553-.527,13.543-13.092,13.543-25.767a14.275,14.275,0,0,0-4.294-10.193m-10.1,33.3c-2.863-3-11.923-13.281-11.923-23.11A11.961,11.961,0,0,1,147.524,2.481h.106a12.036,12.036,0,0,1,11.929,11.924c0,9.829-9.061,20.109-11.923,23.11" transform="translate(-88.032 0)" fill="#a28347"/>
      <path id="Trazado_873862" data-name="Trazado 873862" d="M161.278,20.672a7.391,7.391,0,1,0,7.391,7.391,7.4,7.4,0,0,0-7.391-7.391m0,12.311a4.92,4.92,0,1,1,4.918-4.92,4.925,4.925,0,0,1-4.918,4.92" transform="translate(-101.675 -13.658)" fill="#a28347"/>
      <path id="Trazado_873863" data-name="Trazado 873863" d="M24.5,66.572a14.289,14.289,0,0,0-10.109-4.205c-.043,0-.086,0-.129,0A14.44,14.44,0,0,0,0,76.766c0,12.675,12.99,25.24,13.543,25.767a1.237,1.237,0,0,0,1.709,0c.553-.527,13.543-13.092,13.543-25.767A14.275,14.275,0,0,0,24.5,66.572m-10.1,33.3c-2.862-3-11.923-13.281-11.923-23.11A11.961,11.961,0,0,1,14.286,64.841h.106A12.036,12.036,0,0,1,26.321,76.766c0,9.829-9.061,20.109-11.923,23.11" transform="translate(0 -41.207)" fill="#a28347"/>
      <path id="Trazado_873864" data-name="Trazado 873864" d="M28.041,83.02a7.391,7.391,0,1,0,7.391,7.391,7.4,7.4,0,0,0-7.391-7.391m0,12.311a4.92,4.92,0,1,1,4.918-4.92,4.925,4.925,0,0,1-4.918,4.92" transform="translate(-13.644 -54.853)" fill="#a28347"/>
    </g>
  </g>
</svg>
