<svg id="Grupo_1099680" data-name="Grupo 1099680" xmlns="http://www.w3.org/2000/svg" xmlns:xlink="http://www.w3.org/1999/xlink" width="287.204" height="234.015" viewBox="0 0 287.204 234.015">
  <defs>
    <clipPath id="clip-path">
      <rect id="Rectángulo_401375" data-name="Rectángulo 401375" width="287.204" height="234.015" fill="none"/>
    </clipPath>
    <clipPath id="clip-path-2">
      <rect id="Rectángulo_401374" data-name="Rectángulo 401374" width="287.205" height="234.014" fill="none"/>
    </clipPath>
    <clipPath id="clip-path-3">
      <rect id="Rectángulo_401360" data-name="Rectángulo 401360" width="255.613" height="53.382" fill="none"/>
    </clipPath>
    <clipPath id="clip-path-4">
      <rect id="Rectángulo_401361" data-name="Rectángulo 401361" width="6.564" height="191.483" fill="none"/>
    </clipPath>
    <clipPath id="clip-path-5">
      <rect id="Rectángulo_401362" data-name="Rectángulo 401362" width="6.234" height="196.834" fill="none"/>
    </clipPath>
    <clipPath id="clip-path-6">
      <rect id="Rectángulo_401371" data-name="Rectángulo 401371" width="23.553" height="13.503" fill="#12263f"/>
    </clipPath>
  </defs>
  <g id="Grupo_1099679" data-name="Grupo 1099679" clip-path="url(#clip-path)">
    <path id="Trazado_873873" data-name="Trazado 873873" d="M6.193,114.586,0,308.625,96.715,293.66l40.257,9.876,15.746,3.863,41.476,10.173L281,291.022,287.2,96.74l-25.173,6.068-20.253,4.882-42.718,10.3-25.612-5.857h0L102.277,95.85Z" transform="translate(0 -83.558)" fill="#ffead5"/>
    <g id="Grupo_1099678" data-name="Grupo 1099678" transform="translate(0 0.001)">
      <g id="Grupo_1099677" data-name="Grupo 1099677" clip-path="url(#clip-path-2)">
        <path id="Trazado_873874" data-name="Trazado 873874" d="M299.518,536.679l-2.709,84.881c-13.708,5.467-25.074,6.031-34.352,4.475-26.3-4.408-35.828-25.842-57.679-22.392-28.393,4.484-28.305,43.2-55.224,49.865-33.964,8.414-54.862-48.063-95.806-44.911-14.338,1.1-26.957,9.2-37.585,19.4l1.019-31.924c6.6-10.639,9.5-12.714,12.361-14.312,18.25-10.194,40.6-4.153,61.355,1.457,33.509,9.059,38.234,21.686,53.058,17.984,23.853-5.955,21.166-41.025,46.195-49.652,21.887-7.544,36.512,14.939,60.415,15.211,13.173.15,29.608-6.438,48.953-30.08" transform="translate(-14.089 -467.857)" fill="#75a4b4"/>
        <g id="Grupo_1099667" data-name="Grupo 1099667" transform="translate(15.997 95.438)" opacity="0.2" style="mix-blend-mode: overlay;isolation: isolate">
          <g id="Grupo_1099666" data-name="Grupo 1099666">
            <g id="Grupo_1099665" data-name="Grupo 1099665" clip-path="url(#clip-path-3)">
              <path id="Trazado_873875" data-name="Trazado 873875" d="M127.547,914.319c3.439-5.206,10.474-5,15.977-4.8a1.5,1.5,0,0,0,.1-3c-6.7-.246-14.514-.007-18.619,6.206-1.069,1.618,1.48,3.212,2.546,1.6" transform="translate(-124.744 -885.651)" fill="#fff"/>
              <path id="Trazado_873876" data-name="Trazado 873876" d="M421.326,1039.507a20.885,20.885,0,0,1,12.193,7.562c1.2,1.521,3.384-.546,2.192-2.056a23.446,23.446,0,0,0-13.495-8.377c-1.88-.4-2.784,2.472-.891,2.871" transform="translate(-382.381 -999.106)" fill="#fff"/>
              <path id="Trazado_873877" data-name="Trazado 873877" d="M858.426,1117.191a19.281,19.281,0,0,0,18.164,1.531c1.777-.761.335-3.4-1.434-2.643a16.167,16.167,0,0,1-15.131-1.434c-1.62-1.067-3.214,1.482-1.6,2.546" transform="translate(-763.753 -1066.921)" fill="#fff"/>
              <path id="Trazado_873878" data-name="Trazado 873878" d="M1374.4,752.031a12.466,12.466,0,0,1,8.743-4.788c1.905-.158,2.023-3.164.1-3a15.77,15.77,0,0,0-11.385,6.193c-1.18,1.537,1.377,3.122,2.546,1.6" transform="translate(-1211.663 -744.232)" fill="#fff"/>
              <path id="Trazado_873879" data-name="Trazado 873879" d="M1802.505,1075.029a19.476,19.476,0,0,0,14.317,5.145c1.914-.12,2.029-3.125.1-3a16.518,16.518,0,0,1-12.22-4.2c-1.422-1.3-3.624.75-2.192,2.057" transform="translate(-1586.947 -1030.454)" fill="#fff"/>
              <path id="Trazado_873880" data-name="Trazado 873880" d="M1906.368,1059.886a26.522,26.522,0,0,0,11.386-.957c1.837-.569,1.149-3.5-.706-2.922a24.4,24.4,0,0,1-10.585.875c-1.915-.258-2,2.749-.1,3" transform="translate(-1676.69 -1015.961)" fill="#fff"/>
              <path id="Trazado_873881" data-name="Trazado 873881" d="M2016.645,770.11a29.017,29.017,0,0,0,10.737-4.694c1.558-1.1.146-3.763-1.433-2.643a26.894,26.894,0,0,1-10.01,4.414c-1.891.4-1.189,3.327.706,2.923" transform="translate(-1772.444 -760.16)" fill="#fff"/>
            </g>
          </g>
        </g>
        <path id="Trazado_873882" data-name="Trazado 873882" d="M1318.685,1187.312l-1.1,34.593-86.809,26.551-41.476-10.173a78.924,78.924,0,0,1,1.827-23.547c4.253-18.445,15.484-29.379,21.164-34.912,7.028-6.843,18.794-18.3,30.829-15.807,6.483,1.342,6.707,5.419,14.686,10.995,9.286,6.487,15.275,5.36,48.541,10.321,4.914.733,8.963,1.381,12.342,1.98" transform="translate(-1036.578 -1014.442)" fill="#a2d998"/>
        <path id="Trazado_873883" data-name="Trazado 873883" d="M136.972,1302.21l-40.257-9.876L0,1307.3l1.824-57.148c9.49-5.221,19.433-6.986,22.924-7.606a62.2,62.2,0,0,1,30.27,1.718c14.871,4.823,14.91,11.673,32.2,19.824,17.185,8.1,21.32,3.3,31.492,10.529a48.807,48.807,0,0,1,18.264,27.594" transform="translate(0 -1082.233)" fill="#a2d998"/>
        <path id="Trazado_873884" data-name="Trazado 873884" d="M200.085,112.129a77.477,77.477,0,0,1-17.854,21.136c-15.642,12.591-30.15,11.32-33.807,22.73-4.259,13.287,12.548,23.964,7.966,33.085-5.864,11.672-39.473,6.316-49.772,4.677-38.921-6.2-50.668-20.777-67.481-13.682a26.689,26.689,0,0,0-8.58,5.786l2.275-71.273L128.915,95.85Z" transform="translate(-26.638 -83.559)" fill="#a2d998"/>
        <path id="Trazado_873885" data-name="Trazado 873885" d="M1060.32,348.29c-7.915-2.679-13.621-12.338-11.49-16.907,3.056-6.554,20.144,1.842,31.074-7.78,8.95-7.878,4.39-19.577,12.268-23.166,7.319-3.335,12.7,6.1,26.645,5.362,11.658-.621,14.955-7.6,20.471-5.361,10.079,4.085,13.417,33.189,2.711,40.687-9.7,6.792-21.383-10.83-43.88-7.165-19.152,3.12-25.88,18.366-37.8,14.332" transform="translate(-913.938 -261.286)" fill="#a2d998"/>
        <path id="Trazado_873886" data-name="Trazado 873886" d="M1930.82,102.793l-1.279,40.065a163.891,163.891,0,0,0-16.106,13.889c-12.42,12.059-17.295,19.693-21.63,18.106-4-1.464-3.834-9.428-4.6-28.717-.633-15.982-1.354-25.879-1.813-32.393l20.253-4.882Z" transform="translate(-1643.615 -89.612)" fill="#a2d998"/>
        <g id="Grupo_1099670" data-name="Grupo 1099670" transform="translate(96.027 17.367)" opacity="0.7" style="mix-blend-mode: overlay;isolation: isolate">
          <g id="Grupo_1099669" data-name="Grupo 1099669">
            <g id="Grupo_1099668" data-name="Grupo 1099668" clip-path="url(#clip-path-4)">
              <path id="Trazado_873887" data-name="Trazado 873887" d="M749.55,326.916a.751.751,0,0,1-.727-.771l5.061-189.98a.752.752,0,0,1,.771-.731h0a.752.752,0,0,1,.727.771l-5.062,189.98a.752.752,0,0,1-.771.731h0" transform="translate(-748.823 -135.433)" fill="#0a0a09"/>
            </g>
          </g>
        </g>
        <g id="Grupo_1099673" data-name="Grupo 1099673" transform="translate(193.498 36.179)" opacity="0.7" style="mix-blend-mode: overlay;isolation: isolate">
          <g id="Grupo_1099672" data-name="Grupo 1099672">
            <g id="Grupo_1099671" data-name="Grupo 1099671" clip-path="url(#clip-path-5)">
              <path id="Trazado_873888" data-name="Trazado 873888" d="M1509.629,478.966a.751.751,0,0,1-.727-.769l4.731-195.331a.752.752,0,0,1,.769-.733h.006a.752.752,0,0,1,.727.769L1510.4,478.233a.751.751,0,0,1-.769.733h-.006" transform="translate(-1508.901 -282.132)" fill="#0a0a09"/>
            </g>
          </g>
        </g>
        <rect id="Rectángulo_401363" data-name="Rectángulo 401363" width="3.819" height="3.182" transform="translate(35.219 72.179) rotate(-88.171)" fill="#e9bd68"/>
        <path id="Trazado_873889" data-name="Trazado 873889" d="M233.825,276.654l-9.182-.293,4.845-7.805,4.845-7.806,4.337,8.1,4.337,8.1Z" transform="translate(-195.835 -227.312)" fill="#7da376"/>
        <path id="Trazado_873890" data-name="Trazado 873890" d="M218.949,340.934l-10.97-.35,5.788-9.325,5.788-9.325,5.182,9.675,5.182,9.675Z" transform="translate(-181.308 -280.65)" fill="#7da376"/>
        <path id="Trazado_873891" data-name="Trazado 873891" d="M216.553,416l-10.97-.35,5.788-9.325L217.159,397l5.182,9.675,5.182,9.675Z" transform="translate(-179.219 -346.094)" fill="#7da376"/>
        <rect id="Rectángulo_401364" data-name="Rectángulo 401364" width="3.819" height="3.182" transform="translate(77.488 90.57) rotate(-88.171)" fill="#e9bd68"/>
        <path id="Trazado_873892" data-name="Trazado 873892" d="M563.436,420.068l-9.182-.293,4.845-7.805,4.845-7.806,4.337,8.1,4.337,8.1Z" transform="translate(-483.178 -352.336)" fill="#7da376"/>
        <path id="Trazado_873893" data-name="Trazado 873893" d="M548.56,484.348,537.59,484l5.788-9.325,5.788-9.325,5.182,9.675,5.182,9.675Z" transform="translate(-468.651 -405.673)" fill="#7da376"/>
        <path id="Trazado_873894" data-name="Trazado 873894" d="M546.164,559.419l-10.97-.35,5.788-9.325,5.788-9.325,5.182,9.675,5.182,9.675Z" transform="translate(-466.562 -471.117)" fill="#7da376"/>
        <rect id="Rectángulo_401365" data-name="Rectángulo 401365" width="3.819" height="3.182" transform="translate(117.277 61.014) rotate(-88.171)" fill="#e9bd68"/>
        <path id="Trazado_873895" data-name="Trazado 873895" d="M873.714,189.591l-9.182-.293,4.845-7.805,4.845-7.806,4.337,8.1,4.337,8.1Z" transform="translate(-753.666 -151.414)" fill="#7da376"/>
        <path id="Trazado_873896" data-name="Trazado 873896" d="M858.837,253.87l-10.97-.35,5.788-9.325,5.788-9.325,5.182,9.675,5.182,9.675Z" transform="translate(-739.138 -204.751)" fill="#7da376"/>
        <path id="Trazado_873897" data-name="Trazado 873897" d="M856.44,328.942l-10.97-.35,5.788-9.325,5.788-9.325,5.182,9.675,5.182,9.675Z" transform="translate(-737.049 -270.196)" fill="#7da376"/>
        <rect id="Rectángulo_401366" data-name="Rectángulo 401366" width="3.819" height="3.182" transform="translate(216.979 211.559) rotate(-88.171)" fill="#e9bd68"/>
        <path id="Trazado_873898" data-name="Trazado 873898" d="M1651.193,1363.548l-9.182-.293,4.845-7.806,4.845-7.806,4.337,8.1,4.337,8.1Z" transform="translate(-1431.443 -1174.825)" fill="#7da376"/>
        <path id="Trazado_873899" data-name="Trazado 873899" d="M1636.317,1427.828l-10.97-.35,5.788-9.325,5.788-9.325,5.182,9.675,5.182,9.675Z" transform="translate(-1416.916 -1228.163)" fill="#7da376"/>
        <path id="Trazado_873900" data-name="Trazado 873900" d="M1633.92,1502.9l-10.97-.35,5.788-9.325,5.788-9.325,5.182,9.675,5.182,9.675Z" transform="translate(-1414.827 -1293.606)" fill="#7da376"/>
        <rect id="Rectángulo_401367" data-name="Rectángulo 401367" width="29.169" height="3.057" transform="matrix(0.032, -0.999, 0.999, 0.032, 28.122, 205.531)" fill="#e9bd68"/>
        <path id="Trazado_873901" data-name="Trazado 873901" d="M129.441,1346.954a8.82,8.82,0,1,1-8.535-9.1,8.821,8.821,0,0,1,8.535,9.1" transform="translate(-97.467 -1166.29)" fill="#7da376"/>
        <path id="Trazado_873902" data-name="Trazado 873902" d="M188.615,1286.157a8.821,8.821,0,1,1-8.535-9.1,8.821,8.821,0,0,1,8.535,9.1" transform="translate(-149.052 -1113.289)" fill="#7da376"/>
        <path id="Trazado_873903" data-name="Trazado 873903" d="M243.112,1350.582a8.821,8.821,0,1,1-8.535-9.1,8.82,8.82,0,0,1,8.535,9.1" transform="translate(-196.561 -1169.452)" fill="#7da376"/>
        <path id="Trazado_873904" data-name="Trazado 873904" d="M185.334,1388.938a8.821,8.821,0,1,1-8.535-9.1,8.821,8.821,0,0,1,8.535,9.1" transform="translate(-146.192 -1202.89)" fill="#7da376"/>
        <rect id="Rectángulo_401368" data-name="Rectángulo 401368" width="23.056" height="2.416" transform="translate(264.305 59.441) rotate(-88.172)" fill="#e9bd68"/>
        <path id="Trazado_873905" data-name="Trazado 873905" d="M1990.032,261.35a6.972,6.972,0,1,1-6.746-7.191,6.972,6.972,0,0,1,6.746,7.191" transform="translate(-1722.682 -221.564)" fill="#7da376"/>
        <path id="Trazado_873906" data-name="Trazado 873906" d="M2036.8,213.3a6.972,6.972,0,1,1-6.746-7.191,6.972,6.972,0,0,1,6.746,7.191" transform="translate(-1763.456 -179.672)" fill="#7da376"/>
        <path id="Trazado_873907" data-name="Trazado 873907" d="M2079.88,264.218a6.972,6.972,0,1,1-6.746-7.191,6.971,6.971,0,0,1,6.746,7.191" transform="translate(-1801.008 -224.064)" fill="#7da376"/>
        <path id="Trazado_873908" data-name="Trazado 873908" d="M2034.212,294.536a6.972,6.972,0,1,1-6.746-7.191,6.972,6.972,0,0,1,6.746,7.191" transform="translate(-1761.196 -250.494)" fill="#7da376"/>
        <rect id="Rectángulo_401369" data-name="Rectángulo 401369" width="23.056" height="2.416" transform="matrix(0.032, -0.999, 0.999, 0.032, 246.838, 206.247)" fill="#e9bd68"/>
        <path id="Trazado_873909" data-name="Trazado 873909" d="M1853.821,1406.142a6.972,6.972,0,1,1-6.746-7.191,6.972,6.972,0,0,1,6.746,7.191" transform="translate(-1603.938 -1219.55)" fill="#7da376"/>
        <path id="Trazado_873910" data-name="Trazado 873910" d="M1900.594,1358.088a6.972,6.972,0,1,1-6.746-7.191,6.972,6.972,0,0,1,6.746,7.191" transform="translate(-1644.714 -1177.659)" fill="#7da376"/>
        <path id="Trazado_873911" data-name="Trazado 873911" d="M1943.668,1409.01a6.972,6.972,0,1,1-6.746-7.191,6.972,6.972,0,0,1,6.746,7.191" transform="translate(-1682.264 -1222.051)" fill="#7da376"/>
        <path id="Trazado_873912" data-name="Trazado 873912" d="M1898,1439.328a6.972,6.972,0,1,1-6.746-7.191,6.972,6.972,0,0,1,6.746,7.191" transform="translate(-1642.452 -1248.481)" fill="#7da376"/>
        <path id="Trazado_873913" data-name="Trazado 873913" d="M880.4,1003.909H803.54a5.331,5.331,0,0,1-5.315-5.315V904.62a5.331,5.331,0,0,1,5.315-5.315H880.4a5.331,5.331,0,0,1,5.315,5.315v93.974a5.331,5.331,0,0,1-5.315,5.315" transform="translate(-695.862 -783.981)" fill="#e9bd68"/>
        <path id="Trazado_873914" data-name="Trazado 873914" d="M723.547,777.067c0,5.284-1.856,9.567-4.146,9.567s-4.146-4.284-4.146-9.567,1.856-9.568,4.146-9.568,4.146,4.283,4.146,9.568" transform="translate(-623.532 -669.077)" fill="#22436d"/>
        <path id="Trazado_873915" data-name="Trazado 873915" d="M1506.095,777.067c0,5.284-1.856,9.567-4.146,9.567s-4.146-4.284-4.146-9.567,1.856-9.568,4.146-9.568,4.146,4.283,4.146,9.568" transform="translate(-1305.728 -669.077)" fill="#22436d"/>
        <rect id="Rectángulo_401370" data-name="Rectángulo 401370" width="100.352" height="19.135" transform="translate(95.869 98.422)" fill="#22436d"/>
        <path id="Trazado_873916" data-name="Trazado 873916" d="M815.36,789.971a.159.159,0,0,1-.111-.045c-1.573-1.525-2.589-5.034-2.589-8.939,0-3.986,1.046-7.522,2.665-9.01a.159.159,0,0,1,.216.235c-1.532,1.408-2.562,4.934-2.562,8.775,0,3.823.978,7.241,2.492,8.71a.16.16,0,0,1-.111.274" transform="translate(-708.446 -672.945)" fill="#99b2d3"/>
        <path id="Trazado_873917" data-name="Trazado 873917" d="M1434.043,795.327a.16.16,0,0,1-.12-.264c1.393-1.6,2.258-4.846,2.258-8.461,0-3.25-.706-6.232-1.888-7.977a.159.159,0,0,1,.264-.179c1.217,1.8,1.943,4.844,1.943,8.156,0,3.688-.9,7.011-2.336,8.67a.159.159,0,0,1-.12.055" transform="translate(-1250.006 -678.559)" fill="#99b2d3"/>
        <path id="Trazado_873918" data-name="Trazado 873918" d="M864.284,1567.054l-3.959,30.864h70.258s-5.411-33.7-5.411-33.38-60.887,2.516-60.887,2.516" transform="translate(-749.999 -1363.904)" fill="#75a4b4"/>
        <path id="Trazado_873919" data-name="Trazado 873919" d="M748.077,893.746c3.846,8.781,4.579,10.526,5.608,13.354a147.553,147.553,0,0,1,5.488,18.927,12.6,12.6,0,0,1-3.614,7.229,12.938,12.938,0,0,1-9.674,3.4,13.809,13.809,0,0,1-7.844-3.038,15.337,15.337,0,0,1-4.163-5.313c-4.968-9.732-9.362-19.257-11.6-29.951a211.855,211.855,0,0,0,8.78,60.467q-4.979.054-9.959.092-30.525.237-61.053-.092c1.258-12.828,2.122-23.475,2.814-31.536a51.389,51.389,0,0,0-.837-13.705c-.509-2.71-1.733-4.984-2.784-7.533-1.185,3.9-2.316,7.614-4.68,15.367-.888,2.912-3.554,11.438-7.428,13.648a11.757,11.757,0,0,1-3.7,1.3,6.98,6.98,0,0,1-3.323-.08,11.826,11.826,0,0,1-6.432-4.41,14.631,14.631,0,0,1-2.351-10.577,28.97,28.97,0,0,1,1.986-6.12c2.879-7.043,6.833-13.65,8.9-20.972,4.969-17.567,5.042-17.382,9.117-23.212,3.692-5.283,10.908-11.894,26.6-15.352a69.289,69.289,0,0,1,9.81-2A58,58,0,0,1,713,855.292a60.253,60.253,0,0,1,5.722,2.124c1.158.48,9.759,4.083,14.806,8.009,2.887,2.246,3.924,4.062,14.55,28.322" transform="translate(-550.196 -743.572)" fill="#fcf6f5"/>
        <path id="Trazado_873920" data-name="Trazado 873920" d="M1480.424,1303.42a.158.158,0,0,1-.089-.027,11.6,11.6,0,0,0-12.549-.027.16.16,0,1,1-.176-.266,11.924,11.924,0,0,1,12.9.028.159.159,0,0,1-.089.292" transform="translate(-1279.345 -1134.354)" fill="#488e2a"/>
        <path id="Trazado_873921" data-name="Trazado 873921" d="M1445.472,1249.471a.16.16,0,0,1-.107-.278,12.308,12.308,0,0,1,10.5-2.883.159.159,0,1,1-.063.313,11.982,11.982,0,0,0-10.224,2.807.16.16,0,0,1-.107.041" transform="translate(-1259.969 -1086.288)" fill="#488e2a"/>
        <path id="Trazado_873922" data-name="Trazado 873922" d="M672.2,1297.961a.159.159,0,0,1-.082-.3,17.98,17.98,0,0,1,7.589-2.816,9.387,9.387,0,0,1,7.577,2.451.159.159,0,0,1-.228.223,9.064,9.064,0,0,0-7.319-2.357,17.677,17.677,0,0,0-7.454,2.772.157.157,0,0,1-.082.023" transform="translate(-585.856 -1128.756)" fill="#488e2a"/>
        <path id="Trazado_873923" data-name="Trazado 873923" d="M693.149,1263.084a.159.159,0,0,1-.056-.309,10.416,10.416,0,0,1,6.946-.11.159.159,0,0,1-.1.3,10.1,10.1,0,0,0-6.732.106.159.159,0,0,1-.056.01" transform="translate(-604.122 -1100.272)" fill="#488e2a"/>
        <path id="Trazado_873924" data-name="Trazado 873924" d="M771.064,1249.336a.159.159,0,0,1-.148-.1,6.554,6.554,0,0,0-5.528-4.013.159.159,0,0,1,.019-.318,6.792,6.792,0,0,1,5.805,4.214.159.159,0,0,1-.148.218" transform="translate(-667.105 -1085.26)" fill="#488e2a"/>
        <path id="Trazado_873925" data-name="Trazado 873925" d="M841.044,1111.188a.16.16,0,0,1-.154-.12l-1.545-6.121a.159.159,0,1,1,.309-.078l1.546,6.121a.16.16,0,0,1-.116.194.155.155,0,0,1-.039.005" transform="translate(-731.704 -963.079)" fill="#488e2a"/>
        <path id="Trazado_873926" data-name="Trazado 873926" d="M1207.171,1092.455h-16.879a1.281,1.281,0,0,0-1.28,1.28v5.276a1.28,1.28,0,0,0,1.121,1.268,1.107,1.107,0,0,0,.159.01h16.879a1.264,1.264,0,0,0,.158-.01,1.281,1.281,0,0,0,1.122-1.269v-5.276a1.281,1.281,0,0,0-1.28-1.28m.961,6.556a.963.963,0,0,1-.8.947.987.987,0,0,1-.158.013h-16.879a1.011,1.011,0,0,1-.159-.013.962.962,0,0,1-.8-.947v-5.276a.961.961,0,0,1,.961-.961h16.879a.962.962,0,0,1,.961.961Z" transform="translate(-1036.536 -952.362)" fill="#488e2a"/>
        <path id="Trazado_873927" data-name="Trazado 873927" d="M1214.789,1150.977h-.161V1162a2.031,2.031,0,0,1-2.028,2.028h-12.5a2.031,2.031,0,0,1-2.029-2.028v-11.026h-.159a1,1,0,0,1-.16-.013V1162a2.351,2.351,0,0,0,2.348,2.347h12.5a2.35,2.35,0,0,0,2.347-2.347v-11.039a.973.973,0,0,1-.158.013" transform="translate(-1044.153 -1003.367)" fill="#488e2a"/>
        <path id="Trazado_873928" data-name="Trazado 873928" d="M941.071,1092.455H924.192a1.281,1.281,0,0,0-1.28,1.28v5.276a1.28,1.28,0,0,0,1.12,1.268,1.107,1.107,0,0,0,.159.01h16.879a1.261,1.261,0,0,0,.158-.01,1.281,1.281,0,0,0,1.122-1.269v-5.276a1.281,1.281,0,0,0-1.28-1.28m.961,6.556a.963.963,0,0,1-.8.947.986.986,0,0,1-.158.013H924.192a1.011,1.011,0,0,1-.159-.013.962.962,0,0,1-.8-.947v-5.276a.961.961,0,0,1,.961-.961h16.879a.962.962,0,0,1,.961.961Z" transform="translate(-804.56 -952.362)" fill="#488e2a"/>
        <path id="Trazado_873929" data-name="Trazado 873929" d="M948.689,1150.977h-.16V1162a2.031,2.031,0,0,1-2.029,2.028H934a2.031,2.031,0,0,1-2.029-2.028v-11.026h-.16a1,1,0,0,1-.159-.013V1162A2.351,2.351,0,0,0,934,1164.35h12.5a2.35,2.35,0,0,0,2.347-2.347v-11.039a.975.975,0,0,1-.158.013" transform="translate(-812.177 -1003.367)" fill="#488e2a"/>
        <path id="Trazado_873930" data-name="Trazado 873930" d="M1288.9,869.047a27.445,27.445,0,0,1,12.757,5.528q-.266,24.078-.531,48.156l-10.1,4.146c.222-9.994.151-20.574-.319-31.679-.386-9.11-1.009-17.837-1.807-26.151" transform="translate(-1123.617 -757.603)" fill="#d6680d"/>
        <path id="Trazado_873931" data-name="Trazado 873931" d="M1360.1,953.6h0a.159.159,0,0,1-.156-.162l.286-14.911a.156.156,0,0,1,.162-.156.16.16,0,0,1,.156.163l-.286,14.911a.159.159,0,0,1-.159.156" transform="translate(-1185.547 -818.034)" fill="#fcf6f5"/>
        <path id="Trazado_873932" data-name="Trazado 873932" d="M1328.377,960.064a.16.16,0,0,1-.16-.16V946.443a.16.16,0,0,1,.319,0V959.9a.16.16,0,0,1-.16.16" transform="translate(-1157.889 -824.934)" fill="#fcf6f5"/>
        <path id="Trazado_873933" data-name="Trazado 873933" d="M856.483,872.324a16.174,16.174,0,0,0-5.634.85,16.342,16.342,0,0,0-6.591,4.252l-3.827,52.834,8.4-.213a275.478,275.478,0,0,0,5.741-31.679c1.129-9.3,1.705-18.023,1.913-26.045" transform="translate(-732.656 -760.455)" fill="#e9bd68"/>
        <path id="Trazado_873934" data-name="Trazado 873934" d="M892.331,964.326h-.007a.159.159,0,0,1-.152-.166l.516-12.215a.159.159,0,1,1,.319.014l-.516,12.215a.159.159,0,0,1-.159.153" transform="translate(-777.762 -829.737)" fill="#fcf6f5"/>
        <path id="Trazado_873935" data-name="Trazado 873935" d="M921.9,1009.97l-.026,0a.159.159,0,0,1-.132-.183,88.262,88.262,0,0,0,1.121-15.5.159.159,0,0,1,.157-.162.162.162,0,0,1,.162.157,88.573,88.573,0,0,1-1.125,15.559.16.16,0,0,1-.157.134" transform="translate(-803.534 -866.637)" fill="#fcf6f5"/>
        <path id="Trazado_873936" data-name="Trazado 873936" d="M823.851,1164.99a233.242,233.242,0,0,1,4.465,24.025c.689,5.217,1.17,10.223,1.488,14.989q7.878,2.543,16.052,5.422,9.038,3.189,17.54,6.485l32.211-11.587a90.589,90.589,0,0,1,6.591-38.908l-38.27,13.288-40.077-13.714" transform="translate(-718.202 -1015.595)" fill="#694d7e"/>
        <path id="Trazado_873937" data-name="Trazado 873937" d="M1135.289,1315.882h0a.159.159,0,0,1-.158-.16l.213-33.274a.159.159,0,0,1,.159-.158h0a.16.16,0,0,1,.159.16l-.213,33.274a.159.159,0,0,1-.16.158" transform="translate(-989.563 -1117.852)" fill="#5b6a7e"/>
        <path id="Trazado_873938" data-name="Trazado 873938" d="M1041.516,730.249a120.413,120.413,0,0,1-.106,12.65c-.194,3.123-.383,4.092.213,5.528,1.73,4.174,7.519,6.106,12.013,5.953,1.01-.034,6.771-.231,9.249-4.146,1.325-2.094,1-4.127.85-7.547a78.986,78.986,0,0,1,.744-14.564l-22.962,2.126" transform="translate(-907.696 -634.751)" fill="#ffbe98"/>
        <path id="Trazado_873939" data-name="Trazado 873939" d="M992.628,483.712a24.275,24.275,0,0,1-6.045-14.922,11.727,11.727,0,0,1,1.228-6.377,5.871,5.871,0,0,1,5.389-3.118c1.5.15,2.695-1.027,3.792-2.066a15.87,15.87,0,0,1,3.475-2.884,6.209,6.209,0,0,1,7.092,1.189,33.794,33.794,0,0,0,2.409,2.858c.961.8,2.571,1.073,3.364.108,1.047-1.276,3.02-1.607,4.67-1.553s3.389,1.214,3.484,2.862a9.932,9.932,0,0,1-.471,2.426,2.085,2.085,0,0,0,.67,2.227c.764.457,1.85.041,2.575.557.776.553.61,1.732.36,2.652l-1.978,7.281a16.717,16.717,0,0,1-2.54,6.05c-1.789,2.294-4.65,3.493-7.484,4.152a28.288,28.288,0,0,1-15.755-.881,7.336,7.336,0,0,0-4.234-.561" transform="translate(-860.048 -395.536)" fill="#12263f"/>
        <path id="Trazado_873940" data-name="Trazado 873940" d="M1020.815,523.232c-1.27,2.093-.811,6.144.106,14.245,1.171,10.34,2.893,12.667,3.933,13.82a11.9,11.9,0,0,0,17.753.744c3.762-3.5,4.359-8.108,5.209-15.521.9-7.813,1.343-11.719-.531-14.351-5.076-7.126-21.991-6.321-26.47,1.063" transform="translate(-889.227 -450.908)" fill="#ffbe98"/>
        <path id="Trazado_873941" data-name="Trazado 873941" d="M1062.878,780.571q-.134,0-.269,0a12.8,12.8,0,0,1-9.044-4.411c-.112-.125-.263-.3-.428-.511a.159.159,0,0,1,.253-.194c.158.206.3.371.412.491a12.479,12.479,0,0,0,8.815,4.306,12.306,12.306,0,0,0,8.711-3.572,12.09,12.09,0,0,0,1.418-1.562.159.159,0,0,1,.254.193,13.562,13.562,0,0,1-10.122,5.263" transform="translate(-918.057 -675.661)" fill="#a65d31"/>
        <path id="Trazado_873942" data-name="Trazado 873942" d="M1122.557,643.142h0l-2.646-.038.944-10.6a.266.266,0,0,1,.529.047l-.893,10.031,2.074.03a.266.266,0,0,1,0,.531" transform="translate(-976.292 -551.181)" fill="#a65d31"/>
        <path id="Trazado_873943" data-name="Trazado 873943" d="M1096.361,740.223q-.237,0-.482-.016a7.487,7.487,0,0,1-4.633-2.1.266.266,0,0,1,.372-.38,6.945,6.945,0,0,0,4.3,1.945,7.018,7.018,0,0,0,5.116-1.843.266.266,0,0,1,.362.389,7.617,7.617,0,0,1-5.032,2" transform="translate(-951.238 -643.061)" fill="#e8856d"/>
        <path id="Trazado_873944" data-name="Trazado 873944" d="M1171.974,611.381a.531.531,0,0,1-.445-.239,3.686,3.686,0,0,0-2.516-1.6,3.5,3.5,0,0,0-2.141.459.532.532,0,0,1-.535-.919,4.564,4.564,0,0,1,2.8-.6,4.7,4.7,0,0,1,3.279,2.068.531.531,0,0,1-.443.824" transform="translate(-1016.539 -530.432)" fill="#a65d31"/>
        <path id="Trazado_873945" data-name="Trazado 873945" d="M1175.7,638.477a1.542,1.542,0,1,1-1.542-1.541,1.542,1.542,0,0,1,1.542,1.541" transform="translate(-1022.24 -555.257)" fill="#5b6a7e"/>
        <path id="Trazado_873946" data-name="Trazado 873946" d="M1047.045,611.381a.532.532,0,0,1-.444-.824,4.7,4.7,0,0,1,3.279-2.068,4.564,4.564,0,0,1,2.8.6.531.531,0,1,1-.535.919,3.5,3.5,0,0,0-2.141-.459,3.685,3.685,0,0,0-2.516,1.6.531.531,0,0,1-.445.24" transform="translate(-912.311 -530.432)" fill="#a65d31"/>
        <path id="Trazado_873947" data-name="Trazado 873947" d="M1066.09,638.477a1.541,1.541,0,1,0,1.542-1.541,1.542,1.542,0,0,0-1.542,1.541" transform="translate(-929.377 -555.257)" fill="#5b6a7e"/>
        <path id="Trazado_873948" data-name="Trazado 873948" d="M1007.053,527.733a112.5,112.5,0,0,0,1.3-12.525,44.9,44.9,0,0,0,5.913,1.962,31.716,31.716,0,0,0,6.136,1.026,21.029,21.029,0,0,0,11.191-2.862,32.02,32.02,0,0,0,2.87,12.757,21,21,0,0,0,1.663-7.318c.1-2.416.159-4.632-1.135-6.965a10.181,10.181,0,0,0-4.783-4.187,18.968,18.968,0,0,0-6.269-1.454,33.678,33.678,0,0,0-12.506,1.337c-2.467.75-5.031,1.947-6.226,4.232a11.165,11.165,0,0,0-.925,4.754,22.8,22.8,0,0,0,.179,5.031,8.218,8.218,0,0,0,2.183,4.458l.412-.246" transform="translate(-875.445 -442.904)" fill="#12263f"/>
        <path id="Trazado_873949" data-name="Trazado 873949" d="M1224.074,633.368a2.367,2.367,0,0,1,2.959.071,3.263,3.263,0,0,1,.538,2.637,11.656,11.656,0,0,1-1.127,4.206,5.774,5.774,0,0,1-3.166,2.871,1.991,1.991,0,0,1-1.839-.143,2.34,2.34,0,0,1-.591-2.05c.167-2.522.979-6.059,3.226-7.592" transform="translate(-1064.278 -551.726)" fill="#ffbe98"/>
        <path id="Trazado_873950" data-name="Trazado 873950" d="M1238.17,649a.72.72,0,0,1-.2-.028c-.362-.1-.6-.462-.675-1.038a5.7,5.7,0,0,1,.7-3.6,2.474,2.474,0,0,1,1.53-1.308,1.422,1.422,0,0,1,1.179.3,1.03,1.03,0,0,1,.4.822.16.16,0,0,1-.319-.008.716.716,0,0,0-.285-.568,1.112,1.112,0,0,0-.908-.233,2.238,2.238,0,0,0-1.321,1.155,5.384,5.384,0,0,0-.662,3.4c.035.252.139.688.445.775.292.082.6-.2.811-.45a8.933,8.933,0,0,0,.918-1.328c.165-.292.385-.9.037-1.118a.54.54,0,0,0-.653.182,1.616,1.616,0,0,0-.267.831.159.159,0,1,1-.317-.036,1.889,1.889,0,0,1,.334-.993.846.846,0,0,1,1.071-.254c.482.3.383.993.072,1.546a9.221,9.221,0,0,1-.951,1.376,1.314,1.314,0,0,1-.944.58" transform="translate(-1078.583 -560.541)" fill="#a65d31"/>
        <path id="Trazado_873951" data-name="Trazado 873951" d="M997.242,633.368a2.367,2.367,0,0,0-2.959.071,3.263,3.263,0,0,0-.538,2.637,11.654,11.654,0,0,0,1.127,4.206,5.773,5.773,0,0,0,3.166,2.871,1.991,1.991,0,0,0,1.839-.143,2.341,2.341,0,0,0,.591-2.05c-.167-2.522-.979-6.059-3.226-7.592" transform="translate(-866.267 -551.726)" fill="#ffbe98"/>
        <path id="Trazado_873952" data-name="Trazado 873952" d="M1003.009,649a1.314,1.314,0,0,1-.944-.58,9.242,9.242,0,0,1-.951-1.376c-.312-.553-.411-1.245.072-1.546a.846.846,0,0,1,1.071.254,1.888,1.888,0,0,1,.334.993.159.159,0,1,1-.317.036,1.617,1.617,0,0,0-.266-.831.54.54,0,0,0-.653-.182c-.347.217-.128.826.037,1.118a8.885,8.885,0,0,0,.918,1.328c.209.251.52.532.811.45.307-.087.411-.523.445-.775a5.384,5.384,0,0,0-.662-3.4,2.237,2.237,0,0,0-1.321-1.155,1.111,1.111,0,0,0-.908.233.717.717,0,0,0-.285.568.159.159,0,0,1-.155.163.157.157,0,0,1-.163-.155,1.029,1.029,0,0,1,.4-.822,1.423,1.423,0,0,1,1.179-.3,2.475,2.475,0,0,1,1.53,1.308,5.7,5.7,0,0,1,.7,3.6c-.079.577-.313.936-.674,1.038a.726.726,0,0,1-.2.028" transform="translate(-871.825 -560.541)" fill="#a65d31"/>
        <g id="Grupo_1099676" data-name="Grupo 1099676" transform="translate(135.526 60.844)" opacity="0.7" style="mix-blend-mode: overlay;isolation: isolate">
          <g id="Grupo_1099675" data-name="Grupo 1099675">
            <g id="Grupo_1099674" data-name="Grupo 1099674" clip-path="url(#clip-path-6)">
              <path id="Trazado_873953" data-name="Trazado 873953" d="M1066.6,554.668q-.47,0-.938-.029a15.722,15.722,0,0,1-8.767-3.38.159.159,0,1,1,.2-.249,15.268,15.268,0,0,0,17.517,1.084.159.159,0,0,1,.167.272,15.743,15.743,0,0,1-8.178,2.3" transform="translate(-1056.833 -541.164)" fill="#12263f"/>
              <path id="Trazado_873954" data-name="Trazado 873954" d="M1092.606,547.286a14.97,14.97,0,0,1-6.148-1.306.16.16,0,0,1,.131-.291,14.807,14.807,0,0,0,12.222-.084.16.16,0,0,1,.135.289,14.986,14.986,0,0,1-6.34,1.392" transform="translate(-1082.577 -536.47)" fill="#12263f"/>
              <path id="Trazado_873955" data-name="Trazado 873955" d="M1088.792,477.159a.16.16,0,0,1-.157-.19,3.271,3.271,0,0,1,2.707-2.461,4.241,4.241,0,0,1,3.5,1.237.159.159,0,1,1-.224.227,3.916,3.916,0,0,0-3.231-1.148,2.942,2.942,0,0,0-2.441,2.207.16.16,0,0,1-.156.129" transform="translate(-1084.554 -474.47)" fill="#12263f"/>
              <path id="Trazado_873956" data-name="Trazado 873956" d="M1216.014,493.984H1216a.159.159,0,0,1-.147-.171,1.885,1.885,0,0,0-3-1.656.159.159,0,0,1-.189-.257,2.2,2.2,0,0,1,3.507,1.936.16.16,0,0,1-.159.148" transform="translate(-1192.625 -489.294)" fill="#12263f"/>
            </g>
          </g>
        </g>
        <path id="Trazado_873957" data-name="Trazado 873957" d="M660.5,1306.087a10.535,10.535,0,0,0-2.445,6.591,9.327,9.327,0,0,0,1.488,5.315,9.983,9.983,0,0,0,9.355,4.039c5.049-.758,4.63-5.588,10.737-7.547,3.7-1.188,9.073-1.085,10.205-1.063,2.759.053,5.183.381,6.272-1.063a3.95,3.95,0,0,0,.319-3.3,2.345,2.345,0,0,0,.532-4.465,2.335,2.335,0,0,0,.638-1.913,2.149,2.149,0,0,0-.851-1.276c-1.026-.788-2.365-.576-3.614-.425a23.725,23.725,0,0,1-5.847.212c-.019-.139,6.731-.24,7.654-2.976a2.161,2.161,0,0,0-.106-1.594c-.852-1.571-4.042-1.3-6.8-1.063-3.124.266-4.687.4-6.272,1.276a11.418,11.418,0,0,0-5.1,6.91,14.912,14.912,0,0,0-8.4-1.382,11.656,11.656,0,0,0-7.76,3.721" transform="translate(-573.668 -1129.265)" fill="#ffbe98"/>
        <path id="Trazado_873958" data-name="Trazado 873958" d="M898.007,1398.221l-.023,0a28.3,28.3,0,0,0-7.851-.038.159.159,0,1,1-.042-.316,28.608,28.608,0,0,1,7.939.039.159.159,0,0,1-.023.317" transform="translate(-775.826 -1218.382)" fill="#a65d31"/>
        <path id="Trazado_873959" data-name="Trazado 873959" d="M885.409,1369.462a33.466,33.466,0,0,1-4.29-.276.16.16,0,0,1,.041-.316,33.092,33.092,0,0,0,9.51-.147.159.159,0,0,1,.051.315,33.414,33.414,0,0,1-5.311.425" transform="translate(-768.005 -1193.199)" fill="#a65d31"/>
        <path id="Trazado_873960" data-name="Trazado 873960" d="M1333.411,1306.916a10.533,10.533,0,0,1,2.445,6.591,9.326,9.326,0,0,1-1.488,5.315,9.983,9.983,0,0,1-9.355,4.04c-5.05-.758-4.63-5.588-10.737-7.548-3.7-1.188-9.073-1.085-10.205-1.063-2.759.053-5.183.381-6.272-1.063a3.948,3.948,0,0,1-.319-3.3,2.346,2.346,0,0,1-.532-4.465,2.335,2.335,0,0,1-.638-1.913,2.149,2.149,0,0,1,.85-1.276c1.026-.788,2.365-.576,3.614-.425a23.731,23.731,0,0,0,5.847.213c.019-.14-6.731-.24-7.654-2.977a2.16,2.16,0,0,1,.106-1.594c.852-1.571,4.042-1.3,6.8-1.063,3.124.267,4.687.4,6.272,1.276a11.418,11.418,0,0,1,5.1,6.91,14.911,14.911,0,0,1,8.4-1.382,11.656,11.656,0,0,1,7.76,3.721" transform="translate(-1129.397 -1129.988)" fill="#ffbe98"/>
        <path id="Trazado_873961" data-name="Trazado 873961" d="M1314.176,1399.05a.159.159,0,0,1-.023-.317,28.623,28.623,0,0,1,7.94-.039.159.159,0,1,1-.043.316,28.308,28.308,0,0,0-7.851.038l-.023,0" transform="translate(-1145.51 -1219.105)" fill="#a65d31"/>
        <path id="Trazado_873962" data-name="Trazado 873962" d="M1315.49,1370.29a33.4,33.4,0,0,1-5.311-.425.159.159,0,1,1,.051-.315,33.091,33.091,0,0,0,9.509.147.159.159,0,1,1,.041.316,33.4,33.4,0,0,1-4.29.277" transform="translate(-1142.048 -1193.921)" fill="#a65d31"/>
        <rect id="Rectángulo_401372" data-name="Rectángulo 401372" width="10.923" height="4.915" transform="translate(50.2 197.93) rotate(-12.727)" fill="#777474"/>
        <path id="Trazado_873963" data-name="Trazado 873963" d="M383.854,1447.56a5.625,5.625,0,1,0,6.726,4.248,5.625,5.625,0,0,0-6.726-4.248m2.069,9.163a3.768,3.768,0,1,1,2.846-4.506,3.768,3.768,0,0,1-2.846,4.506" transform="translate(-330.805 -1261.807)" fill="#777474"/>
        <path id="Trazado_873964" data-name="Trazado 873964" d="M364.692,1561.639a17.586,17.586,0,1,1-21.028-13.279,17.586,17.586,0,0,1,21.028,13.279" transform="translate(-287.637 -1349.422)" fill="#75a4b4"/>
        <path id="Trazado_873965" data-name="Trazado 873965" d="M380.913,1581.191a14.8,14.8,0,1,1-17.7-11.176,14.8,14.8,0,0,1,17.7,11.176" transform="translate(-306.575 -1368.361)" fill="#ffead5"/>
        <path id="Trazado_873966" data-name="Trazado 873966" d="M551.391,1647.027a3.492,3.492,0,0,0,.082.531q.06.255.119.517l.408-.092.16-.028a.954.954,0,0,1,.152-.016.407.407,0,0,1,.42.3.389.389,0,0,1-.025.261.425.425,0,0,1-.2.194.685.685,0,0,1-.12.045l-.122.035-.2.045q-.1.022-.2.05a.5.5,0,0,0-.054.032q.037.12.078.245t.094.247c.032.081.059.144.08.186a.18.18,0,0,0,.075.085.16.16,0,0,0,.111,0c.045-.012.109-.032.191-.061q.148-.044.294-.1t.289-.122a.454.454,0,0,1,.376-.008.393.393,0,0,1,.164.126.37.37,0,0,1,.074.18.4.4,0,0,1-.027.2.4.4,0,0,1-.135.171,1.1,1.1,0,0,1-.215.122l-.227.095c-.081.035-.161.066-.242.093l-.244.083a1.124,1.124,0,0,1-.383.068,1,1,0,0,1-.354-.063.945.945,0,0,1-.519-.478,4.627,4.627,0,0,1-.215-.521q-.09-.263-.158-.539-.108-.43-.2-.861t-.185-.865a2.2,2.2,0,0,1-.053-.438.466.466,0,0,1,.106-.325.473.473,0,0,1,.3-.155l.71-.1.71-.1c.027,0,.054-.006.082-.011a.465.465,0,0,1,.083-.006.423.423,0,0,1,.256.1.343.343,0,0,1,.127.222.383.383,0,0,1-.031.258.363.363,0,0,1-.2.182,1.882,1.882,0,0,1-.423.116c-.131.023-.264.042-.4.059l-.41.052" transform="translate(-479.882 -1434.959)" fill="#777474"/>
        <path id="Trazado_873967" data-name="Trazado 873967" d="M359.827,1690.015q.057-.268.11-.533t.1-.537q.028-.124.057-.258t.057-.258a.835.835,0,0,1,.031-.112.513.513,0,0,1,.049-.1.454.454,0,0,1,.16-.164.456.456,0,0,1,.411-.034.447.447,0,0,1,.18.13.419.419,0,0,1,.056.079c.015.027.03.054.046.081q.18.323.38.63t.431.608a.357.357,0,0,0,.056.067.5.5,0,0,0,.08.061l-.042-.527q-.039-.42-.073-.834t-.072-.83a.468.468,0,0,1,.07-.3.421.421,0,0,1,.239-.164.47.47,0,0,1,.35.021.355.355,0,0,1,.185.262q.026.137.044.276t.029.275q.058.575.113,1.144t.1,1.138q.011.141.014.275c0,.09,0,.18-.008.27a.549.549,0,0,1-.088.265.48.48,0,0,1-.231.175.557.557,0,0,1-.3.036.481.481,0,0,1-.256-.126q-.168-.156-.324-.315t-.308-.334q-.153-.18-.289-.364t-.281-.371l-.046-.056c-.017-.02-.036-.043-.059-.068-.015.072-.028.137-.04.2s-.023.121-.033.181q-.061.295-.115.59t-.115.591a.749.749,0,0,0-.022.1.547.547,0,0,1-.023.1.611.611,0,0,1-.144.267.558.558,0,0,1-.586.11.538.538,0,0,1-.221-.2.888.888,0,0,1-.1-.136c-.028-.048-.055-.1-.08-.151a7.679,7.679,0,0,1-.465-1.2,10.319,10.319,0,0,1-.282-1.25q-.027-.142-.058-.278t-.056-.268a.6.6,0,0,1,.016-.282.39.39,0,0,1,.2-.21.471.471,0,0,1,.2-.067.422.422,0,0,1,.192.023.411.411,0,0,1,.157.105.369.369,0,0,1,.09.174.886.886,0,0,1,.032.162,1.308,1.308,0,0,0,.027.163l.153.722q.075.356.156.716a1.245,1.245,0,0,0,.051.17q.031.082.06.163Z" transform="translate(-312.487 -1470.662)" fill="#777474"/>
        <path id="Trazado_873968" data-name="Trazado 873968" d="M436.312,1580.607l-.061-.272-.183-.809q-.091-.4-.178-.811c-.008-.036-.015-.072-.022-.107a.51.51,0,0,1-.007-.111.4.4,0,0,1,.1-.267.44.44,0,0,1,.262-.131.417.417,0,0,1,.276.035.391.391,0,0,1,.184.214.83.83,0,0,1,.036.1c.009.034.018.069.026.1q.193.856.354,1.645t.271,1.6a.458.458,0,0,1-.038.285.48.48,0,0,1-.214.207.423.423,0,0,1-.257.063.518.518,0,0,1-.247-.1,1.176,1.176,0,0,1-.147-.11,1.059,1.059,0,0,1-.126-.13q-.261-.3-.511-.6t-.5-.6l-.155-.19a2.238,2.238,0,0,0-.176-.19.7.7,0,0,0,.015.135q.082.411.166.813t.166.813c.006.04.01.079.014.119s.007.079.008.116a.41.41,0,0,1-.1.259.439.439,0,0,1-.237.14.4.4,0,0,1-.273-.033.45.45,0,0,1-.2-.2.265.265,0,0,1-.026-.068l-.016-.071-.19-.93-.19-.931q-.063-.323-.127-.641a4.175,4.175,0,0,1-.078-.652.836.836,0,0,1,.047-.3.368.368,0,0,1,.211-.206.475.475,0,0,1,.312-.045.541.541,0,0,1,.277.162q.269.287.536.574t.527.581q.117.132.223.274t.214.281l.024-.008.019-.007" transform="translate(-378.277 -1375.719)" fill="#777474"/>
        <path id="Trazado_873969" data-name="Trazado 873969" d="M477.667,1756.535a1.009,1.009,0,0,1,.123.1,1.165,1.165,0,0,1,.113.125.452.452,0,0,1,.093.321.461.461,0,0,1-.463.391.44.44,0,0,1-.3-.146.515.515,0,0,0-.488-.191,1.285,1.285,0,0,0-.16.026.387.387,0,0,0-.154.076.328.328,0,0,0-.146.27.3.3,0,0,0,.17.245,1.776,1.776,0,0,0,.166.078q.085.035.164.073l.448.182q.222.09.442.2a1.62,1.62,0,0,1,.432.319,1.55,1.55,0,0,1,.3.456,1.077,1.077,0,0,1,.082.577.885.885,0,0,1-.266.507,1.423,1.423,0,0,1-1.3.436,1.173,1.173,0,0,1-.661-.346.422.422,0,0,1-.118-.479.385.385,0,0,1,.163-.206.439.439,0,0,1,.261-.064.427.427,0,0,1,.176.042.7.7,0,0,1,.148.1.511.511,0,0,0,.32.114.476.476,0,0,0,.309-.113.171.171,0,0,0,.089-.171.405.405,0,0,0-.091-.186.95.95,0,0,0-.172-.163.747.747,0,0,0-.165-.1q-.172-.083-.345-.157t-.348-.151q-.1-.04-.195-.071a1.081,1.081,0,0,1-.192-.082,1.2,1.2,0,0,1-.622-.626,1.153,1.153,0,0,1,.062-.936,1.2,1.2,0,0,1,.283-.353,1.465,1.465,0,0,1,.4-.243,1.757,1.757,0,0,1,.738-.115,1.37,1.37,0,0,1,.709.254" transform="translate(-414.442 -1531.057)" fill="#777474"/>
        <path id="Trazado_873970" data-name="Trazado 873970" d="M452.027,1629.875l-2.219.5.192-4.311.192-4.311,2.027,3.81,2.027,3.81Z" transform="translate(-392.126 -1413.784)" fill="#22436d"/>
        <path id="Trazado_873971" data-name="Trazado 873971" d="M452.027,1681.68l2.219-.5-.192,4.311-.192,4.311-2.026-3.81-2.027-3.81Z" transform="translate(-392.126 -1465.588)" fill="#d6680d"/>
        <rect id="Rectángulo_401373" data-name="Rectángulo 401373" width="2.987" height="52.928" transform="translate(21.553 0)" fill="#946cb1"/>
        <path id="Trazado_873972" data-name="Trazado 873972" d="M82.656,149.32H60.938a1.868,1.868,0,0,1,0-3.736H82.656Z" transform="translate(-51.495 -126.915)" fill="#694d7e"/>
        <path id="Trazado_873973" data-name="Trazado 873973" d="M227.9,122.522v-5.535l4.794,2.768,4.794,2.768-4.794,2.768-4.794,2.768Z" transform="translate(-198.673 -101.985)" fill="#694d7e"/>
        <path id="Trazado_873974" data-name="Trazado 873974" d="M82.656,52.159H60.938a1.868,1.868,0,0,1,0-3.736H82.656Z" transform="translate(-51.495 -42.214)" fill="#d59cff"/>
        <path id="Trazado_873975" data-name="Trazado 873975" d="M227.9,25.361V19.826l4.794,2.768,4.794,2.768-4.794,2.768L227.9,30.9Z" transform="translate(-198.673 -17.284)" fill="#d59cff"/>
        <path id="Trazado_873976" data-name="Trazado 873976" d="M118.739,246.481h21.718a1.868,1.868,0,1,0,0-3.736H118.739Z" transform="translate(-103.512 -211.616)" fill="#e9bd68"/>
        <path id="Trazado_873977" data-name="Trazado 873977" d="M68.657,219.683v-5.535l-4.794,2.768-4.794,2.768,4.794,2.768,4.794,2.768Z" transform="translate(-51.495 -186.687)" fill="#e9bd68"/>
        <path id="Trazado_873978" data-name="Trazado 873978" d="M235.532,254.4a1,1,0,0,1,.124-.079.4.4,0,0,1,.136-.043.4.4,0,0,1,.4.172.54.54,0,0,1,.072.139.862.862,0,0,1,.038.155,1.983,1.983,0,0,1,.019.224.822.822,0,0,1-.025.222.2.2,0,0,1-.038.075.172.172,0,0,1-.061.047.165.165,0,0,1-.075.015.189.189,0,0,1-.078-.019.176.176,0,0,1-.086-.2c0-.037.005-.075.009-.113a.6.6,0,0,0,0-.113.945.945,0,0,0-.015-.111q-.011-.055-.027-.107-.042-.116-.144-.036a.28.28,0,0,0-.074.08.6.6,0,0,0-.048.1.862.862,0,0,0-.046.169q-.014.085-.024.172a.168.168,0,0,1-.1.148.16.16,0,0,1-.079.015.181.181,0,0,1-.073-.021.173.173,0,0,1-.058-.05.161.161,0,0,1-.03-.076.364.364,0,0,1-.006-.065.551.551,0,0,0,0-.065q-.01-.122-.021-.241t-.021-.239q0-.028,0-.054t0-.054a.186.186,0,0,1,.034-.115.168.168,0,0,1,.1-.061.152.152,0,0,1,.11.009.2.2,0,0,1,.086.085.043.043,0,0,1,.008.012.206.206,0,0,0,.012.02" transform="translate(-205.027 -221.658)" fill="#ffead5"/>
        <path id="Trazado_873979" data-name="Trazado 873979" d="M230.9,252.176a.17.17,0,0,1-.12-.046.149.149,0,0,1-.052-.109.153.153,0,0,1,.047-.118.167.167,0,0,1,.123-.049.16.16,0,0,1,.064.013.168.168,0,0,1,.053.036.2.2,0,0,1,.037.051.139.139,0,0,1,.014.061.151.151,0,0,1-.048.112.17.17,0,0,1-.118.049m.231.875a.166.166,0,0,1-.026.078.18.18,0,0,1-.055.055.176.176,0,0,1-.074.026.17.17,0,0,1-.083-.011.147.147,0,0,1-.082-.066.232.232,0,0,1-.024-.112q0-.146,0-.271a1.327,1.327,0,0,0-.018-.243.173.173,0,0,1,.012-.117.158.158,0,0,1,.084-.075.187.187,0,0,1,.121,0,.157.157,0,0,1,.095.07.342.342,0,0,1,.036.1q.014.148.018.286t-.006.28" transform="translate(-201.137 -219.558)" fill="#ffead5"/>
        <path id="Trazado_873980" data-name="Trazado 873980" d="M222.155,255.247l-.039.036-.043.038a.4.4,0,0,1-.162.081.337.337,0,0,1-.155,0,.332.332,0,0,1-.135-.071.416.416,0,0,1-.1-.13.5.5,0,0,1-.05-.154.728.728,0,0,1-.007-.175.658.658,0,0,1,.039-.175.614.614,0,0,1,.088-.161.538.538,0,0,1,.331-.2.763.763,0,0,1,.2-.014.614.614,0,0,1,.194.046.264.264,0,0,1,.132.1.274.274,0,0,1,.022.166c0,.024-.006.048-.011.072a.411.411,0,0,0-.007.076q0,.058,0,.117t.008.117a.151.151,0,0,0,.011.046.134.134,0,0,0,.025.04.178.178,0,0,1,.037.1.137.137,0,0,1-.037.1.174.174,0,0,1-.1.056.161.161,0,0,1-.114-.014.32.32,0,0,1-.064-.045q-.03-.027-.064-.053m-.074-.6a.2.2,0,0,0-.213.082.325.325,0,0,0-.05.287.182.182,0,0,0,.011.025l.017.029a.051.051,0,0,0,.057.005.181.181,0,0,0,.061-.052.473.473,0,0,0,.056-.089.817.817,0,0,0,.044-.106.474.474,0,0,0,.023-.1.192.192,0,0,0-.005-.079" transform="translate(-193.062 -221.704)" fill="#ffead5"/>
        <path id="Trazado_873981" data-name="Trazado 873981" d="M212.7,252.331a.634.634,0,0,0,.016.16.966.966,0,0,0,.05.152c.009.025.029.034.06.026l.034-.01.036-.01.043-.008a.154.154,0,0,1,.043,0,.152.152,0,0,1,.1.032.168.168,0,0,1,.056.084.154.154,0,0,1,0,.1.136.136,0,0,1-.066.074.664.664,0,0,1-.171.064.445.445,0,0,1-.175.005.351.351,0,0,1-.159-.072.4.4,0,0,1-.119-.17.728.728,0,0,1-.045-.147c-.01-.051-.021-.1-.033-.153a.273.273,0,0,1-.011-.053c0-.018,0-.037-.007-.057h-.076a.185.185,0,0,1-.117-.057.147.147,0,0,1-.043-.115.149.149,0,0,1,.05-.107.189.189,0,0,1,.12-.045h.07c.005-.044.01-.086.014-.128s.009-.082.014-.124q0-.028.007-.056c0-.019,0-.037.007-.056a.182.182,0,0,1,.07-.11.178.178,0,0,1,.235.03.176.176,0,0,1,.036.124.971.971,0,0,1-.009.1q-.007.048-.013.1a.352.352,0,0,0-.005.048.483.483,0,0,1-.005.052l.071-.005c.022,0,.044,0,.067,0a.179.179,0,0,1,.073.019.17.17,0,0,1,.055.044.159.159,0,0,1,.031.061.152.152,0,0,1,0,.072.16.16,0,0,1-.057.089.178.178,0,0,1-.1.041l-.067.008-.069.01" transform="translate(-184.907 -219.26)" fill="#ffead5"/>
        <path id="Trazado_873982" data-name="Trazado 873982" d="M202.159,254.4a1,1,0,0,1,.124-.079.4.4,0,0,1,.136-.043.4.4,0,0,1,.4.172.541.541,0,0,1,.072.139.865.865,0,0,1,.038.155,1.983,1.983,0,0,1,.019.224.824.824,0,0,1-.025.222.2.2,0,0,1-.038.075.172.172,0,0,1-.061.047.166.166,0,0,1-.075.015.189.189,0,0,1-.078-.019.176.176,0,0,1-.086-.2c0-.037.006-.075.009-.113a.6.6,0,0,0,0-.113.945.945,0,0,0-.015-.111q-.011-.055-.027-.107-.042-.116-.144-.036a.28.28,0,0,0-.074.08.6.6,0,0,0-.048.1.862.862,0,0,0-.046.169q-.014.085-.024.172a.168.168,0,0,1-.1.148.16.16,0,0,1-.079.015.181.181,0,0,1-.073-.021.173.173,0,0,1-.058-.05.161.161,0,0,1-.03-.076.364.364,0,0,1-.006-.065.555.555,0,0,0,0-.065q-.01-.122-.021-.241t-.021-.239q0-.028,0-.054t0-.054a.186.186,0,0,1,.034-.115.168.168,0,0,1,.1-.061.152.152,0,0,1,.11.009.2.2,0,0,1,.086.085.042.042,0,0,1,.008.012l.012.02" transform="translate(-175.934 -221.658)" fill="#ffead5"/>
        <path id="Trazado_873983" data-name="Trazado 873983" d="M193.5,254.65a.415.415,0,0,0,.021-.094q.007-.056.01-.118c0-.041,0-.082.006-.123s0-.078.009-.113c.005-.013.01-.027.014-.041s.009-.028.014-.043a.181.181,0,0,1,.075-.091.158.158,0,0,1,.113-.023.176.176,0,0,1,.152.157.387.387,0,0,1,0,.055l0,.055c0,.068-.007.134-.01.2a.787.787,0,0,0,.018.2.8.8,0,0,0,.029.09q.017.044.037.088a.207.207,0,0,1,.02.116.143.143,0,0,1-.054.092.172.172,0,0,1-.115.042.164.164,0,0,1-.115-.046.375.375,0,0,1-.04-.047c-.012-.017-.025-.034-.04-.051l-.032.039-.034.037a.323.323,0,0,1-.1.071.271.271,0,0,1-.111.022.268.268,0,0,1-.111-.027.328.328,0,0,1-.1-.076.476.476,0,0,1-.07-.1.632.632,0,0,1-.046-.113,1.159,1.159,0,0,1-.059-.329,1.351,1.351,0,0,1,.033-.335.274.274,0,0,1,.04-.094.167.167,0,0,1,.111-.072.2.2,0,0,1,.133.022.174.174,0,0,1,.044.037.16.16,0,0,1,.03.052.148.148,0,0,1,.007.062.176.176,0,0,1-.021.067.2.2,0,0,0-.016.058c0,.025-.007.057-.01.1s0,.079,0,.121a.817.817,0,0,0,.01.118.2.2,0,0,0,.031.086.063.063,0,0,0,.071.03q.043-.01.067-.078" transform="translate(-168.224 -221.408)" fill="#ffead5"/>
        <path id="Trazado_873984" data-name="Trazado 873984" d="M184.144,254.8a.7.7,0,0,1-.2.2.523.523,0,0,1-.233.085.466.466,0,0,1-.236-.039.568.568,0,0,1-.212-.168.462.462,0,0,1-.085-.169.6.6,0,0,1-.019-.191.692.692,0,0,1,.041-.194.642.642,0,0,1,.1-.174.621.621,0,0,1,.145-.136.523.523,0,0,1,.185-.079.581.581,0,0,1,.156-.007.445.445,0,0,1,.155.043.51.51,0,0,1,.141.1.616.616,0,0,1,.116.167.488.488,0,0,1,.049.289.7.7,0,0,1-.1.271m-.253-.275a.334.334,0,0,0,0-.1.285.285,0,0,0-.028-.092.182.182,0,0,0-.071-.082.117.117,0,0,0-.078-.012.176.176,0,0,0-.076.038.427.427,0,0,0-.067.068.451.451,0,0,0-.05.078.238.238,0,0,0-.024.07.278.278,0,0,0,.009.139.175.175,0,0,0,.06.083.151.151,0,0,0,.09.028.218.218,0,0,0,.1-.024.241.241,0,0,0,.085-.074.28.28,0,0,0,.049-.124" transform="translate(-159.671 -221.366)" fill="#ffead5"/>
        <path id="Trazado_873985" data-name="Trazado 873985" d="M169.949,253.817a.4.4,0,0,1,.234-.05.435.435,0,0,1,.208.09c.032-.017.062-.035.092-.053a.371.371,0,0,1,.094-.041.349.349,0,0,1,.206-.005.491.491,0,0,1,.183.1.484.484,0,0,1,.119.146.519.519,0,0,1,.055.177c.005.044.009.088.011.133s0,.089.007.133,0,.072,0,.108,0,.071,0,.106a.175.175,0,0,1-.04.117.168.168,0,0,1-.108.057.164.164,0,0,1-.063,0,.2.2,0,0,1-.058-.025.169.169,0,0,1-.073-.1.281.281,0,0,1-.006-.059q0-.031,0-.059c0-.056,0-.111,0-.167s0-.111,0-.166a.29.29,0,0,0-.03-.119.135.135,0,0,0-.06-.064.069.069,0,0,0-.069.008.17.17,0,0,0-.057.095.683.683,0,0,0-.044.2q-.006.1,0,.211a.235.235,0,0,1,0,.076.159.159,0,0,1-.055.108.163.163,0,0,1-.113.044.166.166,0,0,1-.113-.039.162.162,0,0,1-.061-.1.711.711,0,0,1,0-.107q0-.053.006-.1c0-.034.005-.068.008-.1a.611.611,0,0,0,0-.1.329.329,0,0,0-.033-.134c-.017-.028-.035-.042-.056-.041s-.041.016-.062.046a.381.381,0,0,0-.051.127.667.667,0,0,0-.016.153,1.365,1.365,0,0,0,.01.166v.062a.265.265,0,0,1-.008.064.152.152,0,0,1-.057.093.172.172,0,0,1-.1.037.167.167,0,0,1-.106-.032.161.161,0,0,1-.064-.092.136.136,0,0,1-.012-.058q-.014-.194-.025-.383t-.025-.383a.22.22,0,0,1,.015-.1.148.148,0,0,1,.071-.074.19.19,0,0,1,.067-.023.161.161,0,0,1,.067,0,.181.181,0,0,1,.108.085.151.151,0,0,0,.01.02.116.116,0,0,1,.01.022" transform="translate(-147.852 -221.153)" fill="#ffead5"/>
        <path id="Trazado_873986" data-name="Trazado 873986" d="M169.2,57.479a.633.633,0,0,0,.016.16.969.969,0,0,0,.05.152c.009.025.029.034.06.026l.034-.01.036-.01.043-.008a.154.154,0,0,1,.043,0,.152.152,0,0,1,.1.032.168.168,0,0,1,.056.084.154.154,0,0,1,0,.1.136.136,0,0,1-.066.074.663.663,0,0,1-.171.064.446.446,0,0,1-.175,0,.351.351,0,0,1-.159-.072.4.4,0,0,1-.119-.17.727.727,0,0,1-.045-.147c-.01-.051-.021-.1-.033-.153a.286.286,0,0,1-.011-.053c0-.018,0-.037-.007-.057h-.076a.186.186,0,0,1-.117-.057.146.146,0,0,1-.043-.115.149.149,0,0,1,.05-.107.188.188,0,0,1,.12-.045h.07c.005-.044.01-.086.014-.128s.009-.082.014-.124c0-.019,0-.037.007-.056s0-.037.007-.056a.181.181,0,0,1,.07-.11.177.177,0,0,1,.235.03.176.176,0,0,1,.036.124.968.968,0,0,1-.009.1q-.007.048-.013.1a.356.356,0,0,0-.005.048q0,.024,0,.052l.071,0c.022,0,.044,0,.067,0a.178.178,0,0,1,.073.019.169.169,0,0,1,.055.044.159.159,0,0,1,.031.061.152.152,0,0,1,0,.072.159.159,0,0,1-.057.089.177.177,0,0,1-.1.041l-.067.008-.069.01" transform="translate(-146.987 -49.396)" fill="#ffead5"/>
        <path id="Trazado_873987" data-name="Trazado 873987" d="M161.562,58.294a.111.111,0,0,0,0,.072.184.184,0,0,0,.052.076l.052.042.054.042a.759.759,0,0,1,.109.1.5.5,0,0,1,.081.13.374.374,0,0,1,.029.155.347.347,0,0,1-.034.139.338.338,0,0,1-.088.112.378.378,0,0,1-.135.072.434.434,0,0,1-.228.01.559.559,0,0,1-.209-.1l-.008-.006-.008-.008a.184.184,0,0,1-.06-.109.152.152,0,0,1,.028-.111.168.168,0,0,1,.1-.065.184.184,0,0,1,.125.019l.023.017a.186.186,0,0,0,.025.017.215.215,0,0,0,.033.017.212.212,0,0,0,.035.011.037.037,0,0,0,.041-.007.039.039,0,0,0,0-.043.235.235,0,0,0-.024-.041.193.193,0,0,0-.034-.035c-.016-.015-.033-.029-.052-.043l-.056-.043a.728.728,0,0,1-.128-.133.383.383,0,0,1-.07-.169.443.443,0,0,1,0-.174.43.43,0,0,1,.065-.153.464.464,0,0,1,.118-.119.471.471,0,0,1,.163-.072.536.536,0,0,1,.154-.017.294.294,0,0,1,.146.047.443.443,0,0,1,.053.04.273.273,0,0,1,.043.048.155.155,0,0,1,.035.11.169.169,0,0,1-.045.1.166.166,0,0,1-.1.053.169.169,0,0,1-.113-.027.156.156,0,0,0-.1-.025.091.091,0,0,0-.071.069" transform="translate(-140.5 -50.457)" fill="#ffead5"/>
        <path id="Trazado_873988" data-name="Trazado 873988" d="M152.649,59.543a.315.315,0,0,0,.1.062.138.138,0,0,0,.116-.012.25.25,0,0,1,.08-.03.194.194,0,0,1,.078,0,.111.111,0,0,1,.072.042.161.161,0,0,1,.032.077.2.2,0,0,1-.007.086.143.143,0,0,1-.043.069.244.244,0,0,1-.047.03l-.051.022a.486.486,0,0,1-.191.033.632.632,0,0,1-.347-.115.5.5,0,0,1-.12-.116.652.652,0,0,1-.126-.337.68.68,0,0,1,.08-.349.541.541,0,0,1,.413-.3.4.4,0,0,1,.221.018.437.437,0,0,1,.166.115.459.459,0,0,1,.1.172.421.421,0,0,1,.014.194.319.319,0,0,1-.072.162.436.436,0,0,1-.133.1.6.6,0,0,1-.165.055,1.112,1.112,0,0,1-.171.018m.158-.339a.1.1,0,0,0,.06-.06.1.1,0,0,0,0-.071.1.1,0,0,0-.131-.055.232.232,0,0,0-.122.077.088.088,0,0,0-.017.084.092.092,0,0,0,.071.05.225.225,0,0,0,.14-.025" transform="translate(-132.68 -51.172)" fill="#ffead5"/>
        <path id="Trazado_873989" data-name="Trazado 873989" d="M144.822,58.3l.05-.032a.475.475,0,0,1,.052-.03.349.349,0,0,1,.12-.041.276.276,0,0,1,.128.013.2.2,0,0,1,.1.068.14.14,0,0,1,.028.1.149.149,0,0,1-.051.1.168.168,0,0,1-.111.042.126.126,0,0,0-.055.011.187.187,0,0,0-.045.031.422.422,0,0,0-.148.279q-.01.106-.016.208a.872.872,0,0,0,.014.21.148.148,0,0,1-.024.121.172.172,0,0,1-.1.069.181.181,0,0,1-.128-.019.172.172,0,0,1-.081-.1.364.364,0,0,1-.014-.072q-.016-.223-.032-.445t-.032-.445a.2.2,0,0,1,0-.034.168.168,0,0,1,.005-.034.149.149,0,0,1,.044-.092.173.173,0,0,1,.1-.048.167.167,0,0,1,.1.011.162.162,0,0,1,.078.067.147.147,0,0,1,.016.029.274.274,0,0,0,.016.033" transform="translate(-125.941 -50.702)" fill="#ffead5"/>
        <path id="Trazado_873990" data-name="Trazado 873990" d="M135.732,59.952a.693.693,0,0,1-.2.2.522.522,0,0,1-.232.085.466.466,0,0,1-.236-.039.567.567,0,0,1-.212-.168.462.462,0,0,1-.085-.17.6.6,0,0,1-.019-.191.688.688,0,0,1,.041-.194.648.648,0,0,1,.1-.175.621.621,0,0,1,.145-.136.522.522,0,0,1,.185-.079.582.582,0,0,1,.156-.007.445.445,0,0,1,.155.043.512.512,0,0,1,.141.1.62.62,0,0,1,.116.167.49.49,0,0,1,.049.289.7.7,0,0,1-.1.271m-.253-.275a.333.333,0,0,0,0-.1.285.285,0,0,0-.028-.092.182.182,0,0,0-.071-.082.117.117,0,0,0-.078-.012.175.175,0,0,0-.076.038.424.424,0,0,0-.067.068.432.432,0,0,0-.05.078.234.234,0,0,0-.024.07.279.279,0,0,0,.009.139.174.174,0,0,0,.06.083.149.149,0,0,0,.09.028.218.218,0,0,0,.1-.024.241.241,0,0,0,.085-.074.28.28,0,0,0,.049-.124" transform="translate(-117.468 -51.502)" fill="#ffead5"/>
        <path id="Trazado_873991" data-name="Trazado 873991" d="M125.875,57.231h.14a.193.193,0,0,1,.128.046.144.144,0,0,1,.049.112.157.157,0,0,1-.049.115.183.183,0,0,1-.125.053h-.132c0,.015,0,.029,0,.042s0,.026,0,.038q.006.076.012.149t.008.145a.169.169,0,0,1-.042.124.166.166,0,0,1-.112.054.186.186,0,0,1-.127-.036.155.155,0,0,1-.061-.112c-.007-.053-.012-.106-.015-.158s-.007-.1-.011-.157l0-.042a.394.394,0,0,0-.006-.04l-.061-.009a.347.347,0,0,1-.057-.011.183.183,0,0,1-.11-.065.151.151,0,0,1-.03-.115.156.156,0,0,1,.058-.1.181.181,0,0,1,.118-.039h.074c0-.015,0-.028,0-.039a.2.2,0,0,0,0-.035.978.978,0,0,1,0-.159,1.4,1.4,0,0,1,.027-.157.68.68,0,0,1,.075-.189.457.457,0,0,1,.111-.126.429.429,0,0,1,.144-.072.815.815,0,0,1,.174-.029.345.345,0,0,1,.069,0c.023,0,.047.006.071.007l.022,0a.194.194,0,0,1,.11.081.148.148,0,0,1,.02.121.146.146,0,0,1-.077.1.211.211,0,0,1-.133.023.4.4,0,0,0-.055,0l-.055,0a.105.105,0,0,0-.075.027.163.163,0,0,0-.043.067,1.082,1.082,0,0,0-.04.183.82.82,0,0,0,0,.2" transform="translate(-109.21 -49.188)" fill="#ffead5"/>
        <path id="Trazado_873992" data-name="Trazado 873992" d="M163.15,155.812l.05-.032a.478.478,0,0,1,.052-.03.35.35,0,0,1,.119-.041.276.276,0,0,1,.128.013.2.2,0,0,1,.1.068.141.141,0,0,1,.028.1.149.149,0,0,1-.051.1.168.168,0,0,1-.111.042.126.126,0,0,0-.055.011.188.188,0,0,0-.045.031.422.422,0,0,0-.148.279q-.01.106-.016.208a.873.873,0,0,0,.014.21.148.148,0,0,1-.024.121.173.173,0,0,1-.1.069.182.182,0,0,1-.129-.019.171.171,0,0,1-.081-.1.357.357,0,0,1-.014-.072q-.016-.223-.032-.445t-.032-.445a.2.2,0,0,1,0-.034.165.165,0,0,1,.005-.034.148.148,0,0,1,.044-.092.174.174,0,0,1,.1-.048.168.168,0,0,1,.1.011.162.162,0,0,1,.078.067.146.146,0,0,1,.016.029.273.273,0,0,0,.016.033" transform="translate(-141.919 -135.707)" fill="#ffead5"/>
        <path id="Trazado_873993" data-name="Trazado 873993" d="M154.307,157.053a.318.318,0,0,0,.1.062.138.138,0,0,0,.116-.012.25.25,0,0,1,.08-.03.194.194,0,0,1,.078,0,.11.11,0,0,1,.072.042.161.161,0,0,1,.032.077.2.2,0,0,1-.007.086.142.142,0,0,1-.043.069.234.234,0,0,1-.047.03l-.051.022a.489.489,0,0,1-.191.033.632.632,0,0,1-.347-.115.5.5,0,0,1-.12-.116.652.652,0,0,1-.126-.337.68.68,0,0,1,.08-.349.541.541,0,0,1,.413-.3.4.4,0,0,1,.221.018.438.438,0,0,1,.166.115.459.459,0,0,1,.1.172.421.421,0,0,1,.014.193.319.319,0,0,1-.072.162.436.436,0,0,1-.133.1.6.6,0,0,1-.165.055,1.114,1.114,0,0,1-.171.018m.158-.339a.1.1,0,0,0,.06-.06.1.1,0,0,0,0-.071.1.1,0,0,0-.048-.052.1.1,0,0,0-.083,0,.23.23,0,0,0-.122.077.088.088,0,0,0-.017.084.092.092,0,0,0,.071.05.225.225,0,0,0,.14-.025" transform="translate(-134.125 -136.178)" fill="#ffead5"/>
        <path id="Trazado_873994" data-name="Trazado 873994" d="M144.877,157.553c.007-.015.013-.03.019-.046s.012-.031.019-.046q.04-.114.078-.225t.078-.224a.23.23,0,0,1,.089-.122.183.183,0,0,1,.136-.024.163.163,0,0,1,.071.028.165.165,0,0,1,.049.054.194.194,0,0,1,.023.069.156.156,0,0,1-.009.075q-.1.287-.21.568a.758.758,0,0,1-.112.213.347.347,0,0,1-.1.09.242.242,0,0,1-.11.036.267.267,0,0,1-.115-.018.326.326,0,0,1-.11-.072.734.734,0,0,1-.125-.165,1.073,1.073,0,0,1-.081-.186q-.034-.108-.059-.218t-.053-.222a.061.061,0,0,1,0-.022v-.024a.192.192,0,0,1,.043-.146.179.179,0,0,1,.133-.06.174.174,0,0,1,.142.051.226.226,0,0,1,.058.145,1.029,1.029,0,0,0,.037.244,1.432,1.432,0,0,0,.087.232.012.012,0,0,0,.007.008l.015.006" transform="translate(-125.844 -136.748)" fill="#ffead5"/>
        <path id="Trazado_873995" data-name="Trazado 873995" d="M140.163,154.833a.17.17,0,0,1-.12-.046.149.149,0,0,1-.052-.109.154.154,0,0,1,.047-.118.167.167,0,0,1,.123-.049.16.16,0,0,1,.064.013.167.167,0,0,1,.053.036.2.2,0,0,1,.037.051.139.139,0,0,1,.014.061.151.151,0,0,1-.048.112.17.17,0,0,1-.118.049m.231.876a.167.167,0,0,1-.026.078.182.182,0,0,1-.055.055.175.175,0,0,1-.074.026.171.171,0,0,1-.083-.011.149.149,0,0,1-.082-.066.232.232,0,0,1-.024-.112q0-.145,0-.271a1.339,1.339,0,0,0-.018-.243.173.173,0,0,1,.012-.117.158.158,0,0,1,.084-.075.187.187,0,0,1,.121,0,.157.157,0,0,1,.095.07.337.337,0,0,1,.036.1q.014.148.018.286t-.006.28" transform="translate(-122.039 -134.698)" fill="#ffead5"/>
        <path id="Trazado_873996" data-name="Trazado 873996" d="M132.918,155.812l.05-.032a.5.5,0,0,1,.052-.03.35.35,0,0,1,.12-.041.276.276,0,0,1,.128.013.2.2,0,0,1,.1.068.14.14,0,0,1,.028.1.149.149,0,0,1-.051.1.168.168,0,0,1-.111.042.126.126,0,0,0-.055.011.188.188,0,0,0-.045.031.421.421,0,0,0-.148.279q-.01.106-.016.208a.872.872,0,0,0,.014.21.148.148,0,0,1-.024.121.173.173,0,0,1-.1.069.182.182,0,0,1-.129-.019.171.171,0,0,1-.081-.1.363.363,0,0,1-.014-.072q-.016-.223-.032-.445t-.032-.445a.2.2,0,0,1,0-.034.167.167,0,0,1,.005-.034.148.148,0,0,1,.044-.092.174.174,0,0,1,.1-.048.168.168,0,0,1,.1.011.162.162,0,0,1,.078.067.153.153,0,0,1,.016.029.268.268,0,0,0,.016.033" transform="translate(-115.564 -135.707)" fill="#ffead5"/>
        <path id="Trazado_873997" data-name="Trazado 873997" d="M1633.8,41.35a12.422,12.422,0,0,0-12.422,12.422c0,6.86,12.422,37.1,12.422,37.1s12.422-30.24,12.422-37.1A12.422,12.422,0,0,0,1633.8,41.35m0,17.769a7.157,7.157,0,1,1,7.157-7.157,7.157,7.157,0,0,1-7.157,7.157" transform="translate(-1413.455 -36.048)" fill="#694d7e"/>
      </g>
    </g>
  </g>
</svg>
