<svg xmlns="http://www.w3.org/2000/svg" xmlns:xlink="http://www.w3.org/1999/xlink" width="105" height="105" viewBox="0 0 105 105">
  <defs>
    <clipPath id="clip-path">
      <rect id="Rectángulo_401350" data-name="Rectángulo 401350" width="65.957" height="57.516" fill="#a28347"/>
    </clipPath>
  </defs>
  <g id="Grupo_1099638" data-name="Grupo 1099638" transform="translate(-1063.051 -2148)">
    <circle id="Elipse_11507" data-name="Elipse 11507" cx="52.5" cy="52.5" r="52.5" transform="translate(1063.051 2148)" fill="#fcf8ee"/>
    <g id="Grupo_1099632" data-name="Grupo 1099632" transform="translate(1083.051 2172)">
      <g id="Grupo_1099631" data-name="Grupo 1099631" clip-path="url(#clip-path)">
        <path id="Trazado_873856" data-name="Trazado 873856" d="M58.421,110.215a1.142,1.142,0,0,0-1.142,1.141v5.9a3.354,3.354,0,0,1-3.35,3.349H47.061V105.031a5.194,5.194,0,0,0-5.188-5.188h-6.02a5.194,5.194,0,0,0-5.188,5.188v15.576H23.8a3.354,3.354,0,0,1-3.349-3.349V96.339a1.142,1.142,0,0,0-2.284,0v20.918a5.639,5.639,0,0,0,5.634,5.632H53.929a5.639,5.639,0,0,0,5.634-5.632v-5.9a1.142,1.142,0,0,0-1.142-1.141m-25.472-5.184a2.907,2.907,0,0,1,2.9-2.905h6.02a2.908,2.908,0,0,1,2.9,2.905v15.576H32.949Z" transform="translate(-12.475 -65.373)" fill="#a28347"/>
        <path id="Trazado_873857" data-name="Trazado 873857" d="M30.244,47.951a1.142,1.142,0,1,0,1.1-2l-4.415-2.437a1.142,1.142,0,0,0-1.1,0L.591,57.447a1.142,1.142,0,1,0,1.1,2L26.381,45.819Z" transform="translate(0 -29.784)" fill="#a28347"/>
        <path id="Trazado_873858" data-name="Trazado 873858" d="M136.594,4.612A15.673,15.673,0,0,0,125.508,0c-.047,0-.1,0-.143,0a15.839,15.839,0,0,0-15.644,15.79c0,14.011,14.389,27.929,15,28.514a1.143,1.143,0,0,0,1.578,0c.613-.585,15-14.5,15-28.514a15.66,15.66,0,0,0-4.71-11.18M125.513,41.859c-3-3.117-13.507-14.84-13.507-26.066a13.548,13.548,0,0,1,13.38-13.507h.121A13.629,13.629,0,0,1,139.02,15.792c0,11.226-10.507,22.949-13.507,26.066" transform="translate(-75.347 -0.001)" fill="#a28347"/>
        <path id="Trazado_873859" data-name="Trazado 873859" d="M142.606,24.9a7.992,7.992,0,1,0,7.993,7.99,8,8,0,0,0-7.993-7.99m0,13.7a5.709,5.709,0,1,1,5.708-5.71,5.715,5.715,0,0,1-5.708,5.71" transform="translate(-92.44 -17.099)" fill="#a28347"/>
      </g>
    </g>
  </g>
</svg>
