<svg xmlns="http://www.w3.org/2000/svg" xmlns:xlink="http://www.w3.org/1999/xlink" width="89" height="89" viewBox="0 0 89 89">
  <defs>
    <clipPath id="clip-path">
      <rect id="Rect치ngulo_401304" data-name="Rect치ngulo 401304" width="58.597" height="57.548" fill="none"/>
    </clipPath>
  </defs>
  <g id="Grupo_1099557" data-name="Grupo 1099557" transform="translate(-755.781 -3825)">
    <rect id="Rect치ngulo_400898" data-name="Rect치ngulo 400898" width="89" height="89" rx="44.5" transform="translate(755.781 3825)" fill="#c8d5c6"/>
    <g id="Grupo_1099560" data-name="Grupo 1099560" transform="translate(770.982 3838.726)">
      <g id="Grupo_1099559" data-name="Grupo 1099559" clip-path="url(#clip-path)">
        <path id="Trazado_873561" data-name="Trazado 873561" d="M70.727,92.092A15.556,15.556,0,1,1,86.283,76.536,15.573,15.573,0,0,1,70.727,92.092m0-29.367A13.812,13.812,0,1,0,84.539,76.536,13.827,13.827,0,0,0,70.727,62.725" transform="translate(-41.429 -45.791)" fill="#313332"/>
        <path id="Trazado_873562" data-name="Trazado 873562" d="M120.648,110.6a3.376,3.376,0,0,0-2.847,2.037,2.792,2.792,0,0,0,.979,3.267c.517.336,1.132.488,1.674.783,3.4,1.851-.624,6.155.267,7.59a1.2,1.2,0,0,0,1,.532,2.3,2.3,0,0,0,1.13-.309c4.652-2.543,6.424-8.734,5.592-10.687a2.039,2.039,0,0,0-.194-.345,3.092,3.092,0,0,0-1.881-1.184,6.621,6.621,0,0,0-1.405-.142,1.629,1.629,0,0,1-.89-.2c-.275-.177-.509-.414-.78-.6a4.464,4.464,0,0,0-1.165-.566,3.881,3.881,0,0,0-1.478-.173" transform="translate(-88.321 -83.042)" fill="#e9bd68"/>
        <path id="Trazado_873563" data-name="Trazado 873563" d="M119.112,123.053h-.053a2.077,2.077,0,0,1-1.722-.944c-.556-.9-.124-2.053.334-3.277.846-2.26.994-3.316-.276-4.007a6.382,6.382,0,0,0-.646-.288,6.264,6.264,0,0,1-1.087-.529,3.639,3.639,0,0,1-1.317-4.313,4.255,4.255,0,0,1,3.588-2.591,4.711,4.711,0,0,1,1.812.21,5.338,5.338,0,0,1,1.392.676c.162.11.306.228.433.333a3.789,3.789,0,0,0,.331.254.994.994,0,0,0,.432.066,7.473,7.473,0,0,1,1.589.165,3.935,3.935,0,0,1,2.4,1.543,2.923,2.923,0,0,1,.275.493c.984,2.308-.91,9.025-5.976,11.794a3.148,3.148,0,0,1-1.514.416m-.805-14.222c-.077,0-.153,0-.229.009a2.514,2.514,0,0,0-2.107,1.483,1.918,1.918,0,0,0,.641,2.221,4.78,4.78,0,0,0,.792.375,7.86,7.86,0,0,1,.824.372c2.806,1.526,1.723,4.421,1.077,6.15a5.3,5.3,0,0,0-.478,1.761.366.366,0,0,0,.267.1,1.428,1.428,0,0,0,.7-.2c4.194-2.292,5.864-8.041,5.208-9.58a1.183,1.183,0,0,0-.113-.2,2.214,2.214,0,0,0-1.359-.826,5.871,5.871,0,0,0-1.221-.12,2.435,2.435,0,0,1-1.348-.343,5.225,5.225,0,0,1-.5-.374c-.107-.088-.208-.171-.3-.235a3.6,3.6,0,0,0-.937-.456,3.055,3.055,0,0,0-.916-.145m-.3-.859h0Z" transform="translate(-85.679 -80.412)" fill="#313332"/>
        <path id="Trazado_873564" data-name="Trazado 873564" d="M80.958,130.3a1.281,1.281,0,0,0-.708-.984c-.823-.419-1.6-.419-2.209-.965-.788-.7-1.986-2.946-3.972-2.6a2.2,2.2,0,0,0-1.655,1.119,3.57,3.57,0,0,0-.231,2.065,8.859,8.859,0,0,0,.632,2.164c.21.5.456.991.693,1.484a3.821,3.821,0,0,1,.137.529c.075.231.169.455.239.688.094.314.171.634.236.956.072.353.131.709.186,1.065q.038.248.074.5.018.126.037.251a1.035,1.035,0,0,0,.024.164,14.676,14.676,0,0,0,3.031,1.824,2.99,2.99,0,0,1-.6-1.818,3.033,3.033,0,0,1,1.2-1.6,10.261,10.261,0,0,0,2.75-4.1,1.755,1.755,0,0,0,.142-.737" transform="translate(-54.163 -94.399)" fill="#e9bd68"/>
        <path id="Trazado_873565" data-name="Trazado 873565" d="M74.846,136.8a.869.869,0,0,1-.356-.076,15.564,15.564,0,0,1-3.212-1.932.979.979,0,0,1-.354-.746l-.034-.229c-.024-.166-.049-.33-.074-.493-.064-.416-.119-.732-.178-1.023-.066-.325-.137-.613-.217-.88-.033-.112-.074-.223-.115-.333s-.081-.223-.118-.337a2.489,2.489,0,0,1-.079-.33.78.78,0,0,0-.021-.1l-.147-.3c-.189-.389-.384-.791-.559-1.209a9.717,9.717,0,0,1-.69-2.378,4.387,4.387,0,0,1,.312-2.57,3.045,3.045,0,0,1,2.289-1.6c2.024-.351,3.373,1.262,4.179,2.226a6.567,6.567,0,0,0,.522.584,2.452,2.452,0,0,0,.923.418,6.684,6.684,0,0,1,1.1.422A2.139,2.139,0,0,1,79.2,127.6a2.554,2.554,0,0,1-.191,1.109,11.119,11.119,0,0,1-2.984,4.447l-.138.124c-.361.323-.734.657-.781.962a2.191,2.191,0,0,0,.419,1.114l.083.148a.872.872,0,0,1-.762,1.3m-2.221-3.174q.361.267.738.51c0-.052.01-.105.019-.159a3.46,3.46,0,0,1,1.342-2l.13-.117a9.368,9.368,0,0,0,2.515-3.747,1.322,1.322,0,0,0,.093-.365h0a.424.424,0,0,0-.235-.283,5.183,5.183,0,0,0-.828-.311,3.943,3.943,0,0,1-1.565-.781,7.393,7.393,0,0,1-.7-.768c-.855-1.023-1.586-1.79-2.543-1.626a1.4,1.4,0,0,0-1.021.643,2.706,2.706,0,0,0-.151,1.56,8.014,8.014,0,0,0,.573,1.95c.156.373.332.736.518,1.12l.156.322a1.977,1.977,0,0,1,.159.53.813.813,0,0,0,.023.108c.03.093.064.184.1.275.052.142.1.285.147.43.1.318.179.655.256,1.032.065.32.125.662.193,1.107.026.168.051.335.075.5Z" transform="translate(-51.536 -91.77)" fill="#313332"/>
        <path id="Trazado_873566" data-name="Trazado 873566" d="M69.367,69.787a3.109,3.109,0,0,0,.8-.456,1.2,1.2,0,0,0-.28-1.7,1.885,1.885,0,0,0-.369-.222,14.7,14.7,0,0,0-9.853,11.255c.3.1.6.2.908.284a.727.727,0,0,0,.264.036,3.756,3.756,0,0,1,.382.008c.257,0,.514,0,.77-.014a3.986,3.986,0,0,0,1.464-.337c.064-.03.127-.063.188-.1a4.282,4.282,0,0,0,1.5-1.672c.375-.658.492-1.557,1.125-1.972,1.431-.937,2.942-.19,2.782-3.141-.02-.377-.106-.881-.165-1.254a.775.775,0,0,1,.485-.722" transform="translate(-44.805 -50.621)" fill="#e9bd68"/>
        <path id="Trazado_873567" data-name="Trazado 873567" d="M58.807,77.241l-.226,0c-.055,0-.111,0-.168-.007a.93.93,0,0,0-.126,0,1.564,1.564,0,0,1-.56-.061c-.291-.076-.6-.173-.975-.3a.872.872,0,0,1-.568-.982A15.537,15.537,0,0,1,66.621,63.956a.874.874,0,0,1,.638.037,2.774,2.774,0,0,1,.538.325,2.265,2.265,0,0,1,.858,1.612,1.774,1.774,0,0,1-.49,1.383,2.5,2.5,0,0,1-.81.517c-.068.031-.137.061-.2.1l-.007,0c.057.361.125.8.145,1.157.139,2.569-.9,3.106-2.178,3.5a3.8,3.8,0,0,0-1,.416,1.97,1.97,0,0,0-.475.851,6.126,6.126,0,0,1-.37.823,5.165,5.165,0,0,1-1.822,2q-.122.07-.248.13a4.807,4.807,0,0,1-1.782.419c-.187.012-.384.017-.611.017m-.5-1.757c.076,0,.145,0,.206.007l.1,0c.281,0,.5,0,.7-.012a3.128,3.128,0,0,0,1.145-.254c.045-.021.087-.044.13-.068a3.412,3.412,0,0,0,1.172-1.346,4.834,4.834,0,0,0,.262-.6,3.239,3.239,0,0,1,1.143-1.674,5.407,5.407,0,0,1,1.435-.623c.812-.252,1.031-.32.954-1.741-.015-.287-.081-.7-.134-1.028l-.022-.137a1.592,1.592,0,0,1,.933-1.625c.1-.054.205-.1.311-.15a1.47,1.47,0,0,0,.283-.149.511.511,0,0,0-.138-.347,13.794,13.794,0,0,0-8.723,9.705l.112.03.025.006c.037,0,.074,0,.109,0" transform="translate(-42.177 -47.993)" fill="#313332"/>
        <path id="Trazado_873568" data-name="Trazado 873568" d="M119.137,65.468a2.067,2.067,0,0,1,.11.336,2.169,2.169,0,0,1-.419,1.805,7.989,7.989,0,0,1-1.425,1.139,3.2,3.2,0,0,0-1.336,2.557,2,2,0,0,0,1.889,1.932c.914-.034,1.611-.808,2.454-1.164a2.874,2.874,0,0,1,3.322.909c.385.519.665,1.229,1.3,1.372a4.727,4.727,0,0,0,1.3-.143,3.405,3.405,0,0,1,1.947.807,2.354,2.354,0,0,0,2,.507,1.261,1.261,0,0,0,.169-.078,14.7,14.7,0,0,0-11.308-9.98" transform="translate(-87.153 -49.16)" fill="#e9bd68"/>
        <path id="Trazado_873569" data-name="Trazado 873569" d="M127.179,73.852a3.805,3.805,0,0,1-2.013-.733l-.125-.082a2.565,2.565,0,0,0-1.293-.584,2.505,2.505,0,0,0-.357.064,2.589,2.589,0,0,1-1.184.059,2.629,2.629,0,0,1-1.571-1.356c-.081-.127-.157-.247-.231-.347a2.016,2.016,0,0,0-2.284-.625,5.249,5.249,0,0,0-.756.434,3.926,3.926,0,0,1-2,.8l-.084,0a2.887,2.887,0,0,1-2.709-2.764,4.042,4.042,0,0,1,1.67-3.284c.174-.136.348-.255.516-.371a3.632,3.632,0,0,0,.766-.627,1.293,1.293,0,0,0,.248-1.068,1.261,1.261,0,0,0-.065-.194.872.872,0,0,1,.965-1.19,15.515,15.515,0,0,1,11.98,10.573.872.872,0,0,1-.416,1.031,2.117,2.117,0,0,1-.285.13,2.226,2.226,0,0,1-.768.136m-3.389-3.143a4.067,4.067,0,0,1,2.213.874l.12.079a4.565,4.565,0,0,0,.434.255,13.768,13.768,0,0,0-9.033-7.949,3.03,3.03,0,0,1-.643,1.56,5.05,5.05,0,0,1-1.139.972c-.153.105-.3.2-.429.307a2.346,2.346,0,0,0-1,1.83,1.131,1.131,0,0,0,.986,1.1,2.55,2.55,0,0,0,1.123-.519,6.6,6.6,0,0,1,1.024-.576,3.747,3.747,0,0,1,4.361,1.193c.112.15.208.3.3.45.151.238.358.563.486.592a1.477,1.477,0,0,0,.418-.06,3.874,3.874,0,0,1,.636-.1c.048,0,.1,0,.143,0" transform="translate(-84.525 -46.532)" fill="#313332"/>
        <path id="Trazado_873570" data-name="Trazado 873570" d="M185.757,135.458c-1.536,3.7-.706,7.7,1.793,9.927,3.338.2,6.762-2.038,8.3-5.736s.706-7.7-1.793-9.927h0c-3.338-.2-6.762,2.038-8.3,5.736" transform="translate(-138.905 -97.399)" fill="#e9bd68"/>
        <path id="Trazado_873571" data-name="Trazado 873571" d="M185.33,143.641c-.162,0-.323,0-.485-.014a.873.873,0,0,1-.527-.219c-2.861-2.545-3.672-6.931-2.018-10.913s5.328-6.5,9.156-6.272a.873.873,0,0,1,.527.219c2.861,2.546,3.672,6.931,2.018,10.913a9.691,9.691,0,0,1-8.671,6.287m-.075-1.744a8.5,8.5,0,0,0,5.791-13.944,8.5,8.5,0,0,0-5.791,13.944m-2.15-9.068h0Z" transform="translate(-136.252 -94.77)" fill="#313332"/>
        <path id="Trazado_873572" data-name="Trazado 873572" d="M14.4,135.458c1.536,3.7.706,7.7-1.793,9.927-3.338.2-6.762-2.038-8.3-5.736s-.705-7.7,1.793-9.927h0c3.338-.2,6.762,2.038,8.3,5.736" transform="translate(-2.653 -97.399)" fill="#e9bd68"/>
        <path id="Trazado_873573" data-name="Trazado 873573" d="M9.519,143.641a9.691,9.691,0,0,1-8.671-6.287c-1.654-3.982-.842-8.368,2.019-10.913a.873.873,0,0,1,.527-.219c3.825-.228,7.5,2.29,9.156,6.272h0c1.654,3.982.843,8.368-2.018,10.913a.873.873,0,0,1-.527.219q-.243.015-.485.014M3.8,127.953a8.046,8.046,0,0,0-1.345,8.733A8.033,8.033,0,0,0,9.594,141.9a8.048,8.048,0,0,0,1.345-8.733h0a8.062,8.062,0,0,0-7.078-5.211H3.8" transform="translate(0 -94.77)" fill="#313332"/>
        <path id="Trazado_873574" data-name="Trazado 873574" d="M93.853,14.428c4,.081,7.432-2.153,8.59-5.29-1.03-3.181-4.364-5.553-8.368-5.634s-7.432,2.153-8.59,5.29c1.03,3.181,4.364,5.553,8.368,5.635" transform="translate(-64.191 -2.629)" fill="#e9bd68"/>
        <path id="Trazado_873575" data-name="Trazado 873575" d="M91.439,12.673l-.233,0c-4.311-.088-8-2.594-9.179-6.238a.871.871,0,0,1,.011-.57C83.365,2.27,87.153-.089,91.464,0s8,2.595,9.179,6.238a.872.872,0,0,1-.012.571,9.568,9.568,0,0,1-9.193,5.862m-7.652-6.49a8.5,8.5,0,0,0,15.1.307,8.5,8.5,0,0,0-15.1-.307" transform="translate(-61.563 0)" fill="#313332"/>
        <path id="Trazado_873576" data-name="Trazado 873576" d="M177.787,67.848a.872.872,0,0,1-.757-1.3,25.027,25.027,0,0,0-8.821-33.8.872.872,0,0,1,.9-1.492,26.771,26.771,0,0,1,9.433,36.156.871.871,0,0,1-.758.44" transform="translate(-125.993 -23.373)" fill="#313332"/>
        <path id="Trazado_873577" data-name="Trazado 873577" d="M12.19,40.043a.858.858,0,0,1-.128-.009.872.872,0,0,1-.736-.989A26.786,26.786,0,0,1,42.936,16.7a.872.872,0,0,1-.333,1.712A25.024,25.024,0,0,0,13.052,39.3a.872.872,0,0,1-.862.745" transform="translate(-8.498 -12.172)" fill="#313332"/>
        <path id="Trazado_873578" data-name="Trazado 873578" d="M40.059,169.573a26.514,26.514,0,0,1-16.2-5.461A26.949,26.949,0,0,1,14.365,150.3a.872.872,0,1,1,1.674-.487,25.2,25.2,0,0,0,8.876,12.911,25.018,25.018,0,0,0,30.46-.133.872.872,0,0,1,1.069,1.378,26.5,26.5,0,0,1-16.385,5.6" transform="translate(-10.76 -112.025)" fill="#313332"/>
      </g>
    </g>
  </g>
</svg>
