<svg xmlns="http://www.w3.org/2000/svg" xmlns:xlink="http://www.w3.org/1999/xlink" width="109" height="109" viewBox="0 0 109 109">
  <defs>
    <clipPath id="clip-path">
      <rect id="Rectángulo_401318" data-name="Rectángulo 401318" width="67.949" height="65.687" fill="none"/>
    </clipPath>
  </defs>
  <g id="Grupo_1099569" data-name="Grupo 1099569" transform="translate(-1038.051 -463)">
    <circle id="Elipse_11501" data-name="Elipse 11501" cx="54.5" cy="54.5" r="54.5" transform="translate(1038.051 463)" fill="#fff"/>
    <g id="Grupo_1099568" data-name="Grupo 1099568" transform="translate(1059.051 481.329)">
      <g id="Grupo_1099567" data-name="Grupo 1099567" clip-path="url(#clip-path)">
        <path id="Trazado_873634" data-name="Trazado 873634" d="M72.684,365.148v3.4a1.136,1.136,0,0,1-1.132,1.132H8.132A1.136,1.136,0,0,1,7,368.546v-3.4a1.136,1.136,0,0,1,1.132-1.132H71.552a1.136,1.136,0,0,1,1.132,1.132" transform="translate(-5.868 -305.124)" fill="#769671"/>
        <path id="Trazado_873635" data-name="Trazado 873635" d="M65.684,364.942H2.265A2.267,2.267,0,0,1,0,362.677v-3.4a2.268,2.268,0,0,1,2.265-2.265H65.684a2.268,2.268,0,0,1,2.265,2.265v3.4a2.267,2.267,0,0,1-2.265,2.265m0-5.663H2.265v3.4H65.684Z" transform="translate(0 -299.256)" fill="#3a4d69"/>
        <path id="Trazado_873636" data-name="Trazado 873636" d="M72.684,134.148v3.4a1.136,1.136,0,0,1-1.132,1.132H8.132A1.136,1.136,0,0,1,7,137.546v-3.4a1.136,1.136,0,0,1,1.132-1.132H71.552a1.136,1.136,0,0,1,1.132,1.132" transform="translate(-5.868 -111.496)" fill="#769671"/>
        <path id="Trazado_873637" data-name="Trazado 873637" d="M65.684,133.943H2.265A2.267,2.267,0,0,1,0,131.678v-3.4a2.268,2.268,0,0,1,2.265-2.265H65.684a2.268,2.268,0,0,1,2.265,2.265v3.4a2.267,2.267,0,0,1-2.265,2.265m0-5.663H2.265v3.4H65.684Z" transform="translate(0 -105.629)" fill="#3a4d69"/>
        <path id="Trazado_873638" data-name="Trazado 873638" d="M80.4,218.461a1.132,1.132,0,0,1-1.132-1.132v-3.4A2.267,2.267,0,0,1,77,211.666V191.281a2.267,2.267,0,0,1,2.265-2.265,1.132,1.132,0,1,1,0,2.265h0v20.385a2.267,2.267,0,0,1,2.265,2.265v3.4a1.132,1.132,0,0,1-1.132,1.132" transform="translate(-64.543 -158.436)" fill="#3a4d69"/>
        <path id="Trazado_873639" data-name="Trazado 873639" d="M22.132,218.461A1.132,1.132,0,0,1,21,217.328v-3.4a2.267,2.267,0,0,1,2.265-2.265V191.281a1.132,1.132,0,0,1,0-2.265,2.267,2.267,0,0,1,2.265,2.265v20.385a2.267,2.267,0,0,1-2.265,2.265v3.4a1.132,1.132,0,0,1-1.132,1.132" transform="translate(-17.603 -158.436)" fill="#3a4d69"/>
        <path id="Trazado_873640" data-name="Trazado 873640" d="M227.4,218.461a1.133,1.133,0,0,1-1.133-1.132v-3.4A2.267,2.267,0,0,1,224,211.666V191.281a2.267,2.267,0,0,1,2.265-2.265,1.132,1.132,0,1,1,0,2.265h0v20.385a2.267,2.267,0,0,1,2.265,2.265v3.4a1.132,1.132,0,0,1-1.132,1.132" transform="translate(-187.76 -158.436)" fill="#3a4d69"/>
        <path id="Trazado_873641" data-name="Trazado 873641" d="M169.132,218.461A1.132,1.132,0,0,1,168,217.328v-3.4a2.267,2.267,0,0,1,2.265-2.265V191.281a1.132,1.132,0,1,1,0-2.265,2.267,2.267,0,0,1,2.265,2.265v20.385a2.267,2.267,0,0,1-2.265,2.265v3.4a1.132,1.132,0,0,1-1.132,1.132" transform="translate(-140.82 -158.436)" fill="#3a4d69"/>
        <path id="Trazado_873642" data-name="Trazado 873642" d="M374.4,218.461a1.132,1.132,0,0,1-1.132-1.132v-3.4A2.267,2.267,0,0,1,371,211.666V191.281a2.267,2.267,0,0,1,2.265-2.265,1.132,1.132,0,0,1,0,2.265h0v20.385a2.267,2.267,0,0,1,2.265,2.265v3.4a1.132,1.132,0,0,1-1.132,1.132" transform="translate(-310.978 -158.436)" fill="#3a4d69"/>
        <path id="Trazado_873643" data-name="Trazado 873643" d="M316.132,218.461A1.132,1.132,0,0,1,315,217.328v-3.4a2.267,2.267,0,0,1,2.265-2.265V191.281a1.132,1.132,0,1,1,0-2.265,2.267,2.267,0,0,1,2.265,2.265v20.385a2.267,2.267,0,0,1-2.265,2.265v3.4a1.133,1.133,0,0,1-1.133,1.132" transform="translate(-264.038 -158.436)" fill="#3a4d69"/>
        <path id="Trazado_873644" data-name="Trazado 873644" d="M15.133,18.125H15.1A1.133,1.133,0,0,1,14,16.963a3.418,3.418,0,0,1,1.93-2.988L44.233.344a3.341,3.341,0,0,1,2.961,0L75.5,13.979a3.414,3.414,0,0,1,1.92,2.983,1.132,1.132,0,1,1-2.264.06,1.136,1.136,0,0,0-.63-1L46.2,2.385a1.1,1.1,0,0,0-.98,0L16.9,16.02a1.139,1.139,0,0,0-.639,1,1.132,1.132,0,0,1-1.132,1.1" transform="translate(-11.735 0)" fill="#3a4d69"/>
        <path id="Trazado_873645" data-name="Trazado 873645" d="M195.795,52.413a3.4,3.4,0,1,1-3.4-3.4,3.393,3.393,0,0,1,3.4,3.4" transform="translate(-158.423 -41.086)" fill="#769671"/>
        <path id="Trazado_873646" data-name="Trazado 873646" d="M186.53,51.076a4.53,4.53,0,1,1,4.53-4.53,4.535,4.535,0,0,1-4.53,4.53m0-6.795a2.265,2.265,0,1,0,2.265,2.265,2.267,2.267,0,0,0-2.265-2.265" transform="translate(-152.555 -35.218)" fill="#3a4d69"/>
      </g>
    </g>
  </g>
</svg>
