<svg xmlns="http://www.w3.org/2000/svg" xmlns:xlink="http://www.w3.org/1999/xlink" width="89" height="89" viewBox="0 0 89 89">
  <defs>
    <clipPath id="clip-path">
      <rect id="Rect치ngulo_401305" data-name="Rect치ngulo 401305" width="60.039" height="58.39" fill="none"/>
    </clipPath>
  </defs>
  <g id="Grupo_1099558" data-name="Grupo 1099558" transform="translate(-1176.781 -3825)">
    <rect id="Rect치ngulo_400898" data-name="Rect치ngulo 400898" width="89" height="89" rx="44.5" transform="translate(1176.781 3825)" fill="#c8d5c6"/>
    <g id="Grupo_1099562" data-name="Grupo 1099562" transform="translate(1192.262 3839.305)">
      <g id="Grupo_1099561" data-name="Grupo 1099561" clip-path="url(#clip-path)">
        <path id="Trazado_873579" data-name="Trazado 873579" d="M59.713,208.5H45a1.2,1.2,0,0,1-1.2-1.2v-4.029a1.2,1.2,0,0,1,1.2-1.2h14.71a1.2,1.2,0,0,1,1.2,1.2v4.029a1.2,1.2,0,0,1-1.2,1.2" transform="translate(-32.729 -150.991)" fill="#31d330"/>
        <path id="Trazado_873580" data-name="Trazado 873580" d="M57.1,206.766H42.388a2.091,2.091,0,0,1-2.089-2.089v-4.029a2.091,2.091,0,0,1,2.089-2.089H57.1a2.091,2.091,0,0,1,2.089,2.089v4.029a2.091,2.091,0,0,1-2.089,2.089m-14.71-6.437a.32.32,0,0,0-.319.319v4.029a.32.32,0,0,0,.319.319H57.1a.32.32,0,0,0,.319-.319v-4.029a.319.319,0,0,0-.319-.319Z" transform="translate(-30.114 -148.376)" fill="#313332"/>
        <path id="Trazado_873581" data-name="Trazado 873581" d="M48.081,127.4a.885.885,0,0,1-.885-.885v-3.535l-.129-6.391a7.974,7.974,0,0,0-6.369-7.632,5.4,5.4,0,0,1-2.776-1.472L33.839,103.4a2.285,2.285,0,0,0-3.232,3.232l6.444,6.444a.884.884,0,0,1-1.251,1.251l-6.444-6.444a4.054,4.054,0,1,1,5.734-5.733l4.083,4.083a3.639,3.639,0,0,0,1.871.988,9.753,9.753,0,0,1,7.792,9.333l.129,6.407v3.553a.885.885,0,0,1-.885.885" transform="translate(-21.051 -75.448)" fill="#313332"/>
        <path id="Trazado_873582" data-name="Trazado 873582" d="M12.607,84.249a.885.885,0,0,1-.885-.885V80.4a.545.545,0,0,0-.16-.387L2.526,70.979A8.568,8.568,0,0,1,0,64.88V46.642a3.427,3.427,0,0,1,3.423-3.423,5.758,5.758,0,0,1,5.758,5.774c-.01,3.613-.012,10.569.014,11.12a.885.885,0,0,1-1.748.262c-.063-.318-.04-9.541-.035-11.386a3.988,3.988,0,0,0-3.989-4,1.656,1.656,0,0,0-1.654,1.654V64.88a6.813,6.813,0,0,0,2.008,4.848l9.036,9.036a2.3,2.3,0,0,1,.678,1.637v2.963a.885.885,0,0,1-.885.885" transform="translate(0 -32.296)" fill="#313332"/>
        <path id="Trazado_873583" data-name="Trazado 873583" d="M59.713,208.5H45a1.2,1.2,0,0,1-1.2-1.2v-4.029a1.2,1.2,0,0,1,1.2-1.2h14.71a1.2,1.2,0,0,1,1.2,1.2v4.029a1.2,1.2,0,0,1-1.2,1.2" transform="translate(-32.729 -150.991)" fill="#e9bd68"/>
        <path id="Trazado_873584" data-name="Trazado 873584" d="M57.1,206.766H42.388a2.091,2.091,0,0,1-2.089-2.089v-4.029a2.091,2.091,0,0,1,2.089-2.089H57.1a2.091,2.091,0,0,1,2.089,2.089v4.029a2.091,2.091,0,0,1-2.089,2.089m-14.71-6.437a.32.32,0,0,0-.319.319v4.029a.32.32,0,0,0,.319.319H57.1a.32.32,0,0,0,.319-.319v-4.029a.319.319,0,0,0-.319-.319Z" transform="translate(-30.114 -148.376)" fill="#313332"/>
        <path id="Trazado_873585" data-name="Trazado 873585" d="M127.229,208.5h14.71a1.2,1.2,0,0,0,1.2-1.2v-4.029a1.2,1.2,0,0,0-1.2-1.2h-14.71a1.2,1.2,0,0,0-1.2,1.2v4.029a1.2,1.2,0,0,0,1.2,1.2" transform="translate(-94.173 -150.991)" fill="#31d330"/>
        <path id="Trazado_873586" data-name="Trazado 873586" d="M139.323,206.766h-14.71a2.091,2.091,0,0,1-2.088-2.089v-4.029a2.091,2.091,0,0,1,2.089-2.089h14.71a2.091,2.091,0,0,1,2.089,2.089v4.029a2.091,2.091,0,0,1-2.089,2.089m-14.71-6.437a.32.32,0,0,0-.319.319v4.029a.32.32,0,0,0,.319.319h14.71a.32.32,0,0,0,.319-.319v-4.029a.32.32,0,0,0-.319-.319Z" transform="translate(-91.557 -148.376)" fill="#313332"/>
        <path id="Trazado_873587" data-name="Trazado 873587" d="M127.99,127.4a.885.885,0,0,1-.885-.885v-3.535l.13-6.427a9.753,9.753,0,0,1,7.792-9.332,3.638,3.638,0,0,0,1.871-.988l4.083-4.083a4.054,4.054,0,0,1,5.734,5.733l-6.444,6.444a.884.884,0,0,1-1.251-1.251l6.444-6.444a2.285,2.285,0,0,0-3.232-3.232l-4.084,4.083a5.4,5.4,0,0,1-2.775,1.472,7.973,7.973,0,0,0-6.37,7.631l-.129,6.41v3.518a.885.885,0,0,1-.885.885" transform="translate(-94.98 -75.448)" fill="#313332"/>
        <path id="Trazado_873588" data-name="Trazado 873588" d="M185.022,84.249a.885.885,0,0,1-.885-.885V80.3a2.039,2.039,0,0,1,.6-1.451l9.122-9.122a6.813,6.813,0,0,0,2.008-4.848V46.642a1.656,1.656,0,0,0-1.654-1.654,3.988,3.988,0,0,0-3.989,4L190.208,60.2a.885.885,0,0,1-.885.883h0a.885.885,0,0,1-.883-.886l.018-11.211a5.758,5.758,0,0,1,5.758-5.77,3.427,3.427,0,0,1,3.423,3.423V64.88a8.569,8.569,0,0,1-2.526,6.1L185.989,80.1a.281.281,0,0,0-.083.2v3.063a.885.885,0,0,1-.885.885" transform="translate(-137.598 -32.296)" fill="#313332"/>
        <path id="Trazado_873589" data-name="Trazado 873589" d="M127.229,208.5h14.71a1.2,1.2,0,0,0,1.2-1.2v-4.029a1.2,1.2,0,0,0-1.2-1.2h-14.71a1.2,1.2,0,0,0-1.2,1.2v4.029a1.2,1.2,0,0,0,1.2,1.2" transform="translate(-94.173 -150.991)" fill="#e9bd68"/>
        <path id="Trazado_873590" data-name="Trazado 873590" d="M139.323,206.766h-14.71a2.091,2.091,0,0,1-2.088-2.089v-4.029a2.091,2.091,0,0,1,2.089-2.089h14.71a2.091,2.091,0,0,1,2.089,2.089v4.029a2.091,2.091,0,0,1-2.089,2.089m-14.71-6.437a.32.32,0,0,0-.319.319v4.029a.32.32,0,0,0,.319.319h14.71a.32.32,0,0,0,.319-.319v-4.029a.32.32,0,0,0-.319-.319Z" transform="translate(-91.557 -148.376)" fill="#313332"/>
        <path id="Trazado_873591" data-name="Trazado 873591" d="M100.349,18.613a9.418,9.418,0,1,1-18.836,0c0-5.2,4.216-15.113,9.418-15.113s9.418,9.912,9.418,15.113" transform="translate(-60.911 -2.615)" fill="#e9bd68"/>
        <path id="Trazado_873592" data-name="Trazado 873592" d="M88.315,26.3A10.314,10.314,0,0,1,78.012,16c0-5.476,4.351-16,10.3-16s10.3,10.522,10.3,16a10.314,10.314,0,0,1-10.3,10.3m0-24.531c-4.317,0-8.534,9-8.534,14.229a8.534,8.534,0,1,0,17.067,0c0-5.226-4.217-14.229-8.534-14.229" transform="translate(-58.295)" fill="#313332"/>
        <path id="Trazado_873593" data-name="Trazado 873593" d="M116.161,56.983a.885.885,0,0,1-.885-.885V33.623a.885.885,0,0,1,1.769,0V56.1a.885.885,0,0,1-.885.885" transform="translate(-86.141 -24.464)" fill="#313332"/>
        <path id="Trazado_873594" data-name="Trazado 873594" d="M103.657,54.333a.877.877,0,0,1-.407-.1l-4.229-2.2a.885.885,0,0,1,.816-1.57l4.228,2.2a.885.885,0,0,1-.409,1.67" transform="translate(-73.638 -37.635)" fill="#313332"/>
        <path id="Trazado_873595" data-name="Trazado 873595" d="M116.161,68.408a.885.885,0,0,1-.409-1.67l3.028-1.574a.885.885,0,0,1,.816,1.57l-3.028,1.574a.877.877,0,0,1-.407.1" transform="translate(-86.141 -48.619)" fill="#313332"/>
        <path id="Trazado_873596" data-name="Trazado 873596" d="M110.237,123.434h-6.056a.885.885,0,1,1,0-1.769h6.056a.885.885,0,0,1,0,1.769" transform="translate(-77.189 -90.915)" fill="#313332"/>
      </g>
    </g>
  </g>
</svg>
