<svg xmlns="http://www.w3.org/2000/svg" xmlns:xlink="http://www.w3.org/1999/xlink" width="89" height="89" viewBox="0 0 89 89">
  <defs>
    <clipPath id="clip-path">
      <rect id="Rect치ngulo_401337" data-name="Rect치ngulo 401337" width="68.854" height="58.028" fill="none"/>
    </clipPath>
  </defs>
  <g id="Grupo_1099605" data-name="Grupo 1099605" transform="translate(-765.781 -1777.178)">
    <rect id="Rect치ngulo_400898" data-name="Rect치ngulo 400898" width="89" height="89" rx="44.5" transform="translate(765.781 1777.178)" fill="#e9bd68"/>
    <g id="Grupo_1099615" data-name="Grupo 1099615" transform="translate(775.928 1790.408)">
      <g id="Grupo_1099615-2" data-name="Grupo 1099615" clip-path="url(#clip-path)">
        <path id="Trazado_873734" data-name="Trazado 873734" d="M52.423,192.06a.953.953,0,0,1-.953-.953v-5.982a.953.953,0,0,1,1.906,0v5.982a.953.953,0,0,1-.953.953" transform="translate(-37.457 -134.032)" fill="#313332"/>
        <path id="Trazado_873735" data-name="Trazado 873735" d="M43.072,208.052H31.9a.953.953,0,0,1,0-1.906H43.072a.953.953,0,0,1,0,1.906" transform="translate(-22.519 -150.024)" fill="#313332"/>
        <path id="Trazado_873736" data-name="Trazado 873736" d="M195.394,192.06a.953.953,0,0,1-.953-.953v-5.982a.953.953,0,0,1,1.906,0v5.982a.953.953,0,0,1-.953.953" transform="translate(-141.505 -134.032)" fill="#313332"/>
        <path id="Trazado_873737" data-name="Trazado 873737" d="M186.043,208.052H174.867a.953.953,0,0,1,0-1.906h11.176a.953.953,0,0,1,0,1.906" transform="translate(-126.567 -150.024)" fill="#313332"/>
        <path id="Trazado_873738" data-name="Trazado 873738" d="M96.44,31.084a17.189,17.189,0,1,1-34.379,0c0-9.493,7.7-27.584,17.189-27.584S96.44,21.59,96.44,31.084" transform="translate(-45.165 -2.547)" fill="#769671"/>
        <path id="Trazado_873739" data-name="Trazado 873739" d="M76.7,46.679A18.163,18.163,0,0,1,58.56,28.537c0-5.075,2.022-12.065,5.151-17.808C67.48,3.81,72.094,0,76.7,0s9.222,3.81,12.992,10.729c3.129,5.743,5.151,12.733,5.151,17.808A18.163,18.163,0,0,1,76.7,46.679m0-44.773c-3.822,0-7.947,3.548-11.318,9.735-2.942,5.4-4.919,12.19-4.919,16.9a16.237,16.237,0,0,0,32.473,0c0-4.707-1.977-11.5-4.919-16.9-3.371-6.187-7.5-9.735-11.318-9.735" transform="translate(-42.617 0)" fill="#313332"/>
        <path id="Trazado_873740" data-name="Trazado 873740" d="M171.573,77.982H144.3a1.329,1.329,0,0,1-1.161-1.975l4.677-8.4a.955.955,0,0,1,.249-.29,16.138,16.138,0,0,0,6.305-12.84,32.773,32.773,0,0,0-1.868-9.836.955.955,0,0,1,.071-.765l4.2-7.551a1.329,1.329,0,0,1,1.16-.683h0a1.329,1.329,0,0,1,1.161.683l6.936,12.463a1.328,1.328,0,0,1-1.161,1.975h-1.965L169.383,62.4a1.329,1.329,0,0,1-1.161,1.975h-1.965l6.476,11.637a1.329,1.329,0,0,1-1.161,1.975m-.5-1.048h0Zm-25.789-.857h25.312l-6.476-11.637a1.329,1.329,0,0,1,1.161-1.975h1.965l-6.476-11.637a1.329,1.329,0,0,1,1.161-1.975h1.965l-5.955-10.7-3.5,6.28a34.2,34.2,0,0,1,1.834,10.038A18.029,18.029,0,0,1,149.386,68.7Z" transform="translate(-104.047 -25.936)" fill="#313332"/>
        <path id="Trazado_873741" data-name="Trazado 873741" d="M28.6,77.982H1.328A1.329,1.329,0,0,1,.167,76.007L6.643,64.37H4.678a1.329,1.329,0,0,1-1.161-1.975L9.994,50.758H8.029a1.329,1.329,0,0,1-1.161-1.975L13.8,36.321a1.328,1.328,0,0,1,2.322,0l3.78,6.792a.954.954,0,0,1,.066.781,34.022,34.022,0,0,0-2.123,10.579,16.2,16.2,0,0,0,7.375,13.6.954.954,0,0,1,.312.335l4.228,7.6A1.329,1.329,0,0,1,28.6,77.982M2.309,76.076H27.621l-3.638-6.537a18.1,18.1,0,0,1-8.04-15.066,34.953,34.953,0,0,1,2.09-10.806l-3.068-5.512-5.955,10.7h1.965a1.329,1.329,0,0,1,1.161,1.975L5.66,62.464H7.625a1.329,1.329,0,0,1,1.161,1.975Z" transform="translate(0 -25.936)" fill="#313332"/>
        <path id="Trazado_873742" data-name="Trazado 873742" d="M122.652,98.4a.953.953,0,0,1-.953-.953V56.423a.953.953,0,0,1,1.906,0V97.444a.953.953,0,0,1-.953.953" transform="translate(-88.567 -40.369)" fill="#313332"/>
        <path id="Trazado_873743" data-name="Trazado 873743" d="M102.02,91.257a.948.948,0,0,1-.439-.108l-7.718-4.012a.953.953,0,1,1,.879-1.691l7.717,4.012a.953.953,0,0,1-.44,1.8" transform="translate(-67.936 -62.106)" fill="#313332"/>
        <path id="Trazado_873744" data-name="Trazado 873744" d="M122.652,115.023a.953.953,0,0,1-.44-1.8l5.527-2.873a.953.953,0,0,1,.879,1.691l-5.527,2.873a.948.948,0,0,1-.439.108" transform="translate(-88.567 -80.23)" fill="#313332"/>
        <path id="Trazado_873745" data-name="Trazado 873745" d="M113.405,208.052H102.352a.953.953,0,0,1,0-1.906h11.053a.953.953,0,0,1,0,1.906" transform="translate(-73.794 -150.024)" fill="#313332"/>
      </g>
    </g>
  </g>
</svg>
