<svg xmlns="http://www.w3.org/2000/svg" xmlns:xlink="http://www.w3.org/1999/xlink" width="89" height="89.178" viewBox="0 0 89 89.178">
  <defs>
    <clipPath id="clip-path">
      <rect id="Rectángulo_401339" data-name="Rectángulo 401339" width="70.268" height="38.531" fill="none"/>
    </clipPath>
  </defs>
  <g id="Grupo_1099608" data-name="Grupo 1099608" transform="translate(-765.781 -1777)">
    <rect id="Rectángulo_400898" data-name="Rectángulo 400898" width="89" height="89" rx="44.5" transform="translate(765.781 1777.178)" fill="#e9bd68"/>
    <g id="Grupo_1099382" data-name="Grupo 1099382">
      <rect id="Rectángulo_400907" data-name="Rectángulo 400907" width="89" height="89" rx="44.5" transform="translate(765.781 1777)" fill="none"/>
    </g>
    <g id="Grupo_1099619" data-name="Grupo 1099619" transform="translate(775.147 1802.412)">
      <g id="Grupo_1099618" data-name="Grupo 1099618" clip-path="url(#clip-path)">
        <path id="Trazado_873760" data-name="Trazado 873760" d="M16.6,47.037a13.1,13.1,0,1,0,13.1,13.1,13.1,13.1,0,0,0-13.1-13.1m0,22.567a9.471,9.471,0,1,1,9.471-9.471A9.471,9.471,0,0,1,16.6,69.6" transform="translate(-2.646 -35.554)" fill="#769671"/>
        <path id="Trazado_873761" data-name="Trazado 873761" d="M13.951,71.438A13.951,13.951,0,1,1,27.9,57.487,13.967,13.967,0,0,1,13.951,71.438m0-26.193A12.242,12.242,0,1,0,26.193,57.487,12.257,12.257,0,0,0,13.951,45.245m0,22.568A10.325,10.325,0,1,1,24.276,57.487,10.337,10.337,0,0,1,13.951,67.813m0-18.941a8.616,8.616,0,1,0,8.616,8.616,8.626,8.626,0,0,0-8.616-8.616" transform="translate(0 -32.907)" fill="#313332"/>
        <path id="Trazado_873762" data-name="Trazado 873762" d="M190.133,47.037a13.1,13.1,0,1,0,13.1,13.1,13.1,13.1,0,0,0-13.1-13.1m0,22.567a9.471,9.471,0,1,1,9.471-9.471,9.471,9.471,0,0,1-9.471,9.471" transform="translate(-133.816 -35.554)" fill="#769671"/>
        <path id="Trazado_873763" data-name="Trazado 873763" d="M187.487,71.438a13.951,13.951,0,1,1,13.951-13.951,13.967,13.967,0,0,1-13.951,13.951m0-26.193a12.242,12.242,0,1,0,12.242,12.242,12.257,12.257,0,0,0-12.242-12.242m0,22.568a10.325,10.325,0,1,1,10.325-10.325,10.337,10.337,0,0,1-10.325,10.325m0-18.941a8.616,8.616,0,1,0,8.616,8.616,8.626,8.626,0,0,0-8.616-8.616" transform="translate(-131.17 -32.907)" fill="#313332"/>
        <path id="Trazado_873764" data-name="Trazado 873764" d="M75.529,35.694H54.5a.854.854,0,0,1-.659-1.4l12.9-15.64V14.427a.854.854,0,1,1,1.709,0v3.681H89.213a.854.854,0,0,1,.647,1.412L76.188,35.383a.853.853,0,0,1-.264.214l-.027.013a.848.848,0,0,1-.368.084M56.313,33.985H74.147L67.42,20.521ZM68.979,19.817l6.74,13.492L87.348,19.817Z" transform="translate(-40.549 -10.259)" fill="#313332"/>
        <path id="Trazado_873765" data-name="Trazado 873765" d="M102.668,15.282H94.855a.854.854,0,0,1,0-1.709h7.812a.854.854,0,0,1,0,1.709" transform="translate(-71.052 -10.259)" fill="#313332"/>
        <path id="Trazado_873766" data-name="Trazado 873766" d="M193.94,25.434a.854.854,0,0,1-.77-.484L182.229,2.256A1.574,1.574,0,0,1,183.646,0h5.534a2.56,2.56,0,0,1,2.557,2.557V3.1a.854.854,0,1,1-1.709,0V2.556a.849.849,0,0,0-.848-.848h-5.318l10.846,22.5a.855.855,0,0,1-.769,1.226" transform="translate(-137.622 0.001)" fill="#313332"/>
      </g>
    </g>
  </g>
</svg>
