<svg xmlns="http://www.w3.org/2000/svg" xmlns:xlink="http://www.w3.org/1999/xlink" width="89" height="89.178" viewBox="0 0 89 89.178">
  <defs>
    <clipPath id="clip-path">
      <rect id="Rectángulo_401341" data-name="Rectángulo 401341" width="50.925" height="48.912" fill="none"/>
    </clipPath>
  </defs>
  <g id="Grupo_1099612" data-name="Grupo 1099612" transform="translate(-765.781 -1777)">
    <rect id="Rectángulo_400898" data-name="Rectángulo 400898" width="89" height="89" rx="44.5" transform="translate(765.781 1777.178)" fill="#e9bd68"/>
    <g id="Grupo_1099382" data-name="Grupo 1099382">
      <rect id="Rectángulo_400907" data-name="Rectángulo 400907" width="89" height="89" rx="44.5" transform="translate(765.781 1777)" fill="none"/>
    </g>
    <g id="Grupo_1099623" data-name="Grupo 1099623" transform="translate(785.372 1794.57)">
      <g id="Grupo_1099622" data-name="Grupo 1099622" clip-path="url(#clip-path)">
        <path id="Trazado_873799" data-name="Trazado 873799" d="M52.171,177.547a.78.78,0,0,1-.78-.78,4.757,4.757,0,1,0-9.514,0,.78.78,0,0,1-1.56,0,6.317,6.317,0,1,1,12.634,0,.78.78,0,0,1-.78.78" transform="translate(-31.332 -132.465)" fill="#313332"/>
        <path id="Trazado_873800" data-name="Trazado 873800" d="M36.907,112.3a5.759,5.759,0,0,0-6.18-2.348l0,0,0,.007-.008,0,0,0a6.1,6.1,0,0,0,6.6,8.946l0,0,0-.007.008,0,0,0a5.759,5.759,0,0,0-.417-6.6" transform="translate(-23.209 -85.285)" fill="#769671"/>
        <path id="Trazado_873801" data-name="Trazado 873801" d="M33.135,117.164a6.8,6.8,0,0,1-5.381-2.88,6.514,6.514,0,0,1-.474-7.441.78.78,0,0,1,.347-.329.788.788,0,0,1,.18-.064,6.888,6.888,0,0,1,7.452,10.089.806.806,0,0,1-.548.4,5.575,5.575,0,0,1-1.576.225m-4.669-9.275a5.379,5.379,0,0,0,5.608,7.605,5.379,5.379,0,0,0-5.608-7.605" transform="translate(-20.46 -82.548)" fill="#313332"/>
        <path id="Trazado_873802" data-name="Trazado 873802" d="M82.477,123.625a3.944,3.944,0,0,0,.586-4.49l0,0-.006,0,0-.005,0,0a4.18,4.18,0,0,0-4.917,5.812l0,0,.006,0,0,.005,0,0a3.945,3.945,0,0,0,4.33-1.322" transform="translate(-60.368 -92.413)" fill="#769671"/>
        <path id="Trazado_873803" data-name="Trazado 873803" d="M76.6,123.212a4.089,4.089,0,0,1-1.416-.25.8.8,0,0,1-.5-.433,4.965,4.965,0,0,1,5.851-6.887.8.8,0,0,1,.5.433,4.712,4.712,0,0,1-.7,5.318h0a4.955,4.955,0,0,1-3.731,1.818m-1.206-1h0Zm.549-.641a3.461,3.461,0,0,0,3.832-4.53,3.461,3.461,0,0,0-3.832,4.53m3.792-.677h0Z" transform="translate(-57.63 -89.678)" fill="#313332"/>
        <path id="Trazado_873804" data-name="Trazado 873804" d="M48.265,135.725a.78.78,0,0,1-.78-.78v-3.274L42.568,125a.78.78,0,0,1,1.256-.926l5.069,6.874a.78.78,0,0,1,.152.463v3.531a.78.78,0,0,1-.78.78" transform="translate(-32.963 -96.18)" fill="#313332"/>
        <path id="Trazado_873805" data-name="Trazado 873805" d="M65.942,146.4a.78.78,0,0,1-.6-1.278l2.326-2.8a.78.78,0,0,1,1.2,1l-2.326,2.8a.778.778,0,0,1-.6.281" transform="translate(-50.641 -110.389)" fill="#313332"/>
        <path id="Trazado_873806" data-name="Trazado 873806" d="M146.922,177.547a.78.78,0,0,1-.78-.78,4.757,4.757,0,1,0-9.514,0,.78.78,0,0,1-1.56,0,6.317,6.317,0,0,1,12.634,0,.78.78,0,0,1-.78.78" transform="translate(-104.968 -132.465)" fill="#313332"/>
        <path id="Trazado_873807" data-name="Trazado 873807" d="M131.659,112.3a5.759,5.759,0,0,0-6.18-2.348l0,0,0,.007-.008,0,0,0a6.1,6.1,0,0,0,6.6,8.946l0,0,0-.007.008,0,0,0a5.759,5.759,0,0,0-.417-6.6" transform="translate(-96.845 -85.285)" fill="#769671"/>
        <path id="Trazado_873808" data-name="Trazado 873808" d="M127.887,117.164a6.8,6.8,0,0,1-5.381-2.88,6.514,6.514,0,0,1-.474-7.441.78.78,0,0,1,.347-.329.788.788,0,0,1,.18-.064,6.888,6.888,0,0,1,7.452,10.088.8.8,0,0,1-.549.4,5.575,5.575,0,0,1-1.576.225m-4.669-9.275a5.379,5.379,0,0,0,5.608,7.605,5.379,5.379,0,0,0-5.608-7.605" transform="translate(-94.097 -82.548)" fill="#313332"/>
        <path id="Trazado_873809" data-name="Trazado 873809" d="M177.229,123.625a3.944,3.944,0,0,0,.586-4.49l0,0-.006,0,0-.005,0,0a4.18,4.18,0,0,0-4.917,5.812l0,0,.006,0,0,.005,0,0a3.945,3.945,0,0,0,4.331-1.322" transform="translate(-134.005 -92.413)" fill="#769671"/>
        <path id="Trazado_873810" data-name="Trazado 873810" d="M171.355,123.213a4.089,4.089,0,0,1-1.417-.249.8.8,0,0,1-.5-.433,4.965,4.965,0,0,1,5.852-6.887.8.8,0,0,1,.5.433,4.712,4.712,0,0,1-.7,5.318,4.954,4.954,0,0,1-3.731,1.818m-1.206-1h0Zm.549-.641a3.461,3.461,0,0,0,3.832-4.53,3.461,3.461,0,0,0-3.832,4.53" transform="translate(-131.266 -89.679)" fill="#313332"/>
        <path id="Trazado_873811" data-name="Trazado 873811" d="M143.016,135.724a.78.78,0,0,1-.78-.78V131.67L137.32,125a.78.78,0,1,1,1.255-.926l5.069,6.874a.78.78,0,0,1,.152.463v3.531a.78.78,0,0,1-.78.78" transform="translate(-106.6 -96.18)" fill="#313332"/>
        <path id="Trazado_873812" data-name="Trazado 873812" d="M160.693,146.4a.78.78,0,0,1-.6-1.278l2.326-2.8a.78.78,0,1,1,1.2,1l-2.326,2.8a.778.778,0,0,1-.6.281" transform="translate(-124.277 -110.388)" fill="#313332"/>
        <path id="Trazado_873813" data-name="Trazado 873813" d="M50.145,48.912H.78a.78.78,0,0,1-.78-.78V21.649A21.674,21.674,0,0,1,21.649,0h7.625a21.674,21.674,0,0,1,21.65,21.649V48.132a.78.78,0,0,1-.78.78M1.56,47.352h47.8v-25.7A20.112,20.112,0,0,0,29.275,1.56H21.649A20.112,20.112,0,0,0,1.56,21.649Z" fill="#313332"/>
        <path id="Trazado_873814" data-name="Trazado 873814" d="M50.145,200.686H.78a.78.78,0,0,1-.78-.78v-3.83a.78.78,0,0,1,.78-.78H50.145a.78.78,0,0,1,.78.78v3.83a.78.78,0,0,1-.78.78M1.56,199.126h47.8v-2.27H1.56Z" transform="translate(0 -151.774)" fill="#313332"/>
        <path id="Trazado_873815" data-name="Trazado 873815" d="M101.045,11.077h0a3.788,3.788,0,0,1-3.788-3.788V3.5h7.577V7.288a3.788,3.788,0,0,1-3.788,3.788" transform="translate(-75.583 -2.72)" fill="#769671"/>
        <path id="Trazado_873816" data-name="Trazado 873816" d="M98.325,9.137a4.574,4.574,0,0,1-4.568-4.568V.78a.78.78,0,0,1,.78-.78h7.577a.78.78,0,0,1,.78.78V4.568a4.574,4.574,0,0,1-4.568,4.568M95.317,1.56V4.568a3.008,3.008,0,0,0,6.017,0V1.56Z" transform="translate(-72.863)" fill="#313332"/>
        <path id="Trazado_873817" data-name="Trazado 873817" d="M92.386,47.081a.78.78,0,0,1-.63-1.239l.8-1.105a.78.78,0,1,1,1.261.918l-.8,1.105a.779.779,0,0,1-.631.321" transform="translate(-71.192 -34.517)" fill="#313332"/>
        <path id="Trazado_873818" data-name="Trazado 873818" d="M79.079,63.551a.78.78,0,0,1-.63-1.239l1.183-1.625a.78.78,0,1,1,1.261.918L79.71,63.23a.779.779,0,0,1-.631.321" transform="translate(-60.851 -46.914)" fill="#313332"/>
        <path id="Trazado_873819" data-name="Trazado 873819" d="M67.444,81.353a.78.78,0,0,1-.63-1.239l.8-1.105a.78.78,0,1,1,1.261.918l-.8,1.105a.779.779,0,0,1-.631.321" transform="translate(-51.808 -61.152)" fill="#313332"/>
        <path id="Trazado_873820" data-name="Trazado 873820" d="M78.153,34.314a.78.78,0,0,1-.468-1.4l1.095-.818a.78.78,0,1,1,.934,1.25l-1.095.818a.778.778,0,0,1-.466.155" transform="translate(-60.13 -24.819)" fill="#313332"/>
        <path id="Trazado_873821" data-name="Trazado 873821" d="M59.729,46.583a.78.78,0,0,1-.468-1.4l1.67-1.248a.78.78,0,0,1,.934,1.25L60.2,46.428a.777.777,0,0,1-.466.155" transform="translate(-45.812 -34.02)" fill="#313332"/>
        <path id="Trazado_873822" data-name="Trazado 873822" d="M44.09,59.766a.78.78,0,0,1-.468-1.4l1.095-.818a.78.78,0,1,1,.934,1.25l-1.1.818a.776.776,0,0,1-.466.155" transform="translate(-33.658 -44.599)" fill="#313332"/>
        <path id="Trazado_873823" data-name="Trazado 873823" d="M111.537,51.695a.78.78,0,0,1-.78-.78V49.548a.78.78,0,1,1,1.56,0v1.367a.78.78,0,0,1-.78.78" transform="translate(-86.075 -37.9)" fill="#313332"/>
        <path id="Trazado_873824" data-name="Trazado 873824" d="M111.537,71.059a.78.78,0,0,1-.78-.78v-1.84a.78.78,0,0,1,1.56,0v1.84a.78.78,0,0,1-.78.78" transform="translate(-86.075 -52.581)" fill="#313332"/>
        <path id="Trazado_873825" data-name="Trazado 873825" d="M111.537,91.848a.78.78,0,0,1-.78-.78V89.7a.78.78,0,0,1,1.56,0v1.367a.78.78,0,0,1-.78.78" transform="translate(-86.075 -69.105)" fill="#313332"/>
        <path id="Trazado_873826" data-name="Trazado 873826" d="M127.884,47.08a.779.779,0,0,1-.631-.321l-.8-1.105a.78.78,0,1,1,1.261-.918l.8,1.105a.78.78,0,0,1-.63,1.239" transform="translate(-98.153 -34.517)" fill="#313332"/>
        <path id="Trazado_873827" data-name="Trazado 873827" d="M140.077,63.836a.779.779,0,0,1-.631-.321l-1.389-1.909a.78.78,0,0,1,1.261-.918l1.389,1.909a.78.78,0,0,1-.63,1.239" transform="translate(-107.174 -46.914)" fill="#313332"/>
        <path id="Trazado_873828" data-name="Trazado 873828" d="M152.825,81.352a.778.778,0,0,1-.631-.321l-.8-1.105a.78.78,0,1,1,1.261-.918l.8,1.105a.78.78,0,0,1-.63,1.239" transform="translate(-117.536 -61.152)" fill="#313332"/>
        <path id="Trazado_873829" data-name="Trazado 873829" d="M141.1,34.315a.777.777,0,0,1-.466-.155l-1.095-.818a.78.78,0,0,1,.934-1.25l1.1.818a.78.78,0,0,1-.468,1.4" transform="translate(-108.201 -24.82)" fill="#313332"/>
        <path id="Trazado_873830" data-name="Trazado 873830" d="M157.522,46.583a.777.777,0,0,1-.466-.155l-1.67-1.248a.78.78,0,1,1,.934-1.25l1.67,1.248a.78.78,0,0,1-.468,1.4" transform="translate(-120.514 -34.02)" fill="#313332"/>
        <path id="Trazado_873831" data-name="Trazado 873831" d="M175.166,59.767a.777.777,0,0,1-.466-.155l-1.095-.818a.78.78,0,1,1,.934-1.25l1.095.818a.78.78,0,0,1-.468,1.4" transform="translate(-134.673 -44.6)" fill="#313332"/>
      </g>
    </g>
  </g>
</svg>
