<svg xmlns="http://www.w3.org/2000/svg" xmlns:xlink="http://www.w3.org/1999/xlink" width="107.585" height="107.573" viewBox="0 0 107.585 107.573">
  <defs>
    <filter id="Trazado_873071" x="-0.001" y="0" width="107.585" height="107.573" filterUnits="userSpaceOnUse">
      <feOffset dy="6" input="SourceAlpha"/>
      <feGaussianBlur stdDeviation="5" result="blur"/>
      <feFlood flood-opacity="0.341"/>
      <feComposite operator="in" in2="blur"/>
      <feComposite in="SourceGraphic"/>
    </filter>
  </defs>
  <g id="Grupo_1099048" data-name="Grupo 1099048" transform="translate(16.598 10.598)">
    <g id="Grupo_1099041" data-name="Grupo 1099041" transform="translate(-1.598 -1.598)">
      <g transform="matrix(1, 0, 0, 1, -15, -9)" filter="url(#Trazado_873071)">
        <path id="Trazado_873071-2" data-name="Trazado 873071" d="M77.291,69.188l-.485-1.553h0L67.579,37.913a6.909,6.909,0,0,0-6.6-4.878H58.441a23.628,23.628,0,0,0,2.618-10.761,22.269,22.269,0,1,0-44.538,0,23.633,23.633,0,0,0,2.618,10.766H16.6A6.909,6.909,0,0,0,10,37.912L.294,69.192a6.46,6.46,0,0,0,6.167,8.381H71.125a6.459,6.459,0,0,0,6.166-8.385" transform="translate(15 9)" fill="#fff"/>
      </g>
      <path id="Trazado_873072" data-name="Trazado 873072" d="M69.972,247h8.65a3.419,3.419,0,0,1,3.265,2.406l9.377,30.213a2.969,2.969,0,0,1-2.83,3.848H25.99a2.963,2.963,0,0,1-2.969-2.957V280.5a2.953,2.953,0,0,1,.133-.88l9.377-30.213A3.419,3.419,0,0,1,35.8,247h8.65" transform="translate(-18.419 -210.493)" fill="#f9d266"/>
      <path id="Trazado_873073" data-name="Trazado 873073" d="M78.468,313.406A3.419,3.419,0,0,0,75.2,311H32.377a3.4,3.4,0,0,0-2.175.8l-7.047,22.7a2.969,2.969,0,0,0,2.83,3.848H86.209Z" transform="translate(-18.419 -265.376)" fill="#fce797"/>
      <path id="Trazado_873074" data-name="Trazado 873074" d="M153.255,70.863,167.217,53.41a19.494,19.494,0,0,0,4.271-12.177,18.234,18.234,0,1,0-36.467,0,19.494,19.494,0,0,0,4.271,12.177Z" transform="translate(-114.465 -18.401)" fill="#4d8c28"/>
      <path id="Trazado_873075" data-name="Trazado 873075" d="M178.964,313.96c5.652.963,9.687,3.472,9.687,6.416,0,3.777-6.632,6.838-14.815,6.838s-14.815-3.061-14.815-6.838c0-2.944,4.03-5.453,9.687-6.416l5.128,6.416Z" transform="translate(-135.046 -267.914)" fill="#d5883e"/>
      <path id="Trazado_873076" data-name="Trazado 873076" d="M180.7,55a13.675,13.675,0,1,1-13.675,13.675A13.675,13.675,0,0,1,180.7,55" transform="translate(-141.906 -45.843)" fill="#6bc13b"/>
      <path id="Trazado_873077" data-name="Trazado 873077" d="M167.451,106.4A13.709,13.709,0,0,1,169.587,95h3.7a2.849,2.849,0,1,1,0,5.7,1.709,1.709,0,0,0-1.709,1.709,3.989,3.989,0,0,1-3.989,3.989Z" transform="translate(-141.906 -80.145)" fill="#3d54bd"/>
      <path id="Trazado_873078" data-name="Trazado 873078" d="M252.631,105.234h-3.354A2.279,2.279,0,0,1,247,102.954a2.279,2.279,0,0,0-2.279-2.279H241.3a2.279,2.279,0,0,1,0-4.558h3.419a2.279,2.279,0,1,0,0-4.558,2.279,2.279,0,0,1,0-4.558h7.913a13.675,13.675,0,0,1,0,18.234Z" transform="translate(-203.65 -73.284)" fill="#3d54bd"/>
      <path id="Trazado_873079" data-name="Trazado 873079" d="M85.474,80.33,76.1,50.116a4.537,4.537,0,0,0-4.353-3.207H67.6a1.139,1.139,0,0,1-.963-1.743A20.7,20.7,0,0,0,69.7,34.373a19.373,19.373,0,1,0-38.746,0,20.7,20.7,0,0,0,3.065,10.792,1.139,1.139,0,0,1-.963,1.743H28.918a4.537,4.537,0,0,0-4.353,3.207L15.188,80.33a4.1,4.1,0,0,0,3.924,5.325H81.556a4.1,4.1,0,0,0,3.924-5.325ZM50.331,17.279A17.113,17.113,0,0,1,67.425,34.373,18.419,18.419,0,0,1,63.4,45.839L51.221,61.067a1.14,1.14,0,0,1-1.78,0L37.258,45.839a18.419,18.419,0,0,1-4.022-11.465A17.113,17.113,0,0,1,50.331,17.279m-.89,47.435a1.14,1.14,0,0,0,1.78,0l4.264-5.33a1.137,1.137,0,0,1,1.14-.4c4.348,1,7.381,3.018,7.381,5.019,0,2.7-5.616,5.7-13.675,5.7s-13.675-3-13.675-5.7c0-2,3.033-4.018,7.381-5.019a1.137,1.137,0,0,1,1.14.4ZM81.556,83.376H19.111A1.83,1.83,0,0,1,17.364,81l9.377-30.213a2.268,2.268,0,0,1,2.177-1.6h7.555a1.14,1.14,0,0,1,.89.428l.912,1.14a1.14,1.14,0,0,1-.89,1.852H30.958a1.14,1.14,0,1,0,0,2.279H41.031a1.14,1.14,0,0,1,.89.428l.157.2a1.138,1.138,0,0,1-.535,1.794C37.1,58.73,34.376,61.2,34.376,64c0,4.473,7.007,7.977,15.954,7.977S66.285,68.476,66.285,64c0-2.807-2.723-5.272-7.166-6.7a1.138,1.138,0,0,1-.535-1.794l.157-.2a1.14,1.14,0,0,1,.89-.428H69.7a1.14,1.14,0,1,0,0-2.279H63.277a1.14,1.14,0,0,1-.89-1.852l.912-1.14a1.14,1.14,0,0,1,.89-.428h7.555a2.268,2.268,0,0,1,2.177,1.6L83.3,81a1.83,1.83,0,0,1-1.741,2.371Z" transform="translate(-11.541 -11.541)"/>
      <path id="Trazado_873080" data-name="Trazado 873080" d="M173.836,76.63a14.815,14.815,0,1,0-14.815-14.815A14.815,14.815,0,0,0,173.836,76.63m12.536-14.815a12.478,12.478,0,0,1-2.873,7.977h-2.825a1.14,1.14,0,0,1-1.14-1.14,3.419,3.419,0,0,0-3.419-3.419H172.7a1.14,1.14,0,1,1,0-2.279h3.419a3.419,3.419,0,0,0,0-6.838,1.14,1.14,0,1,1,0-2.279H183.5a12.478,12.478,0,0,1,2.873,7.977m-5.35-10.256h-4.906a3.419,3.419,0,0,0,0,6.838,1.14,1.14,0,0,1,0,2.279H172.7a3.419,3.419,0,1,0,0,6.838h3.419a1.14,1.14,0,0,1,1.14,1.14,3.419,3.419,0,0,0,3.419,3.419h.342A12.5,12.5,0,0,1,162.1,66.166a5.121,5.121,0,0,0,3.761-4.921.57.57,0,0,1,.57-.57,3.989,3.989,0,1,0,0-7.977h-1.169a12.466,12.466,0,0,1,15.762-1.14m-17.679,3.419h3.086a1.709,1.709,0,1,1,0,3.419,2.849,2.849,0,0,0-2.849,2.849,2.849,2.849,0,0,1-2.08,2.735,12.308,12.308,0,0,1,1.843-9" transform="translate(-135.046 -38.982)"/>
      <path id="Trazado_873081" data-name="Trazado 873081" d="M80.161,463H130.3a1.14,1.14,0,1,1,0,2.279H80.161a1.14,1.14,0,1,1,0-2.279" transform="translate(-66.442 -395.723)"/>
      <path id="Trazado_873082" data-name="Trazado 873082" d="M128.161,431h36.467a1.14,1.14,0,0,1,0,2.279H128.161a1.14,1.14,0,1,1,0-2.279" transform="translate(-107.604 -368.282)"/>
    </g>
  </g>
</svg>
