<svg xmlns="http://www.w3.org/2000/svg" xmlns:xlink="http://www.w3.org/1999/xlink" width="134.231" height="125.766" viewBox="0 0 134.231 125.766">
  <defs>
    <filter id="Trazado_873040" x="0" y="0" width="134.231" height="125.766" filterUnits="userSpaceOnUse">
      <feOffset dy="6" input="SourceAlpha"/>
      <feGaussianBlur stdDeviation="5" result="blur"/>
      <feFlood flood-opacity="0.341"/>
      <feComposite operator="in" in2="blur"/>
      <feComposite in="SourceGraphic"/>
    </filter>
  </defs>
  <g id="Grupo_1099037" data-name="Grupo 1099037" transform="translate(15 9)">
    <g id="Grupo_1099042" data-name="Grupo 1099042">
      <g transform="matrix(1, 0, 0, 1, -15, -9)" filter="url(#Trazado_873040)">
        <path id="Trazado_873040-2" data-name="Trazado 873040" d="M104.22,62.241c-.007-.562-.014-1.094-.008-1.582,0-.019,0-.038,0-.057a7.41,7.41,0,0,0-7.371-7.349H88.35V51.363a5.853,5.853,0,0,0-.343-1.969h.105a3.941,3.941,0,0,0,2.805-1.209,5.271,5.271,0,0,0,1.13-4.023c-.005-.152-.013-.379-.009-.463a2.891,2.891,0,0,0,.016-.306,3.879,3.879,0,0,0-.657-2.162,3.918,3.918,0,0,0,.371-2.111c0-.014,0-.027,0-.041a41.9,41.9,0,0,0-.706-4.231,3.889,3.889,0,0,0-1.043-1.913,3.918,3.918,0,0,0-.065-2.192l0-.012a40.824,40.824,0,0,0-1.537-4.01A3.918,3.918,0,0,0,87,25.052a3.876,3.876,0,0,0-.5-2.157,40.494,40.494,0,0,0-2.278-3.621,3.907,3.907,0,0,0-1.74-1.386,3.939,3.939,0,0,0-.887-1.942,38.1,38.1,0,0,0-2.887-3.056,3.811,3.811,0,0,0-1.964-1.09,3.882,3.882,0,0,0-1.267-1.783,37.2,37.2,0,0,0-3.5-2.464,3.875,3.875,0,0,0-2.123-.632h-.025a6.227,6.227,0,0,0-3.413-2.328c-.19-.069-.472-.173-.58-.225a2.867,2.867,0,0,0-.312-.164l-.019-.008A6.352,6.352,0,0,0,62.878,3.5a4,4,0,0,0-.787.08A3.9,3.9,0,0,0,60.2,2.461a36.21,36.21,0,0,0-4.213-.875l-.026,0a3.942,3.942,0,0,0-2.185.324,4.073,4.073,0,0,0-.462-.274,5.412,5.412,0,0,0-2.469-.508c-.233,0-.453.008-.647.014-.146.005-.284.01-.388.01h-.076a2.929,2.929,0,0,0-.305-.016,3.859,3.859,0,0,0-2.618,1.008A5.138,5.138,0,0,0,42.58,0a5.938,5.938,0,0,0-2.17.42c-.629.241-1.355.49-2.123.752-2.882.985-6.348,2.17-8.827,4.378L19.568,2.908l-.03-.008a5.77,5.77,0,0,0-1.429-.177,7.063,7.063,0,0,0-3.548,1.023L10.54,6.082a3.926,3.926,0,0,0-.051,6.791L18.3,17.611,11.82,24.62l-3.885-.79a4.084,4.084,0,0,0-1.058-.137,8.1,8.1,0,0,0-4.242,1.689c-.219.143-.492.322-.608.383L2,25.777a3.925,3.925,0,0,0,.04,6.864l2.887,1.606A4.19,4.19,0,0,0,5.99,36.733l.976,1.091A4.161,4.161,0,0,0,9.293,39.17L10,40.887a3.925,3.925,0,0,0-2.97,3.937,2.855,2.855,0,0,0,.028.317c.007.083.007.3.007.453a7.166,7.166,0,0,0,.293,2.364,4.111,4.111,0,0,0,.762,1.354,3.947,3.947,0,0,0-.289,2.394,42.252,42.252,0,0,0,1.139,4.522,3.925,3.925,0,0,0,1.4,2,3.942,3.942,0,0,0,.245,2.387A43.644,43.644,0,0,0,12.7,64.778l.021.036a3.958,3.958,0,0,0,1.734,1.573A3.927,3.927,0,0,0,15.2,68.7a44.6,44.6,0,0,0,2.931,3.615q.055.061.113.119a4.039,4.039,0,0,0,1.994,1.086,3.906,3.906,0,0,0,1.242,2.1,41.042,41.042,0,0,0,3.666,2.9,3.911,3.911,0,0,0,2.255.727l.058,0a3.948,3.948,0,0,0,1.594,1.713c.045.026.091.051.138.075.3.15.6.31.912.479a17.772,17.772,0,0,0,4.008,1.714,2.9,2.9,0,0,0,.66.088h.07a3.931,3.931,0,0,0,.875-.1,3.868,3.868,0,0,0,2.031,1.364,36.788,36.788,0,0,0,4.789,1.062,2.906,2.906,0,0,0,.409.029,3.913,3.913,0,0,0,1.74-.405,3.933,3.933,0,0,0,.767.484,5.641,5.641,0,0,0,2.477.476l.226,0v3.557a5.989,5.989,0,0,0,5.982,5.982h42.32a5.989,5.989,0,0,0,5.982-5.982V72.116c1.87-3,1.822-6.781,1.783-9.874M47.144,8.234l-.28.019.084-.168c.063.052.129.1.2.15" transform="translate(15 9)" fill="#fff"/>
      </g>
      <path id="Trazado_873041" data-name="Trazado 873041" d="M52.428,226.258a1.034,1.034,0,0,0-1,1.061c.154,1.023-.328,2.953,1.158,3.049,1.6-.116.83-2.084.907-3.126a1.043,1.043,0,0,0-1.061-.984" transform="translate(-41.5 -182.596)" fill="#231f20"/>
      <path id="Trazado_873042" data-name="Trazado 873042" d="M196.52,415.383a34.772,34.772,0,0,0,4.419.984,1.032,1.032,0,0,0,.174-2.046,35.575,35.575,0,0,1-4.014-.926,1.035,1.035,0,0,0-.579,1.988Z" transform="translate(-157.996 -333.588)" fill="#231f20"/>
      <path id="Trazado_873043" data-name="Trazado 873043" d="M57.263,259.637a1.033,1.033,0,0,0-2.026.405,39.462,39.462,0,0,0,1.061,4.207,1.029,1.029,0,1,0,1.968-.6,38.123,38.123,0,0,1-1-4.014" transform="translate(-44.56 -208.872)" fill="#231f20"/>
      <path id="Trazado_873044" data-name="Trazado 873044" d="M68.353,302.05a40.784,40.784,0,0,0,1.949,3.9,1.053,1.053,0,0,0,.907.521,1.033,1.033,0,0,0,.888-1.544c-.675-1.2-1.293-2.432-1.853-3.686a1.026,1.026,0,0,0-1.351-.54A1,1,0,0,0,68.353,302.05Z" transform="translate(-55.09 -242.602)" fill="#231f20"/>
      <path id="Trazado_873045" data-name="Trazado 873045" d="M121.085,371.513a1.058,1.058,0,0,0-1.467.1,1.023,1.023,0,0,0,.1,1.467,38.162,38.162,0,0,0,3.416,2.7,1.039,1.039,0,0,0,1.2-1.7C123.208,373.269,122.108,372.42,121.085,371.513Z" transform="translate(-96.321 -299.618)" fill="#231f20"/>
      <path id="Trazado_873046" data-name="Trazado 873046" d="M160.511,398.425a34.462,34.462,0,0,1-3.705-1.795,1.036,1.036,0,1,0-1,1.814,21.764,21.764,0,0,0,4.323,1.968A1.037,1.037,0,0,0,160.511,398.425Z" transform="translate(-125.307 -319.988)" fill="#231f20"/>
      <path id="Trazado_873047" data-name="Trazado 873047" d="M93.574,344.107a1.039,1.039,0,0,0,.772-1.718,41.058,41.058,0,0,1-2.605-3.2,1.037,1.037,0,0,0-1.679,1.216,41.863,41.863,0,0,0,2.74,3.377,1.116,1.116,0,0,0,.772.328" transform="translate(-72.516 -273.389)" fill="#231f20"/>
      <path id="Trazado_873048" data-name="Trazado 873048" d="M242.134,422.9a1.033,1.033,0,0,0,0-2.065c-1.042.116-2.895-.618-3.107.907.039,1.563,2.065,1.042,3.107,1.158" transform="translate(-192.901 -339.566)" fill="#231f20"/>
      <path id="Trazado_873049" data-name="Trazado 873049" d="M452.1,223.691c1.563-.039,1-2.065,1.119-3.107a1.046,1.046,0,0,0-1.042-1.023c-1.525.116-.868,2.026-1.061,3.049a1.011,1.011,0,0,0,.984,1.081" transform="translate(-364.061 -177.191)" fill="#231f20"/>
      <path id="Trazado_873050" data-name="Trazado 873050" d="M435.6,146.368a1.035,1.035,0,0,0,1.968-.637,37.912,37.912,0,0,0-1.428-3.724,1.036,1.036,0,1,0-1.891.849,36.672,36.672,0,0,1,1.351,3.512" transform="translate(-350.379 -114.11)" fill="#231f20"/>
      <path id="Trazado_873051" data-name="Trazado 873051" d="M447.259,184.726a1.023,1.023,0,0,0,1.139.907,1.037,1.037,0,0,0,.907-1.139,38.948,38.948,0,0,0-.656-3.937,1.038,1.038,0,0,0-2.026.444C446.893,182.217,447.105,183.472,447.259,184.726Z" transform="translate(-360.415 -145.077)" fill="#231f20"/>
      <path id="Trazado_873052" data-name="Trazado 873052" d="M388.626,76.029a1.055,1.055,0,0,0,.019,1.467,34.967,34.967,0,0,1,2.586,2.76,1.027,1.027,0,1,0,1.563-1.332,35.245,35.245,0,0,0-2.74-2.895.96.96,0,0,0-1.428,0" transform="translate(-313.399 -61.101)" fill="#231f20"/>
      <path id="Trazado_873053" data-name="Trazado 873053" d="M356.859,51.342a1.035,1.035,0,0,0,.328,1.428c1.061.675,2.1,1.409,3.088,2.181a1.031,1.031,0,1,0,1.274-1.621,34.269,34.269,0,0,0-3.261-2.3A1.014,1.014,0,0,0,356.859,51.342Z" transform="translate(-287.865 -41.045)" fill="#231f20"/>
      <path id="Trazado_873054" data-name="Trazado 873054" d="M418.426,110.1a38.155,38.155,0,0,0-2.123-3.377,1.033,1.033,0,0,0-1.7,1.177c.714,1.042,1.389,2.1,2.007,3.2a1.053,1.053,0,0,0,.907.521A1.033,1.033,0,0,0,418.426,110.1Z" transform="translate(-334.438 -85.771)" fill="#231f20"/>
      <path id="Trazado_873055" data-name="Trazado 873055" d="M282.963,23.02a1.034,1.034,0,1,0-.309,2.046c1.332.174,2.644.521,3.956.791a1.03,1.03,0,0,0,.251-2.026A33.26,33.26,0,0,0,282.963,23.02Z" transform="translate(-227.4 -18.57)" fill="#231f20"/>
      <path id="Trazado_873056" data-name="Trazado 873056" d="M323.241,33.593c-.772-.347-1.949-.888-2.374.193a1.037,1.037,0,0,0,.618,1.332c1.351.405,2.586,1.235,3.917,1.6a1.019,1.019,0,0,0,.926-.579c.618-1.621-2.1-1.93-3.088-2.547" transform="translate(-258.897 -26.75)" fill="#231f20"/>
      <path id="Trazado_873057" data-name="Trazado 873057" d="M252.01,22.9c1.023-.135,2.914.579,3.088-.946-.039-1.563-2.065-1-3.107-1.119A1.033,1.033,0,0,0,252.01,22.9Z" transform="translate(-202.565 -16.805)" fill="#231f20"/>
      <path id="Trazado_873058" data-name="Trazado 873058" d="M108.946,68.254H97.56V63.468a2.994,2.994,0,0,0-2.991-2.991h-.811a32.562,32.562,0,0,0,.193-8.221C92.1,32.92,72.608,19.334,53.851,24.12l2.74-5.481a2.351,2.351,0,0,0-3.03-3.416c-3.416,1.312-8.722,2.547-11.077,5.673L30.926,17.81a3.74,3.74,0,0,0-2.8.54L24.075,20.7a1.031,1.031,0,0,0-.019,1.775l10.884,6.6-10,10.807-5.6-1.139c-1.1-.367-2.914,1.177-3.86,1.679a1.031,1.031,0,0,0,.039,1.775l4.824,2.682a1.559,1.559,0,0,0-.1,2.026l.984,1.1a1.527,1.527,0,0,0,2.007.154l2.1,5.095a1.049,1.049,0,0,0,1.775.251c.6-.868,2.316-2.489,2.123-3.609l-.5-5.693L32.2,41.7C21.45,63.6,38.76,89.635,63.152,88.3v13.585a3.1,3.1,0,0,0,3.088,3.088h42.32a3.1,3.1,0,0,0,3.088-3.088V83.306c2.219-2.74,1.737-7.275,1.775-10.575A4.505,4.505,0,0,0,108.946,68.254ZM92.6,62.542h1.988a.926.926,0,0,1,.926.926v4.786H79.266V63.468a.919.919,0,0,1,.27-.656.887.887,0,0,1,.656-.27C80.231,62.542,92.562,62.58,92.6,62.542ZM87,38.941a30.662,30.662,0,0,1,4.651,11.849,9.487,9.487,0,0,0-7.044,1.177c-1.216.656-2.1,1.119-3.4.81-1.737-.425-2.972-1.833-2.914-2.239a5.291,5.291,0,0,1,1.872-.656c3.86-.618,5.828-3.068,3.242-6.484-.54-.849-1.081-1.64-.926-2.354.232-1.1,1.872-2.3,3.937-2.914.212.27.386.54.579.811M54.179,26.146a30.91,30.91,0,0,1,23.6,3.763C71.914,32.264,66.028,35.93,65.719,43.34c-.27,2.258-.521,4.188-2.2,5.538-2.026,1.679-4.361.733-5.944,3.145-1.795,3.223,1.467,5.693.579,9.128-.656,2.991-3.3,5.114-4.149,5.172a11.587,11.587,0,0,1,.154-2.412c.772-4.207.309-10.98-4.438-14.2a4.981,4.981,0,0,1-1.988-2.47c.56-.753,2.2-2.933,2.779-3.724a3.682,3.682,0,0,0,.849-2.7L49.644,28.983c-.039-.212.868-.753,1.023-.868a9.489,9.489,0,0,0,1.37-1.274A8.719,8.719,0,0,1,54.179,26.146ZM47.1,44.653c-1.119-2.431-3.647-7.989-4.728-10.363,1.332-.965,4.072-2.953,5.4-3.937.289,1.968,1.293,8.935,1.563,10.768.058.868-1.795,2.8-2.239,3.531M26.6,21.631c.695-.309,3.068-2.046,3.782-1.814l10.5,2.8-4.535,4.921Zm-8.53,19.626c.135-.077.772-.444.83-.5l4.381.907c-.289.309-1.254,1.351-1.525,1.64Zm8.935,9.031-.425.54-1.6-3.9c.386-.27,1.447-1.061,1.814-1.332l.386,4.381a.55.55,0,0,1-.174.309m-4.5-4.13c-.039.019-.058.039-.1.058l-.27-.289s.56-.618.579-.618c2.161-2.335,12.177-13.18,14.57-15.766,1.91-1.968,3.724-3.995,5.558-6.021,1.428-1.582,3.068-3.609,5.249-4.168.212-.019,6.754-2.567,6.773-2.277.309.1-2.895,6.021-3.049,6.465-1.235,2.489-3.609,4.226-5.847,5.751C38.027,34.734,30.289,40.5,22.512,46.158ZM63.152,86.22C38.259,87.551,22.2,59.4,36.232,38.748l4.419-3.2c.791,1.717,3.9,8.53,4.747,10.382a6.812,6.812,0,0,0,.289,1.7c1.2,3.686,3.512,3.358,5.288,6.523,1.891,3.338,1.447,6.909,1.139,9.533-.251,2.1-.482,3.917,1,4.554,2.953.868,6.31-3.338,7.044-6.619a9.546,9.546,0,0,0-.6-5.5c-.482-1.428-.695-2.219-.232-2.991.367-.618.907-.772,1.949-1.042,6.523-1.428,5.924-6.426,7.005-11.54,1.486-5.114,6.87-7.256,11.463-9.244a29.927,29.927,0,0,1,5.365,5.114c-4.342,1.563-6.079,4.805-3.435,8.144,1.814,2.374.386,2.8-1.968,3.338-5.731.83-3.589,5.654,1,6.909a6.563,6.563,0,0,0,4.863-.984,7.02,7.02,0,0,1,6.349-.714,30.569,30.569,0,0,1-.251,7.391h-11.5a3.053,3.053,0,0,0-2.991,3.01v4.786H65.8a4.477,4.477,0,0,0-4.438,4.438c.039,3.377-.482,7.777,1.775,10.594V86.22Zm46.411,15.65a1,1,0,0,1-1,1.023H66.221a1,1,0,0,1-1-1.023V85.428A9.834,9.834,0,0,0,71.1,87.416H80.54v1.447A2.339,2.339,0,0,0,82.855,91.2h9.07a2.339,2.339,0,0,0,2.316-2.335V87.416h9.436a9.963,9.963,0,0,0,5.886-1.988ZM82.585,88.883V84.251a.249.249,0,0,1,.251-.27h9.07a.26.26,0,0,1,.251.27v4.631a.273.273,0,0,1-.251.27h-9.07a.26.26,0,0,1-.251-.27M111.319,77.69a7.722,7.722,0,0,1-7.661,7.68H94.222v-1.1a2.343,2.343,0,0,0-2.316-2.354h-9.07a2.343,2.343,0,0,0-2.316,2.354v1.1H71.084a7.727,7.727,0,0,1-7.256-5.21c-.695-1.582-.289-5.731-.386-7.449a2.384,2.384,0,0,1,2.374-2.374h43.149a2.372,2.372,0,0,1,2.374,2.374V77.69Z" transform="translate(-12.105 -12.105)" fill="#231f20"/>
      <path id="Trazado_873059" data-name="Trazado 873059" d="M319.573,379.961V396.4a1,1,0,0,1-1,1.023H276.23a1,1,0,0,1-1-1.023V379.961a9.834,9.834,0,0,0,5.886,1.988h9.436V383.4a2.339,2.339,0,0,0,2.316,2.335h9.07a2.339,2.339,0,0,0,2.316-2.335v-1.447h9.437A9.834,9.834,0,0,0,319.573,379.961Z" transform="translate(-222.115 -306.638)" fill="#769671"/>
      <path id="Trazado_873060" data-name="Trazado 873060" d="M313.864,303.954c-.077,2.914.56,7.256-1.563,9.629a7.678,7.678,0,0,1-6.1,3.03h-9.436v-1.1a2.343,2.343,0,0,0-2.316-2.354h-9.07a2.343,2.343,0,0,0-2.316,2.354v1.1h-9.436a7.668,7.668,0,0,1-6.1-3.049,7.517,7.517,0,0,1-1.544-4.631c.019-.425-.077-5.4.1-5.673a2.385,2.385,0,0,1,2.258-1.7H311.49A2.4,2.4,0,0,1,313.864,303.954Z" transform="translate(-214.65 -243.367)" fill="#e9bd68"/>
      <path id="Trazado_873061" data-name="Trazado 873061" d="M36.157,149.387c-.289.309-1.254,1.351-1.525,1.64l-3.705-2.065c.135-.077.772-.444.83-.5Z" transform="translate(-24.959 -119.812)" fill="#a09445"/>
      <path id="Trazado_873062" data-name="Trazado 873062" d="M68.927,177.961a3.723,3.723,0,0,1-.6.83l-1.6-3.9c.386-.27,1.447-1.061,1.814-1.332Z" transform="translate(-53.85 -140.068)" fill="#a09445"/>
      <path id="Trazado_873063" data-name="Trazado 873063" d="M163.793,105.31c.077.868-1.795,2.817-2.239,3.551-1.119-2.432-3.647-7.989-4.728-10.363,1.332-.965,4.072-2.953,5.4-3.937.289,1.949,1.293,8.915,1.563,10.749" transform="translate(-126.563 -76.313)" fill="#a09445"/>
      <path id="Trazado_873064" data-name="Trazado 873064" d="M89.426,42.671l-4.535,4.921-9.765-5.905c.695-.309,3.068-2.046,3.782-1.814Z" transform="translate(-60.629 -32.161)" fill="#a09445"/>
      <path id="Trazado_873065" data-name="Trazado 873065" d="M374.9,372.731v4.631a.273.273,0,0,1-.251.27h-9.07a.26.26,0,0,1-.251-.27v-4.631a.249.249,0,0,1,.251-.27h9.07a.26.26,0,0,1,.251.27" transform="translate(-294.828 -300.585)" fill="#ffefe1"/>
      <path id="Trazado_873066" data-name="Trazado 873066" d="M84.7,26.3,81.787,32.13c-1.235,2.489-3.609,4.226-5.847,5.751C67.951,43.322,60.213,49.131,52.4,54.8l-.27-.289s.56-.618.579-.618c2.161-2.335,12.177-13.18,14.57-15.766,1.91-1.968,3.724-3.995,5.558-6.021,1.428-1.582,3.068-3.609,5.249-4.168.212-.019,6.754-2.567,6.773-2.277A1.1,1.1,0,0,1,84.7,26.3Z" transform="translate(-42.068 -20.694)" fill="#e9bd68"/>
      <path id="Trazado_873067" data-name="Trazado 873067" d="M356.373,147.62a9.487,9.487,0,0,0-7.044,1.177c-1.216.656-2.1,1.119-3.4.81-1.737-.425-2.972-1.833-2.914-2.238a5.291,5.291,0,0,1,1.872-.656c3.86-.618,5.828-3.068,3.242-6.484-.54-.849-1.081-1.64-.926-2.354.232-1.1,1.872-2.3,3.937-2.914a30.419,30.419,0,0,1,5.23,12.659" transform="translate(-276.823 -108.917)" fill="#f6a96c"/>
      <path id="Trazado_873068" data-name="Trazado 873068" d="M214.573,72.887c-5.866,2.354-11.752,6.021-12.061,13.431-.27,2.258-.521,4.188-2.2,5.538-2.026,1.679-4.361.733-5.944,3.146-1.795,3.223,1.467,5.693.579,9.128-.656,2.991-3.3,5.114-4.149,5.172a11.586,11.586,0,0,1,.154-2.412c.772-4.207.309-10.98-4.438-14.2a4.981,4.981,0,0,1-1.988-2.47c.56-.753,2.2-2.953,2.779-3.724a3.681,3.681,0,0,0,.849-2.7L186.437,71.96c-.039-.212.868-.753,1.023-.868.579-.405,1.023-.965,1.563-1.409A30.9,30.9,0,0,1,214.573,72.887Z" transform="translate(-148.918 -55.083)" fill="#f6a96c"/>
      <path id="Trazado_873069" data-name="Trazado 873069" d="M158.675,128.639h-11.5a3.053,3.053,0,0,0-2.991,3.01v4.786H132.8a4.477,4.477,0,0,0-4.438,4.438c.039,3.377-.482,7.777,1.775,10.594v2.914c-24.894,1.332-40.949-26.824-26.92-47.472l4.419-3.2c.791,1.717,3.9,8.53,4.747,10.382a6.811,6.811,0,0,0,.289,1.7c1.2,3.686,3.512,3.358,5.288,6.523,1.891,3.338,1.447,6.909,1.139,9.533-.251,2.1-.482,3.917,1,4.554,2.953.868,6.31-3.339,7.044-6.619a9.546,9.546,0,0,0-.6-5.5c-.482-1.428-.695-2.219-.232-2.991.367-.618.907-.772,1.949-1.042,6.523-1.428,5.924-6.426,7.005-11.54,1.486-5.114,6.87-7.256,11.463-9.244a29.926,29.926,0,0,1,5.365,5.114c-4.342,1.563-6.079,4.805-3.435,8.144,1.814,2.374.386,2.8-1.968,3.338-5.731.83-3.589,5.654,1,6.909a6.562,6.562,0,0,0,4.863-.984,7.02,7.02,0,0,1,6.349-.714A29.491,29.491,0,0,1,158.675,128.639Z" transform="translate(-79.086 -80.267)" fill="#ffefe1"/>
    </g>
  </g>
</svg>
