<svg xmlns="http://www.w3.org/2000/svg" xmlns:xlink="http://www.w3.org/1999/xlink" width="117.697" height="117.705" viewBox="0 0 117.697 117.705">
  <defs>
    <filter id="Trazado_873083" x="0" y="0" width="117.697" height="117.705" filterUnits="userSpaceOnUse">
      <feOffset dy="6" input="SourceAlpha"/>
      <feGaussianBlur stdDeviation="5" result="blur"/>
      <feFlood flood-opacity="0.341"/>
      <feComposite operator="in" in2="blur"/>
      <feComposite in="SourceGraphic"/>
    </filter>
  </defs>
  <g id="Grupo_1099047" data-name="Grupo 1099047" transform="translate(15 9)">
    <g id="Grupo_1099045" data-name="Grupo 1099045">
      <g transform="matrix(1, 0, 0, 1, -15, -9)" filter="url(#Trazado_873083)">
        <path id="Trazado_873083-2" data-name="Trazado 873083" d="M81.42,51.157a21.4,21.4,0,0,0-24.7-4.023l-4.355-1.559q-.218-.078-.44-.138.193-.328.371-.667a15.5,15.5,0,0,0,1.115-2.723,12.192,12.192,0,0,0,6.949-10.994,7.22,7.22,0,0,0-1.865-4.833,12.339,12.339,0,0,0,5.922-10.575A12.2,12.2,0,0,0,52.328,3.352a11.911,11.911,0,0,0-2.234.211A19.041,19.041,0,0,0,39.048,0a18.8,18.8,0,0,0-5.406.792A18.875,18.875,0,0,0,17.226,3.567a11.918,11.918,0,0,0-2.258-.215A12.2,12.2,0,0,0,2.882,15.644,12.337,12.337,0,0,0,8.8,26.221a7.218,7.218,0,0,0-1.864,4.831,12.216,12.216,0,0,0,2.07,6.781v1A10.134,10.134,0,0,0,18.166,48.9c1.384,1.339,3.9,3.7,5.386,5.047v.317a6.5,6.5,0,0,0-2.9,2.96q-.041.084-.079.169l-2.143.557A3.923,3.923,0,0,0,16.01,59.8a3.931,3.931,0,0,0-2.96-.46,15.276,15.276,0,0,0-5.134,2.29A15.388,15.388,0,0,0,1.4,72.291,4.924,4.924,0,0,0,0,75.719V78.7a4.925,4.925,0,0,0,3.692,4.762v.306A3.932,3.932,0,0,0,10.457,86.5h2.617a3.926,3.926,0,0,0,5.659,0H48.506a3.922,3.922,0,0,0,5.656,0H59.2a21.428,21.428,0,0,0,18.608-2.158,21.465,21.465,0,0,0,7.754-8.721,3.91,3.91,0,0,0,.177-3.007c-.042-.122-.091-.24-.144-.355q.065-.209.125-.419A3.935,3.935,0,0,0,87.529,69a22.127,22.127,0,0,0,.168-2.7A21.268,21.268,0,0,0,81.42,51.157M46.79,57.428l-.12-.031q-.039-.087-.081-.173a6.488,6.488,0,0,0-2.9-2.955V54.01c.366-.335.844-.779,1.479-1.371.011.033.022.065.034.1l1.64,4.581-.05.11" transform="translate(15 9)" fill="#fff"/>
      </g>
      <path id="Trazado_873084" data-name="Trazado 873084" d="M50.592,45.361a8.36,8.36,0,1,1-8.151,8.358,8.256,8.256,0,0,1,8.151-8.358" transform="translate(-35.624 -38.075)" fill="#7a6d79"/>
      <path id="Trazado_873085" data-name="Trazado 873085" d="M283.193,45.361a8.36,8.36,0,1,1-8.151,8.358,8.256,8.256,0,0,1,8.151-8.358" transform="translate(-230.865 -38.075)" fill="#685e68"/>
      <path id="Trazado_873086" data-name="Trazado 873086" d="M47.486,457.757v9.6a.643.643,0,0,0,.642.642h7.624l19.173-2.481L91.184,468h14.959L99.46,457.757Z" transform="translate(-39.859 -384.233)" fill="#c68d7a"/>
      <path id="Trazado_873087" data-name="Trazado 873087" d="M42.636,405.908l-5.311-2.3a11.45,11.45,0,0,0-5.01,9.467v4.161h10.7l2.757-2.874a12.941,12.941,0,0,0-3.14-8.45" transform="translate(-27.125 -338.779)" fill="#ffe177"/>
      <path id="Trazado_873088" data-name="Trazado 873088" d="M37.647,470.252H25.53a1.029,1.029,0,0,1-1.029-1.029v-2.889a1.029,1.029,0,0,1,1.029-1.029H37.647Z" transform="translate(-20.566 -390.569)" fill="#ffd15b"/>
      <path id="Trazado_873089" data-name="Trazado 873089" d="M107.772,378.182,110.3,375.1a13.8,13.8,0,0,0-4.157-1.743l-10.713-2.784a3.178,3.178,0,0,1-1.527-.909l-6.99,2.91L79.7,369.888a3.179,3.179,0,0,1-1.3.685l-10.712,2.784a13.776,13.776,0,0,0-4.179,1.758l2.554,3.067a12.941,12.941,0,0,1,3.14,8.45v7.427h35.431v-7.427A12.941,12.941,0,0,1,107.772,378.182Z" transform="translate(-53.307 -310.289)" fill="#6ed5a1"/>
      <path id="Trazado_873090" data-name="Trazado 873090" d="M165.734,300.418a3.183,3.183,0,0,0,.857-2.174v-1.33l2.55-9.746h7.745l1.97,9.719v1.357a3.183,3.183,0,0,0,.857,2.174l-6.99,2.91Z" transform="translate(-139.114 -241.044)" fill="#c68d7a"/>
      <path id="Trazado_873091" data-name="Trazado 873091" d="M171.068,287.168v9.746a13.827,13.827,0,0,0,12.265-.027v-9.719H171.068Z" transform="translate(-143.591 -241.044)" fill="#bc7c63"/>
      <path id="Trazado_873092" data-name="Trazado 873092" d="M121.205,44.545l1.223,9.546H81.422v-14.4a15.127,15.127,0,0,1,19.3-14.541c.32.093.638,1.078.956,1.192a.741.741,0,0,0,.5,0c.318-.114.636-1.1.954-1.19,1.4-.406,2.444,0,3.824,0,8.02,0,15.151,8.387,14.252,19.4" transform="translate(-68.344 -20.604)" fill="#918291"/>
      <path id="Trazado_873093" data-name="Trazado 873093" d="M235.87,39.69V52.437l-3.995-4.1.006-4.756c0-16.055-15.312-18.429-15.312-18.429a15.09,15.09,0,0,1,19.3,14.539" transform="translate(-181.785 -20.608)" fill="#7a6d79"/>
      <path id="Trazado_873094" data-name="Trazado 873094" d="M104.6,184.449H75.515a8.2,8.2,0,0,1-4.891-1.61c-.409-.3-.937-.386-1.283-.757a9.412,9.412,0,0,1-1.126-2.059,8.2,8.2,0,0,1-.931-3.806,3.275,3.275,0,0,1,3.275-3.275h39a3.275,3.275,0,0,1,3.275,3.275,8.232,8.232,0,0,1-8.232,8.232" transform="translate(-56.476 -145.164)" fill="#bc7c63"/>
      <path id="Trazado_873095" data-name="Trazado 873095" d="M122.766,115.8a10.58,10.58,0,0,0,7.251-2.865l5.568-5.215a11.681,11.681,0,0,0,3.7-8.526V89.452h-.007a2.02,2.02,0,0,1-1.941-1.462A20.543,20.543,0,0,0,126,74.913L123.068,73.6a.739.739,0,0,0-.6,0l-2.928,1.313A20.543,20.543,0,0,0,108.2,87.989a2.02,2.02,0,0,1-1.941,1.462h-.007V99.2a11.681,11.681,0,0,0,3.7,8.526l5.568,5.215A10.581,10.581,0,0,0,122.766,115.8Z" transform="translate(-89.184 -61.724)" fill="#c68d7a"/>
      <path id="Trazado_873096" data-name="Trazado 873096" d="M152.463,357.43l6.139,4.875-5.15,4.586a.482.482,0,0,1-.726-.1l-3.406-5.313a2.574,2.574,0,0,1,1.921-3.951Z" transform="translate(-124.992 -300.02)" fill="#ffe177"/>
      <path id="Trazado_873097" data-name="Trazado 873097" d="M215.391,357.43l-6.141,4.875,5.15,4.586a.482.482,0,0,0,.726-.1l3.406-5.313a2.574,2.574,0,0,0-1.921-3.951Z" transform="translate(-175.641 -300.02)" fill="#ffe177"/>
      <path id="Trazado_873098" data-name="Trazado 873098" d="M174.161,270.665h-1.974a2.263,2.263,0,1,1,0-4.527h1.974a2.263,2.263,0,0,1,0,4.527" transform="translate(-142.631 -223.391)" fill="#918291"/>
      <path id="Trazado_873099" data-name="Trazado 873099" d="M321.336,303.9a17.392,17.392,0,0,0-9.213,2.627l-6.034-2.16a1.667,1.667,0,0,0-2.131,2.131l2.215,6.187a17.476,17.476,0,0,0,2.368,20.6l.62.257a55.187,55.187,0,0,1,24.1-.117l.256-.427a17.742,17.742,0,0,0-1.7-25.479A16.531,16.531,0,0,0,321.336,303.9Z" transform="translate(-255.052 -255.091)" fill="#eaf6ff"/>
      <path id="Trazado_873100" data-name="Trazado 873100" d="M333.615,478.384l-.6.192c3.191,3.428,7.742,4.974,12.795,4.974,5.1,0,8.764-1.486,11.96-4.967l-.978-.219c-1.562-.339-2.19-.707-3.728-.91a55.726,55.726,0,0,0-19.452.93" transform="translate(-279.53 -400.379)" fill="#ffe177"/>
      <path id="Trazado_873101" data-name="Trazado 873101" d="M461.232,326.43a17.477,17.477,0,0,1-.982,22.464l-2.413,2.181c1.656.207,2.988.9,4.672,1.261l.954-.23a17.477,17.477,0,0,0-2.231-25.677" transform="translate(-384.3 -273.999)" fill="#d8ecfe"/>
      <path id="Trazado_873102" data-name="Trazado 873102" d="M357.714,480.685q-2.344-.509-4.647-.812a17.4,17.4,0,0,1-10.466,3.481,19.2,19.2,0,0,1-9.582-2.36,17.476,17.476,0,0,0,25.674-.09Z" transform="translate(-279.529 -402.797)" fill="#ffd15b"/>
      <path id="Trazado_873103" data-name="Trazado 873103" d="M406.284,345.957l-2.184-1.694-2.951.372c-1.98,1.026-1.628,3.041-2.294,5.221l-.117.405,7.294,1.805.1-.409C406.559,349.417,407.557,347.788,406.284,345.957Z" transform="translate(-334.693 -288.968)" fill="#ffe177"/>
      <path id="Trazado_873104" data-name="Trazado 873104" d="M369.084,341.222l1.1-.57-1.713-.424a9.085,9.085,0,0,0-10.092,4.35.368.368,0,0,0,.234.535l6.209,1.537.117-.405A8.418,8.418,0,0,1,369.084,341.222Z" transform="translate(-300.778 -285.357)" fill="#6ed5a1"/>
      <path id="Trazado_873105" data-name="Trazado 873105" d="M440.313,352.661a.368.368,0,0,1-.457.356l-2.578-.151-3.226-.8.1-.409a8.419,8.419,0,0,0-1.324-6.376l-.708-1.017.015,0,1.743.694a7.58,7.58,0,0,1,4.5,2.81A7.436,7.436,0,0,1,440.313,352.661Z" transform="translate(-362.714 -288.969)" fill="#6ed5a1"/>
      <path id="Trazado_873106" data-name="Trazado 873106" d="M440.747,353.266a.368.368,0,0,1-.458.357l-3.01-.759c.637-5.5-4.985-8.508-5.158-8.6l1.935.548a9.565,9.565,0,0,1,4.825,3.047A8.765,8.765,0,0,1,440.747,353.266Z" transform="translate(-362.714 -288.968)" fill="#46cc8d"/>
      <path id="Trazado_873107" data-name="Trazado 873107" d="M26.27,388.94a10.211,10.211,0,0,1,2.252-.83,1.2,1.2,0,1,0-.563-2.343,12.647,12.647,0,0,0-9.681,11.742A2.187,2.187,0,0,0,17,399.5v2.984a2.188,2.188,0,0,0,2.186,2.186h1.506v2.882a1.2,1.2,0,1,0,2.409,0v-2.882h5.867v2.882a1.2,1.2,0,1,0,2.409,0v-7.427a14.151,14.151,0,0,0-3.432-9.237Zm2.7,11.181v2.136H19.409v-2.537h9.55c0,.134.009.267.009.4M20.7,397.31a10.251,10.251,0,0,1,3.551-7.018l1.867,2.166a11.737,11.737,0,0,1,2.5,4.853Z" transform="translate(-14.269 -323.778)"/>
      <path id="Trazado_873108" data-name="Trazado 873108" d="M161.927,178.4a1.2,1.2,0,0,0-1.2,1.2v2.669a1.2,1.2,0,0,0,2.409,0V179.6a1.2,1.2,0,0,0-1.2-1.2" transform="translate(-134.907 -149.743)"/>
      <path id="Trazado_873109" data-name="Trazado 873109" d="M244.1,178.4a1.2,1.2,0,0,0-1.2,1.2v2.669a1.2,1.2,0,0,0,2.409,0V179.6a1.2,1.2,0,0,0-1.2-1.2" transform="translate(-203.884 -149.743)"/>
      <path id="Trazado_873110" data-name="Trazado 873110" d="M194.7,229.063a2.942,2.942,0,0,1-2.664,0,1.2,1.2,0,0,0-1.094,2.147,5.36,5.36,0,0,0,4.851,0,1.2,1.2,0,0,0-1.094-2.147Z" transform="translate(-159.725 -192.161)"/>
      <path id="Trazado_873111" data-name="Trazado 873111" d="M232.923,151.966a1.2,1.2,0,0,0,1.161-2.111,6.475,6.475,0,0,0-6.27,0,1.2,1.2,0,0,0,1.161,2.111A4.079,4.079,0,0,1,232.923,151.966Z" transform="translate(-190.698 -125.106)"/>
      <path id="Trazado_873112" data-name="Trazado 873112" d="M151.867,149.856a6.475,6.475,0,0,0-6.27,0,1.2,1.2,0,1,0,1.161,2.111,4.079,4.079,0,0,1,3.949,0,1.2,1.2,0,0,0,1.161-2.111" transform="translate(-121.687 -125.106)"/>
      <path id="Trazado_873113" data-name="Trazado 873113" d="M95.613,61.878a18.628,18.628,0,0,0-9.344,2.5l-5.5-1.968A2.872,2.872,0,0,0,77.1,66.086l2.031,5.674a18.6,18.6,0,0,0-1.34,3.193L73.82,73.921a3.8,3.8,0,0,0-.359-1.234,3.758,3.758,0,0,0-3.176-2.12V67.042c.292-.158,5.9-5.481,6.323-5.861A12.87,12.87,0,0,0,80.431,54.3a9.45,9.45,0,0,0,6.525-8.977,4.481,4.481,0,0,0-2.271-3.895V38.961a9.571,9.571,0,0,0,6.327-9.048,9.471,9.471,0,0,0-9.355-9.562,9.145,9.145,0,0,0-2.849.453,16.2,16.2,0,0,0-15.831-2.872,16.189,16.189,0,0,0-15.815,2.877,9.151,9.151,0,0,0-2.866-.458,9.594,9.594,0,0,0-3.027,18.612v2.463A4.481,4.481,0,0,0,39,45.322a9.431,9.431,0,0,0,2.07,5.892V53.1a7.4,7.4,0,0,0,7.59,7.382c.957.987,5.9,5.619,6.954,6.512v3.569a3.758,3.758,0,0,0-3.176,2.12,3.8,3.8,0,0,0-.359,1.235l-3.635.945a1.2,1.2,0,0,0,.606,2.332l3.545-.921c.066.124,3.7,5.77,3.77,5.889a1.2,1.2,0,0,0,1.815.25l3.566-3.175v8.426a1.2,1.2,0,1,0,2.409,0V79.24l3.566,3.175a1.2,1.2,0,0,0,1.815-.25c.083-.137,3.7-5.751,3.771-5.89l3.915,1.018a18.628,18.628,0,0,0,2.24,12.645v8.1a1.2,1.2,0,0,0,2.409,0V93.2a18.678,18.678,0,0,0,30.566-4.5,1.2,1.2,0,0,0-2.168-1.051,16.3,16.3,0,0,1-2.234,3.427q-2.779-.6-5.573-.931v-2.5a4.728,4.728,0,0,0,1.885-1.086l3.208-3.014a1.2,1.2,0,1,0-1.65-1.756l-3.208,3.014a2.324,2.324,0,0,1-1.6.632h-5l1.917-7.746,8.345,2.065a1.2,1.2,0,0,0,1.494-1.141,9.536,9.536,0,0,0-7.285-9.537l-.412-.1.29-1.174a1.2,1.2,0,0,0-2.339-.579l-.29,1.173-.412-.1a9.537,9.537,0,0,0-10.893,5.038,1.2,1.2,0,0,0,.789,1.706l8.374,2.072-2.06,8.325H85.585a1.2,1.2,0,0,0,0,2.409h1.564v2.473q-2,.284-3.989.7a16.258,16.258,0,0,1-1.667-18.559,1.2,1.2,0,0,0,.09-1.006l-2.215-6.187a.463.463,0,0,1,.591-.592l6.034,2.16a1.205,1.205,0,0,0,1.042-.111,16.273,16.273,0,0,1,24.85,13.83,16.943,16.943,0,0,1-.129,2.072,1.2,1.2,0,1,0,2.391.3,19.367,19.367,0,0,0,.147-2.368A18.7,18.7,0,0,0,95.613,61.878ZM80.682,51.6V43.251h1.794a2.073,2.073,0,0,1,2.07,2.07A7.042,7.042,0,0,1,80.682,51.6Zm.975-28.839A7.06,7.06,0,0,1,88.6,29.913a7.192,7.192,0,0,1-3.918,6.439v-3a16.121,16.121,0,0,0-3.84-10.541A6.818,6.818,0,0,1,81.656,22.76ZM41.406,45.322a2.073,2.073,0,0,1,2.07-2.07H45.27V51.6a7.042,7.042,0,0,1-3.865-6.278m2.076,8.036a9.366,9.366,0,0,0,2.039.942,12.886,12.886,0,0,0,1.227,3.472l0,.006a4.983,4.983,0,0,1-3.269-4.419m2.993-12.515h-2.8V33.351a14.392,14.392,0,0,1,.077-1.483,1.2,1.2,0,0,0-2.4-.249,16.832,16.832,0,0,0-.09,1.732v3a7.169,7.169,0,0,1-3.919-6.441A7.06,7.06,0,0,1,44.3,22.76a6.819,6.819,0,0,1,.832.052,16.047,16.047,0,0,0-2.019,2.983,1.2,1.2,0,0,0,2.135,1.116,14.068,14.068,0,0,1,12.334-7.493,13.876,13.876,0,0,1,4.193.654v5.223l-2.516,1.129A21.734,21.734,0,0,0,47.264,40.252.82.82,0,0,1,46.475,40.842Zm5.649,19.643h3.513a3.471,3.471,0,0,0,3.248,2.263h1.974a3.471,3.471,0,0,0,3.229-2.212,8.684,8.684,0,0,0,2.889-.884,1.2,1.2,0,1,0-1.094-2.147,6.3,6.3,0,0,1-1.768.592,3.471,3.471,0,0,0-3.256-2.286H58.885a3.471,3.471,0,0,0-3.248,2.263H49.782a10.48,10.48,0,0,1-2.1-6.29V43.018a3.239,3.239,0,0,0,1.9-2.1,19.325,19.325,0,0,1,10.662-12.3l2.735-1.227,2.734,1.227a19.443,19.443,0,0,1,6.673,4.954A1.2,1.2,0,0,0,74.2,32,21.871,21.871,0,0,0,66.7,26.423l-2.516-1.129V20.072A13.919,13.919,0,0,1,82.275,33.351v7.491h-2.8a.817.817,0,0,1-.491-.165.808.808,0,0,1-.291-.424,21.643,21.643,0,0,0-1.206-3.215A1.2,1.2,0,1,0,75.3,38.06a19.251,19.251,0,0,1,1.073,2.86,3.217,3.217,0,0,0,1.9,2.1v8.766a10.481,10.481,0,0,1-3.311,7.638L69.4,64.633a9.4,9.4,0,0,1-12.843,0Zm5.7-1.2a1.06,1.06,0,0,1,1.059-1.059h1.974a1.059,1.059,0,1,1,0,2.118H58.885a1.06,1.06,0,0,1-1.059-1.059m-.2,20.4-2.949-4.6a1.369,1.369,0,0,1,1.013-2.1l.743-.059,4.641,3.689Zm5.319-4.662L58.02,71.1V68.49a11.816,11.816,0,0,0,9.856.027V71.1Zm8.267.061-2.949,4.6-3.448-3.07,4.648-3.69.736.058a1.369,1.369,0,0,1,1.013,2.1Zm34.1,1.942-3.454-.855a9.087,9.087,0,0,0-.584-4.29,7.117,7.117,0,0,1,4.038,5.145m-12.363-3.06L89.5,73.1a7.119,7.119,0,0,1,5.976-2.671A9.081,9.081,0,0,0,92.956,73.959Zm2.368.586a6.55,6.55,0,0,1,2.989-3.13A6.55,6.55,0,0,1,99.5,75.578Zm.178,13.3h4.548v2.06q-2.505-.2-5.014-.176Zm-5.944,0H93.02L92.537,89.8q-1.49.074-2.978.225Zm16.4,5.269a16.182,16.182,0,0,1-10.35,3.718,16.2,16.2,0,0,1-10.392-3.76,56.729,56.729,0,0,1,20.742.042" transform="translate(-29.329 -14.27)"/>
    </g>
  </g>
</svg>
