<svg xmlns="http://www.w3.org/2000/svg" xmlns:xlink="http://www.w3.org/1999/xlink" width="1240.001" height="536.614" viewBox="0 0 1240.001 536.614">
  <defs>
    <clipPath id="clip-path">
      <path id="Trazado_873175" data-name="Trazado 873175" d="M19.934,0H1215.983c11.009,0,19.934,10.238,19.934,22.867v489.35c0,12.629-8.925,22.867-19.934,22.867H19.934C8.925,535.083,0,524.846,0,512.217V22.867C0,10.238,8.925,0,19.934,0Z" fill="#fbf2e0"/>
    </clipPath>
  </defs>
  <g id="Grupo_1099814" data-name="Grupo 1099814" transform="translate(-181.05 -12071)">
    <rect id="Rectángulo_401238" data-name="Rectángulo 401238" width="1240" height="535" rx="20" transform="translate(181.051 12071)" fill="#f6e5c2"/>
    <g id="Grupo_1099364" data-name="Grupo 1099364" transform="translate(0.031 11049.531)">
      <path id="Trazado_873159" data-name="Trazado 873159" d="M19.934,0H1215.983a19.934,19.934,0,0,1,19.934,19.934V446.525a19.934,19.934,0,0,1-19.934,19.934H19.934A19.934,19.934,0,0,1,0,446.525V19.934A19.934,19.934,0,0,1,19.934,0Z" transform="translate(181.019 1023)" fill="#fbf2e0"/>
      <g id="Enmascarar_grupo_1098675" data-name="Enmascarar grupo 1098675" transform="translate(181.019 1023)" clip-path="url(#clip-path)">
        <path id="Trazado_873174" data-name="Trazado 873174" d="M-16553.213-8289.4l12.537-36.314-12.537-99.854-23.549-67.428,36.086-136.062-12.537-45.272v-66.54l-117.24-27.16-43.676-20.229-26.34-14.523-22.049,4.793h-30.7l-13.734-4.793-36.953,4.793s-.137-.2-6.361,0c-6.24.21-50.826-5.6-59.092-4.793s-34.77,4.793-34.77,4.793-2.205-1.793-26.57,0-66.838,0-66.838,0-22.111,12.308-38.541,9.73-53.713,1.716-63.256,0-8.25,6.138-35.957,0-51.459-9.73-51.459-9.73l-40.105,9.73s-19.895,7.226-27.332,0-16.473-11.5-25.309-9.73-24.1-3.25-33.937,0-30.338,24.788-49.465,9.73-58.25-23.676-58.25-23.676l-18.145,13.945-30.732,9.73s-56.443-11.806-65.787-9.73c-9.328,2.077-36.248.72-48.889,0s-36.336-3.665-47.289,0-38.115,9.73-38.115,9.73-24.82,6.749-34.375,0-7.031-9.488-15.906-9.73-27.314-5.679-30.678,0-3.939,1.135-9.779,9.73-25.8,20.229-25.8,20.229-10.658,42.037,0,49.8c10.637,7.761,12.035,14.972,16.691,22.969s9.111,27.517,9.111,27.517l-9.111,71.54v13.673s-14.277,11.311-16.691,17.221c-2.432,5.908.3-4.226,0,19.915-.318,24.134,2.891,40.381,0,52.4-2.908,12.019,1.281,23.992,0,29.188-1.3,5.193,19.951,12.33,16.691,18.821s0,19.419,0,19.419-16.541,2.326-16.691,6.093c-.184,3.769,3.016,15.836,0,27.15s-.775,35.8,0,39.688c.746,3.883-1.426,7.682,0,14.576,1.387,6.9,0,25.32,0,25.32l16.691,36.533s27.373,19.959,34.873,25.028,64.977,26.574,64.977,26.574-3.059-12.88,38.115-12.978,56.916,3.341,64.7,0,94.373,4.562,97.268,0,69.748-5.5,69.748-5.5,18.475,3.536,37.379,5.5,83.4,0,83.4,0,51.045-.028,52.641,0,64.061,4.871,72.1,5.644,77.012,13.617,81.611,7.334,49.422-4.538,54.055-7.334,37.158-6.02,50.949-5.644c13.773.375,64.016-5.5,64.016-5.5h87.746s30.484,23.289,54.9,18.474,103.313-7.334,103.313-7.334,56.385-9.549,58.818-11.14,11.162-20.569,11.162-20.569,38.629-10.968,43.584-12.56C-16579.666-8277.8-16553.213-8289.4-16553.213-8289.4Z" transform="translate(17804.977 8745.399)" fill="#fbf2e0"/>
      </g>
    </g>
  </g>
</svg>
