<svg id="Grupo_1099818" data-name="Grupo 1099818" xmlns="http://www.w3.org/2000/svg" xmlns:xlink="http://www.w3.org/1999/xlink" width="505.122" height="481.379" viewBox="0 0 505.122 481.379">
  <defs>
    <clipPath id="clip-path">
      <rect id="Rectángulo_401226" data-name="Rectángulo 401226" width="505.122" height="481.379" rx="14" fill="none"/>
    </clipPath>
  </defs>
  <path id="Trazado_873177" data-name="Trazado 873177" d="M481.109,0H24.013C10.751,0,0,7.456,0,16.654v448.07c0,9.2,10.751,16.655,24.013,16.655h457.1c13.262,0,24.013-7.456,24.013-16.655V16.654C505.122,7.456,494.371,0,481.109,0Z" transform="translate(0 0)" fill="#c8d5c6"/>
  <g id="Enmascarar_grupo_1098676" data-name="Enmascarar grupo 1098676" transform="translate(0 0)" clip-path="url(#clip-path)">
    <path id="Trazado_873176" data-name="Trazado 873176" d="M-17824.352-8754.552l-7.023,31.329,7.023,86.146,13.2,58.169-20.227,117.385,7.023,39.056v57.407l65.723,23.428,24.484,17.454,14.762,12.528,12.363-4.135h17.2l7.707,4.135,20.715-4.135s.078.175,3.566,0,28.484,4.833,33.125,4.135c4.625-.7,19.492-4.135,19.492-4.135s1.234,1.546,14.887,0c13.668-1.55,37.473,0,37.473,0s12.4-10.616,21.6-8.394c9.219,2.224,30.117-1.482,35.461,0,5.363,1.484,4.637-5.3,20.152,0,15.547,5.3,28.855,8.394,28.855,8.394l22.477-8.394s11.156-6.234,15.332,0c4.16,6.237,9.219,9.921,14.188,8.394,4.949-1.524,13.5,2.8,19.023,0s17-21.386,27.727-8.394c10.711,13,32.648,20.425,32.648,20.425l10.176-12.031,17.227-8.394s31.637,10.183,36.879,8.394c5.227-1.792,20.316-.62,27.4,0s20.367,3.162,26.508,0,21.367-8.394,21.367-8.394,13.918-5.824,19.27,0,3.941,8.187,8.918,8.394,15.309,4.9,17.2,0,2.211-.98,5.492-8.394,14.457-17.454,14.457-17.454,5.977-36.264,0-42.965-6.75-12.913-9.359-19.812-5.1-23.742-5.1-23.742l5.1-61.715v-11.8s8-9.759,9.359-14.857-.168,3.644,0-17.181-1.625-34.837,0-45.206-.723-20.694,0-25.178-11.176-10.64-9.359-16.237,0-16.754,0-16.754,9.273-2.007,9.359-5.256-1.7-13.661,0-23.424.426-30.885,0-34.236c-.41-3.349.793-6.626,0-12.577-.777-5.948,0-21.842,0-21.842l-9.359-31.521s-15.34-17.218-19.551-21.59-36.422-22.927-36.422-22.927,1.723,11.111-21.367,11.2c-23.074.089-31.9-2.883-36.262,0s-52.914-3.937-54.527,0-39.094,4.741-39.094,4.741a192.384,192.384,0,0,0-20.957-4.741c-10.605-1.689-46.75,0-46.75,0s-28.617.022-29.52,0-35.914-4.2-40.414-4.867-43.164-11.749-45.746-6.328-27.7,3.916-30.293,6.328-20.832,5.191-28.57,4.867c-7.723-.321-35.883,4.741-35.883,4.741h-49.2s-17.082-20.091-30.766-15.937-57.914,6.328-57.914,6.328-31.613,8.235-32.977,9.608-6.262,17.746-6.262,17.746-21.652,9.461-24.426,10.834S-17824.352-8754.552-17824.352-8754.552Z" transform="translate(17707.498 8777.25)" fill="#fbf2e0"/>
  </g>
</svg>
