<svg id="Grupo_1099816" data-name="Grupo 1099816" xmlns="http://www.w3.org/2000/svg" xmlns:xlink="http://www.w3.org/1999/xlink" width="505.341" height="481.379" viewBox="0 0 505.341 481.379">
  <defs>
    <clipPath id="clip-path">
      <rect id="Rectángulo_401226" data-name="Rectángulo 401226" width="505.122" height="476.379" rx="14" fill="none"/>
    </clipPath>
  </defs>
  <path id="Trazado_873177" data-name="Trazado 873177" d="M481.109,0H24.013C10.751,0,0,7.379,0,16.481V459.9c0,9.1,10.751,16.481,24.013,16.481h457.1c13.262,0,24.013-7.379,24.013-16.481V16.481C505.122,7.379,494.371,0,481.109,0Z" transform="translate(0.219 5)" fill="#c8d5c6"/>
  <g id="Enmascarar_grupo_1098676" data-name="Enmascarar grupo 1098676" transform="translate(0 0)" clip-path="url(#clip-path)">
    <path id="Trazado_873176" data-name="Trazado 873176" d="M-17824.352-8755.146l-7.023,31,7.023,85.251,13.2,57.565-20.227,116.165,7.023,38.649v56.812l65.723,23.185,24.484,17.272,14.762,12.4,12.363-4.092h17.2l7.707,4.092,20.715-4.092s.078.173,3.566,0,28.484,4.782,33.125,4.092c4.625-.69,19.492-4.092,19.492-4.092s1.234,1.529,14.887,0c13.668-1.534,37.473,0,37.473,0s12.4-10.506,21.6-8.307c9.219,2.2,30.117-1.468,35.461,0,5.363,1.469,4.637-5.242,20.152,0,15.547,5.246,28.855,8.307,28.855,8.307l22.477-8.307s11.156-6.17,15.332,0c4.16,6.172,9.219,9.818,14.188,8.307,4.949-1.509,13.5,2.774,19.023,0s17-21.163,27.727-8.307c10.711,12.861,32.648,20.213,32.648,20.213l10.176-11.906,17.227-8.307s31.637,10.077,36.879,8.307c5.227-1.773,20.316-.614,27.4,0s20.367,3.129,26.508,0,21.367-8.307,21.367-8.307,13.918-5.764,19.27,0,3.941,8.1,8.918,8.307,15.309,4.85,17.2,0,2.211-.971,5.492-8.307,14.457-17.272,14.457-17.272,5.977-35.888,0-42.519-6.75-12.779-9.359-19.607-5.1-23.5-5.1-23.5l5.1-61.074v-11.675s8-9.656,9.359-14.7-.168,3.605,0-17-1.625-34.475,0-44.736-.723-20.48,0-24.917-11.176-10.529-9.359-16.068,0-16.58,0-16.58,9.273-1.985,9.359-5.2-1.7-13.519,0-23.179.426-30.565,0-33.883c-.41-3.313.793-6.557,0-12.445-.777-5.887,0-21.616,0-21.616l-9.359-31.192s-15.34-17.04-19.551-21.366-36.422-22.688-36.422-22.688,1.723,11-21.367,11.079c-23.074.088-31.9-2.853-36.262,0s-52.914-3.895-54.527,0-39.094,4.692-39.094,4.692a194.031,194.031,0,0,0-20.957-4.692c-10.605-1.672-46.75,0-46.75,0s-28.617.022-29.52,0-35.914-4.16-40.414-4.817-43.164-11.626-45.746-6.262-27.7,3.877-30.293,6.262-20.832,5.139-28.57,4.817c-7.723-.317-35.883,4.692-35.883,4.692h-49.2s-17.082-19.883-30.766-15.771-57.914,6.262-57.914,6.262-31.613,8.15-32.977,9.51-6.262,17.562-6.262,17.562-21.652,9.362-24.426,10.722S-17824.352-8755.146-17824.352-8755.146Z" transform="translate(17707.498 8777.609)" fill="#e3eae2"/>
  </g>
</svg>
